<?xml version="1.0" encoding="UTF-8" standalone="no"?>
<svg
   y="0in"
   x="0in"
   version="1.2"
   height="3.88283in"
   width="3.84764in"
   viewBox="0 0 277.03 279.564"
   id="svg1334"
   sodipodi:docname="bottommask.svg"
   xmlns:inkscape="http://www.inkscape.org/namespaces/inkscape"
   xmlns:sodipodi="http://sodipodi.sourceforge.net/DTD/sodipodi-0.dtd"
   xmlns="http://www.w3.org/2000/svg"
   xmlns:svg="http://www.w3.org/2000/svg">
  <defs
     id="defs1338" />
  <sodipodi:namedview
     id="namedview1336"
     pagecolor="#ffffff"
     bordercolor="#000000"
     borderopacity="0.25"
     inkscape:showpageshadow="2"
     inkscape:pageopacity="0.0"
     inkscape:pagecheckerboard="0"
     inkscape:deskcolor="#d1d1d1"
     inkscape:document-units="in" />
  <g
     partID="57730"
     id="g3">
    <g
       id="board" />
  </g>
  <g
     partID="1111550"
     id="g9">
    <g
       transform="translate(249.156,94.6631)"
       id="g7">
      <g
         id="copper0">
        <path
           id="path1606"
           style="color:#000000;fill:#000000;stroke-width:1.57039;-inkscape-stroke:none"
           d="M -81.582286 -90.151377 C -83.319128 -90.151377 -84.750746 -88.71976 -84.750746 -86.982918 C -84.750745 -85.246075 -83.319128 -83.815923 -81.582286 -83.815923 C -79.845443 -83.815923 -78.415291 -85.246075 -78.415291 -86.982918 C -78.415291 -88.71976 -79.845443 -90.151377 -81.582286 -90.151377 z M -74.382573 -90.151377 C -76.119415 -90.151377 -77.551032 -88.71976 -77.551032 -86.982918 C -77.551032 -85.246075 -76.119415 -83.815923 -74.382573 -83.815923 C -72.64573 -83.815923 -71.215578 -85.246075 -71.215578 -86.982918 C -71.215578 -88.71976 -72.64573 -90.151377 -74.382573 -90.151377 z M -203.98327 -90.149913 C -205.72011 -90.149913 -207.15173 -88.718295 -207.15173 -86.981453 C -207.15173 -85.24461 -205.72011 -83.812993 -203.98327 -83.812993 C -202.24643 -83.812993 -200.81481 -85.24461 -200.81481 -86.981453 C -200.81481 -88.718295 -202.24643 -90.149912 -203.98327 -90.149913 z M -196.78356 -90.149913 C -198.5204 -90.149913 -199.95202 -88.718295 -199.95202 -86.981453 C -199.95202 -85.24461 -198.5204 -83.812993 -196.78356 -83.812993 C -195.04671 -83.812993 -193.6151 -85.24461 -193.6151 -86.981453 C -193.6151 -88.718295 -195.04671 -90.149912 -196.78356 -90.149913 z M -189.58384 -90.149913 C -191.32069 -90.149913 -192.75084 -88.718295 -192.75084 -86.981453 C -192.75084 -85.24461 -191.32069 -83.812993 -189.58384 -83.812993 C -187.847 -83.812993 -186.41538 -85.24461 -186.41538 -86.981453 C -186.41538 -88.718295 -187.847 -90.149912 -189.58384 -90.149913 z M -175.18295 -90.149913 C -176.91979 -90.149913 -178.35141 -88.718295 -178.35141 -86.981453 C -178.35141 -85.24461 -176.91979 -83.812993 -175.18295 -83.812993 C -173.44611 -83.812993 -172.01596 -85.24461 -172.01596 -86.981453 C -172.01596 -88.718295 -173.44611 -90.149912 -175.18295 -90.149913 z M -167.98324 -90.149913 C -169.72008 -90.149913 -171.1517 -88.718295 -171.1517 -86.981453 C -171.1517 -85.24461 -169.72008 -83.812993 -167.98324 -83.812993 C -166.2464 -83.812993 -164.81478 -85.24461 -164.81478 -86.981453 C -164.81478 -88.718295 -166.2464 -90.149912 -167.98324 -90.149913 z M -160.78353 -90.149913 C -162.52037 -90.149913 -163.95199 -88.718295 -163.95199 -86.981453 C -163.95199 -85.24461 -162.52037 -83.812993 -160.78353 -83.812993 C -159.04668 -83.812993 -157.61507 -85.24461 -157.61507 -86.981453 C -157.61507 -88.718295 -159.04668 -90.149912 -160.78353 -90.149913 z M -146.38263 -90.149913 C -148.11948 -90.149913 -149.55109 -88.718295 -149.55109 -86.981453 C -149.55109 -85.24461 -148.11948 -83.812993 -146.38263 -83.812993 C -144.64579 -83.812993 -143.21564 -85.24461 -143.21564 -86.981453 C -143.21564 -88.718295 -144.64579 -90.149912 -146.38263 -90.149913 z M -139.18292 -90.149913 C -140.91976 -90.149913 -142.35138 -88.718295 -142.35138 -86.981453 C -142.35138 -85.24461 -140.91976 -83.812993 -139.18292 -83.812993 C -137.44608 -83.812993 -136.01446 -85.24461 -136.01446 -86.981453 C -136.01446 -88.718295 -137.44608 -90.149912 -139.18292 -90.149913 z M -131.98321 -90.149913 C -133.72005 -90.149913 -135.1502 -88.718295 -135.1502 -86.981453 C -135.1502 -85.24461 -133.72005 -83.812993 -131.98321 -83.812993 C -130.24637 -83.812993 -128.81475 -85.24461 -128.81475 -86.981453 C -128.81475 -88.718295 -130.24637 -90.149912 -131.98321 -90.149913 z M -110.38114 -90.149913 C -112.11798 -90.149912 -113.5496 -88.718295 -113.5496 -86.981453 C -113.5496 -85.24461 -112.11798 -83.812993 -110.38114 -83.812993 C -108.6443 -83.812993 -107.21268 -85.24461 -107.21268 -86.981453 C -107.21268 -88.718295 -108.6443 -90.149913 -110.38114 -90.149913 z M -103.18143 -90.149913 C -104.91827 -90.149912 -106.34842 -88.718295 -106.34842 -86.981453 C -106.34842 -85.24461 -104.91827 -83.812993 -103.18143 -83.812993 C -101.44458 -83.812993 -100.01297 -85.24461 -100.01297 -86.981453 C -100.01297 -88.718295 -101.44458 -90.149913 -103.18143 -90.149913 z M -117.52812 -90.148448 C -119.2647 -90.17876 -120.72046 -88.773695 -120.75078 -87.037117 C -120.78109 -85.300538 -119.37602 -83.84477 -117.63945 -83.814458 C -115.90287 -83.784146 -114.4471 -85.18921 -114.41679 -86.925789 C -114.38647 -88.662367 -115.79154 -90.118136 -117.52812 -90.148448 z M -203.98181 -82.66309 C -205.55959 -82.66309 -206.86169 -81.359524 -206.86169 -79.78174 C -206.86169 -78.203955 -205.55959 -76.903319 -203.98181 -76.903319 C -202.40402 -76.903319 -201.10192 -78.203955 -201.10192 -79.78174 C -201.10192 -81.359524 -202.40402 -82.66309 -203.98181 -82.66309 z M -196.76891 -82.66309 C -198.34669 -82.66309 -199.64879 -81.359524 -199.64879 -79.78174 C -199.64879 -78.203955 -198.34669 -76.903319 -196.76891 -76.903319 C -195.19112 -76.903319 -193.88902 -78.203955 -193.88902 -79.78174 C -193.88902 -81.359524 -195.19112 -82.66309 -196.76891 -82.66309 z M -175.18149 -82.66309 C -176.75927 -82.66309 -178.06284 -81.359524 -178.06284 -79.78174 C -178.06284 -78.203955 -176.75927 -76.903319 -175.18149 -76.903319 C -173.6037 -76.903319 -172.30307 -78.203955 -172.30307 -79.78174 C -172.30307 -81.359524 -173.6037 -82.66309 -175.18149 -82.66309 z M -167.96859 -82.66309 C -169.54638 -82.66309 -170.84994 -81.359524 -170.84994 -79.78174 C -170.84994 -78.203955 -169.54638 -76.903319 -167.96859 -76.903319 C -166.39081 -76.903319 -165.09017 -78.203955 -165.09017 -79.78174 C -165.09017 -81.359524 -166.39081 -82.66309 -167.96859 -82.66309 z M -146.38117 -82.66309 C -147.95895 -82.66309 -149.26252 -81.359524 -149.26252 -79.78174 C -149.26252 -78.203955 -147.95895 -76.903319 -146.38117 -76.903319 C -144.80339 -76.903319 -143.50275 -78.203955 -143.50275 -79.78174 C -143.50275 -81.359524 -144.80339 -82.66309 -146.38117 -82.66309 z M -139.16827 -82.66309 C -140.74606 -82.66309 -142.04962 -81.359524 -142.04962 -79.78174 C -142.04962 -78.203955 -140.74606 -76.903319 -139.16827 -76.903319 C -137.59049 -76.903319 -136.28985 -78.203955 -136.28985 -79.78174 C -136.28985 -81.359524 -137.59049 -82.66309 -139.16827 -82.66309 z M -117.58085 -82.66309 C -119.15864 -82.66309 -120.4622 -81.359524 -120.4622 -79.78174 C -120.4622 -78.203955 -119.15864 -76.903319 -117.58085 -76.903319 C -116.00307 -76.903319 -114.70243 -78.203955 -114.70243 -79.78174 C -114.70243 -81.359524 -116.00307 -82.66309 -117.58085 -82.66309 z M -110.36796 -82.66309 C -111.94574 -82.66309 -113.24931 -81.359524 -113.24931 -79.78174 C -113.24931 -78.203955 -111.94574 -76.903319 -110.36796 -76.903319 C -108.79017 -76.903319 -107.48953 -78.203955 -107.48953 -79.78174 C -107.48953 -81.359524 -108.79017 -82.66309 -110.36796 -82.66309 z M -27.582239 -81.149905 C -29.319082 -81.149905 -30.750699 -79.718287 -30.750699 -77.981445 C -30.750699 -76.244603 -29.319082 -74.812985 -27.582239 -74.812985 C -25.845397 -74.812985 -24.415244 -76.244603 -24.415244 -77.981445 C -24.415244 -79.718287 -25.845397 -81.149905 -27.582239 -81.149905 z M -20.381061 -81.149905 C -22.117903 -81.149905 -23.549521 -79.718287 -23.549521 -77.981445 C -23.549521 -76.244603 -22.117903 -74.812985 -20.381061 -74.812985 C -18.644218 -74.812985 -17.214066 -76.244603 -17.214066 -77.981445 C -17.214066 -79.718287 -18.644219 -81.149905 -20.381061 -81.149905 z M -238.18301 -81.078127 C -240.88241 -81.078127 -243.07705 -78.882017 -243.07705 -76.182615 C -243.07705 -73.483213 -240.88241 -71.287103 -238.18301 -71.287103 C -235.4836 -71.287103 -233.28603 -73.483213 -233.28603 -76.182615 C -233.28603 -78.882017 -235.4836 -81.078127 -238.18301 -81.078127 z M 15.61604 -81.078127 C 12.916638 -81.078127 10.721993 -78.882017 10.721993 -76.182615 C 10.721993 -73.483213 12.916638 -71.287103 15.61604 -71.287103 C 18.315442 -71.287103 20.513017 -73.483213 20.513017 -76.182615 C 20.513017 -78.882017 18.315442 -81.078127 15.61604 -81.078127 z M -81.582286 -72.560054 C -82.55457 -72.560054 -83.359143 -71.754016 -83.359143 -70.781732 C -83.359143 -69.809448 -82.55457 -69.004875 -81.582286 -69.004875 C -80.610002 -69.004875 -79.805429 -69.809448 -79.805429 -70.781732 C -79.805429 -71.754016 -80.610002 -72.560054 -81.582286 -72.560054 z M -167.98177 -67.15917 C -168.95406 -67.15917 -169.7601 -66.354597 -169.7601 -65.382313 C -169.7601 -64.410029 -168.95406 -63.605456 -167.98177 -63.605456 C -167.00949 -63.605456 -166.20492 -64.410029 -166.20492 -65.382313 C -166.20492 -66.354597 -167.00949 -67.15917 -167.98177 -67.15917 z M -139.18292 -67.15917 C -140.15521 -67.15917 -140.95978 -66.354597 -140.95978 -65.382313 C -140.95978 -64.410029 -140.15521 -63.605456 -139.18292 -63.605456 C -138.21064 -63.605456 -137.4046 -64.410029 -137.4046 -65.382313 C -137.4046 -66.354597 -138.21064 -67.15917 -139.18292 -67.15917 z M -110.3826 -67.15917 C -111.35489 -67.15917 -112.15946 -66.354597 -112.15946 -65.382313 C -112.15946 -64.410029 -111.35489 -63.605456 -110.3826 -63.605456 C -109.41032 -63.605456 -108.60575 -64.410029 -108.60575 -65.382313 C -108.60575 -66.354597 -109.41032 -67.15917 -110.3826 -67.15917 z M -117.54277 -63.599597 C -118.51505 -63.599597 -119.31962 -62.795023 -119.31962 -61.82274 C -119.31962 -60.850456 -118.51505 -60.044418 -117.54277 -60.044418 C -116.57048 -60.044418 -115.76444 -60.850456 -115.76444 -61.82274 C -115.76444 -62.795024 -116.57048 -63.599597 -117.54277 -63.599597 z M -81.582286 -59.550765 C -83.319128 -59.550765 -84.750746 -58.120613 -84.750746 -56.38377 C -84.750745 -54.646928 -83.319128 -53.21531 -81.582286 -53.21531 C -79.845443 -53.21531 -78.415291 -54.646928 -78.415291 -56.38377 C -78.415291 -58.120613 -79.845443 -59.550765 -81.582286 -59.550765 z M -81.582286 -52.349587 C -83.319128 -52.349587 -84.750745 -50.919434 -84.750746 -49.182592 C -84.750745 -47.445749 -83.319128 -46.014132 -81.582286 -46.014132 C -79.845443 -46.014132 -78.415291 -47.44575 -78.415291 -49.182592 C -78.415291 -50.919434 -79.845443 -52.349587 -81.582286 -52.349587 z M -133.78204 -43.242645 C -135.45923 -43.242645 -136.8421 -41.85978 -136.8421 -40.182584 C -136.8421 -38.505388 -135.45923 -37.121058 -133.78204 -37.121058 C -132.10484 -37.121058 -130.72051 -38.505388 -130.72051 -40.182584 C -130.72051 -41.85978 -132.10484 -43.242645 -133.78204 -43.242645 z M -126.58232 -43.242645 C -128.25952 -43.242644 -129.64092 -41.85978 -129.64092 -40.182584 C -129.64092 -38.505389 -128.25952 -37.121058 -126.58232 -37.121058 C -124.90513 -37.121058 -123.52226 -38.505388 -123.52226 -40.182584 C -123.52226 -41.85978 -124.90513 -43.242645 -126.58232 -43.242645 z M -119.38115 -43.242645 C -121.05834 -43.242645 -122.44121 -41.85978 -122.44121 -40.182584 C -122.44121 -38.505388 -121.05834 -37.121058 -119.38115 -37.121058 C -117.70395 -37.121058 -116.32255 -38.505388 -116.32255 -40.182584 C -116.32255 -41.85978 -117.70395 -43.242645 -119.38115 -43.242645 z M -112.18143 -43.242645 C -113.85863 -43.242645 -115.24296 -41.85978 -115.24296 -40.182584 C -115.24296 -38.505388 -113.85863 -37.121058 -112.18143 -37.121058 C -110.50424 -37.121058 -109.12137 -38.505388 -109.12137 -40.182584 C -109.12137 -41.85978 -110.50424 -43.242645 -112.18143 -43.242645 z M -104.98318 -43.242645 C -106.66038 -43.242645 -108.04178 -41.85978 -108.04178 -40.182584 C -108.04178 -38.505388 -106.66038 -37.121058 -104.98318 -37.121058 C -103.30599 -37.121058 -101.92166 -38.505388 -101.92166 -40.182584 C -101.92166 -41.85978 -103.30599 -43.242645 -104.98318 -43.242645 z M -97.782007 -43.242645 C -99.459202 -43.242645 -100.84207 -41.85978 -100.84207 -40.182584 C -100.84207 -38.505388 -99.459202 -37.121058 -97.782007 -37.121058 C -96.10481 -37.121058 -94.720481 -38.505388 -94.720481 -40.182584 C -94.720481 -41.85978 -96.10481 -43.242645 -97.782007 -43.242645 z M -90.582294 -43.242645 C -92.259489 -43.242645 -93.640889 -41.85978 -93.64089 -40.182584 C -93.64089 -38.505388 -92.259489 -37.121058 -90.582294 -37.121058 C -88.905097 -37.121058 -87.522232 -38.505388 -87.522232 -40.182584 C -87.522232 -41.85978 -88.905097 -43.242645 -90.582294 -43.242645 z M -155.38264 -34.759728 C -156.35493 -34.759728 -157.1595 -33.95369 -157.1595 -32.981406 C -157.1595 -32.009122 -156.35493 -31.204549 -155.38264 -31.204549 C -154.41036 -31.204549 -153.60579 -32.009122 -153.60579 -32.981406 C -153.60579 -33.95369 -154.41036 -34.759728 -155.38264 -34.759728 z M 13.817211 -30.751912 C 12.080368 -30.751912 10.648751 -29.320295 10.648751 -27.583452 C 10.648751 -25.84661 12.080368 -24.414993 13.817211 -24.414993 C 15.554053 -24.414993 16.98567 -25.84661 16.98567 -27.583452 C 16.98567 -29.320295 15.554053 -30.751912 13.817211 -30.751912 z M -81.580821 -28.674762 C -83.158606 -28.674762 -84.462171 -27.374126 -84.462171 -25.796341 C -84.462171 -24.218557 -83.158606 -22.914991 -81.580821 -22.914991 C -80.003036 -22.914991 -78.7024 -24.218557 -78.702401 -25.796341 C -78.702401 -27.374126 -80.003036 -28.674762 -81.580821 -28.674762 z M -214.78211 -25.893021 C -215.75439 -25.893021 -216.56043 -25.086983 -216.56043 -24.114699 C -216.56043 -23.142415 -215.75439 -22.337842 -214.78211 -22.337842 C -213.80982 -22.337842 -213.00525 -23.142415 -213.00525 -24.114699 C -213.00525 -25.086983 -213.80982 -25.893021 -214.78211 -25.893021 z M -182.38267 -25.75972 C -183.35495 -25.75972 -184.15952 -24.953682 -184.15952 -23.981398 C -184.15952 -23.009114 -183.35495 -22.204541 -182.38267 -22.204541 C -181.41038 -22.204541 -180.60581 -23.009114 -180.60581 -23.981398 C -180.60581 -24.953682 -181.41038 -25.75972 -182.38267 -25.75972 z M 13.817211 -23.550734 C 12.080368 -23.550734 10.648751 -22.120582 10.648751 -20.383739 C 10.648751 -18.646897 12.080368 -17.215279 13.817211 -17.215279 C 15.554053 -17.215279 16.98567 -18.646897 16.98567 -20.383739 C 16.98567 -22.120582 15.554053 -23.550734 13.817211 -23.550734 z M -136.8421 -21.643506 L -136.8421 -15.521918 L -135.76251 -15.521918 L -130.72051 -15.521918 L -130.72051 -21.643506 L -136.8421 -21.643506 z M -126.58232 -21.643506 C -128.25952 -21.643505 -129.64092 -20.26064 -129.64092 -18.583445 C -129.64092 -16.906249 -128.25952 -15.521919 -126.58232 -15.521918 C -124.90513 -15.521918 -123.52226 -16.906249 -123.52226 -18.583445 C -123.52226 -20.26064 -124.90513 -21.643506 -126.58232 -21.643506 z M -119.38115 -21.643506 C -121.05834 -21.643506 -122.44121 -20.26064 -122.44121 -18.583445 C -122.44121 -16.906249 -121.05834 -15.521918 -119.38115 -15.521918 C -117.70395 -15.521918 -116.32255 -16.906249 -116.32255 -18.583445 C -116.32255 -20.26064 -117.70395 -21.643506 -119.38115 -21.643506 z M -112.18143 -21.643506 C -113.85863 -21.643506 -115.24296 -20.26064 -115.24296 -18.583445 C -115.24296 -16.906249 -113.85863 -15.521918 -112.18143 -15.521918 C -110.50424 -15.521918 -109.12137 -16.906249 -109.12137 -18.583445 C -109.12137 -20.26064 -110.50424 -21.643506 -112.18143 -21.643506 z M -104.98318 -21.643506 C -106.66038 -21.643506 -108.04178 -20.26064 -108.04178 -18.583445 C -108.04178 -16.906249 -106.66038 -15.521918 -104.98318 -15.521918 C -103.30599 -15.521918 -101.92166 -16.906249 -101.92166 -18.583445 C -101.92166 -20.26064 -103.30599 -21.643506 -104.98318 -21.643506 z M -97.782007 -21.643506 C -99.459202 -21.643506 -100.84207 -20.26064 -100.84207 -18.583445 C -100.84207 -16.906249 -99.459202 -15.521918 -97.782007 -15.521918 C -96.10481 -15.521918 -94.720481 -16.906249 -94.720481 -18.583445 C -94.720481 -20.26064 -96.10481 -21.643506 -97.782007 -21.643506 z M -90.582294 -21.643506 C -92.259489 -21.643506 -93.640889 -20.26064 -93.64089 -18.583445 C -93.64089 -16.906249 -92.259489 -15.521918 -90.582294 -15.521918 C -88.905097 -15.521918 -87.522232 -16.906249 -87.522232 -18.583445 C -87.522232 -20.26064 -88.905097 -21.643506 -90.582294 -21.643506 z M -81.580821 -21.461865 C -83.158606 -21.461865 -84.462171 -20.161229 -84.462171 -18.583445 C -84.462171 -17.00566 -83.158606 -15.702094 -81.580821 -15.702094 C -80.003036 -15.702094 -78.702401 -17.00566 -78.702401 -18.583445 C -78.702401 -20.161229 -80.003036 -21.461865 -81.580821 -21.461865 z M -175.18295 -20.358837 C -176.15524 -20.358837 -176.95981 -19.554264 -176.95981 -18.58198 C -176.95981 -17.609696 -176.15524 -16.805123 -175.18295 -16.805123 C -174.21067 -16.805123 -173.40463 -17.609696 -173.40463 -18.58198 C -173.40463 -19.554264 -174.21067 -20.358837 -175.18295 -20.358837 z M -146.38263 -13.159123 C -147.35492 -13.159123 -148.15949 -12.35455 -148.15949 -11.382266 C -148.15949 -10.409983 -147.35492 -9.6054094 -146.38263 -9.6054094 C -145.41035 -9.6054093 -144.60578 -10.409982 -144.60578 -11.382266 C -144.60578 -12.35455 -145.41035 -13.159124 -146.38263 -13.159123 z M -196.78209 -12.750432 C -197.06413 -12.750432 -197.33691 -12.71269 -197.59801 -12.642033 L -199.84215 -12.642033 L -199.84215 -11.560978 L -199.84215 -10.394961 C -199.91199 -10.135277 -199.94909 -9.8637835 -199.94909 -9.5834368 C -199.94909 -9.3030091 -199.91203 -9.0301991 -199.84215 -8.7704478 L -199.84215 -6.5219107 L -197.58922 -6.5219107 C -197.3308 -6.4527976 -197.06093 -6.414977 -196.78209 -6.414977 C -196.50326 -6.414977 -196.23192 -6.4527976 -195.9735 -6.5219107 L -193.7235 -6.5219107 L -193.7235 -8.7645884 C -193.65259 -9.0261201 -193.61363 -9.3008765 -193.61363 -9.5834368 C -193.61363 -9.8658965 -193.65264 -10.139372 -193.7235 -10.40082 L -193.7235 -12.642033 L -195.96471 -12.642033 C -196.22581 -12.71269 -196.50005 -12.750432 -196.78209 -12.750432 z M -153.61897 -12.750432 C -155.35581 -12.750432 -156.78743 -11.32028 -156.78743 -9.5834368 C -156.78743 -7.8465938 -155.35581 -6.4149763 -153.61897 -6.414977 C -151.88213 -6.4149771 -150.44904 -7.8465944 -150.44904 -9.5834368 C -150.44904 -11.320279 -151.88213 -12.750432 -153.61897 -12.750432 z M 13.817211 -7.351013 C 12.080368 -7.3510129 10.648751 -5.9208605 10.648751 -4.184018 C 10.648751 -2.4471756 12.080368 -1.0155583 13.817211 -1.0155583 C 15.554053 -1.0155584 16.98567 -2.4471757 16.98567 -4.184018 C 16.98567 -5.9208605 15.554053 -7.3510129 13.817211 -7.351013 z M -126.58232 -7.2426144 C -128.25952 -7.2426144 -129.64239 -5.8597485 -129.64239 -4.1825532 C -129.64239 -2.5053569 -128.25952 -1.1210271 -126.58232 -1.1210271 C -124.90513 -1.1210271 -123.5208 -2.5053569 -123.5208 -4.1825532 C -123.5208 -5.8597485 -124.90513 -7.2426144 -126.58232 -7.2426144 z M -119.38261 -7.2426144 C -121.05981 -7.2426134 -122.44121 -5.8597485 -122.44121 -4.1825532 C -122.44121 -2.5053579 -121.05981 -1.1210271 -119.38261 -1.1210271 C -117.70542 -1.1210271 -116.32255 -2.5053569 -116.32255 -4.1825532 C -116.32255 -5.8597485 -117.70542 -7.2426144 -119.38261 -7.2426144 z M -112.18143 -7.2426144 C -113.85863 -7.2426144 -115.24149 -5.8597485 -115.24149 -4.1825532 C -115.24149 -2.5053569 -113.85863 -1.1210271 -112.18143 -1.1210271 C -110.50424 -1.1210271 -109.12284 -2.5053569 -109.12284 -4.1825532 C -109.12284 -5.8597485 -110.50424 -7.2426144 -112.18143 -7.2426144 z M -104.98172 -7.2426144 C -106.65892 -7.2426144 -108.04325 -5.8597485 -108.04325 -4.1825532 C -108.04325 -2.5053569 -106.65892 -1.1210271 -104.98172 -1.1210271 C -103.30452 -1.1210271 -101.92166 -2.5053569 -101.92166 -4.1825532 C -101.92166 -5.8597485 -103.30452 -7.2426144 -104.98172 -7.2426144 z M -97.783472 -7.2426144 C -99.460668 -7.2426144 -100.84207 -5.8597485 -100.84207 -4.1825532 C -100.84207 -2.5053569 -99.460668 -1.1210271 -97.783472 -1.1210271 C -96.106276 -1.1210271 -94.721946 -2.5053569 -94.721946 -4.1825532 C -94.721945 -5.8597485 -96.106276 -7.2426144 -97.783472 -7.2426144 z M -90.582294 -7.2426144 C -92.259489 -7.2426144 -93.642355 -5.8597485 -93.642355 -4.1825532 C -93.642355 -2.5053569 -92.259489 -1.1210271 -90.582294 -1.1210271 C -88.905097 -1.1210271 -87.520768 -2.5053569 -87.520768 -4.1825532 C -87.520768 -5.8597485 -88.905097 -7.2426144 -90.582294 -7.2426144 z M -83.38258 -7.2426144 C -85.059776 -7.2426144 -86.441176 -5.8597485 -86.441177 -4.1825532 C -86.441177 -2.5053569 -85.059776 -1.1210271 -83.38258 -1.1210271 C -81.705384 -1.1210271 -80.322519 -2.5053569 -80.322519 -4.1825532 C -80.322519 -5.8597485 -81.705384 -7.2426144 -83.38258 -7.2426144 z M -37.842014 -7.2426144 L -37.842014 -6.1630237 L -37.842014 -1.1210271 L -31.720426 -1.1210271 L -31.720426 -7.2426144 L -37.842014 -7.2426144 z M -13.181348 -7.2426144 C -14.858544 -7.2426144 -16.242874 -5.859749 -16.242874 -4.1825532 C -16.242874 -2.5053574 -14.858544 -1.1210271 -13.181348 -1.1210271 C -11.504153 -1.1210271 -10.121287 -2.5053574 -10.121287 -4.1825532 C -10.121287 -5.859749 -11.504153 -7.2426144 -13.181348 -7.2426144 z M -133.78204 -5.9594102 C -134.75432 -5.9594102 -135.56036 -5.154837 -135.56036 -4.1825532 C -135.56036 -3.2102693 -134.75432 -2.4056962 -133.78204 -2.4056962 C -132.80975 -2.4056961 -132.00518 -3.2102692 -132.00518 -4.1825532 C -132.00518 -5.1548371 -132.80975 -5.9594103 -133.78204 -5.9594102 z M -20.382526 -5.9594102 C -21.35481 -5.9594102 -22.159383 -5.154837 -22.159383 -4.1825532 C -22.159383 -3.2102693 -21.35481 -2.4056962 -20.382526 -2.4056962 C -19.410242 -2.4056961 -18.605669 -3.2102692 -18.605669 -4.1825532 C -18.605669 -5.1548371 -19.410242 -5.9594103 -20.382526 -5.9594102 z M -196.78209 -5.5492536 C -198.51893 -5.5492536 -199.94909 -4.1191009 -199.94909 -2.3822587 C -199.94909 -0.64541642 -198.51893 0.78620108 -196.78209 0.78620108 C -195.04525 0.78620108 -193.61363 -0.64541642 -193.61363 -2.3822587 C -193.61363 -4.1191009 -195.04525 -5.5492537 -196.78209 -5.5492536 z M -153.61897 -5.5492536 C -155.35581 -5.5492544 -156.78743 -4.1191019 -156.78743 -2.3822587 C -156.78743 -0.64541542 -155.35581 0.78620108 -153.61897 0.78620108 C -151.88213 0.78620108 -150.44904 -0.64541642 -150.44904 -2.3822587 C -150.44904 -4.1191009 -151.88213 -5.5492536 -153.61897 -5.5492536 z M 13.817211 -0.15129972 C 12.080368 -0.15129962 10.648751 1.2803176 10.648751 3.01716 C 10.648751 4.7540025 12.080368 6.184155 13.817211 6.184155 C 15.554053 6.1841549 16.98567 4.7540024 16.98567 3.01716 C 16.98567 1.2803176 15.554053 -0.15129962 13.817211 -0.15129972 z M -34.781952 -0.041436349 C -36.459148 -0.041436349 -37.842013 1.3399647 -37.842014 3.01716 C -37.842014 4.6943564 -36.459148 6.0772213 -34.781952 6.0772213 C -33.104757 6.0772213 -31.720426 4.6943564 -31.720426 3.01716 C -31.720427 1.3399647 -33.104757 -0.041436349 -34.781952 -0.041436349 z M -13.181348 -0.041436349 C -14.858543 -0.041436349 -16.242874 1.3399647 -16.242874 3.01716 C -16.242874 4.6943564 -14.858544 6.0772213 -13.181348 6.0772213 C -11.504153 6.0772213 -10.121287 4.6943564 -10.121287 3.01716 C -10.121288 1.3399647 -11.504153 -0.041436349 -13.181348 -0.041436349 z M -74.381108 0.13873959 C -75.958892 0.13873959 -77.262458 1.4393756 -77.262458 3.01716 C -77.262458 4.5949448 -75.958892 5.8985101 -74.381108 5.8985102 C -72.803323 5.8985102 -71.502687 4.5949449 -71.502687 3.01716 C -71.502687 1.4393756 -72.803323 0.13873959 -74.381108 0.13873959 z M -4.182805 1.240303 C -5.1550888 1.240303 -5.959662 2.0448762 -5.959662 3.01716 C -5.9596621 3.989444 -5.1550889 4.7954819 -4.182805 4.7954819 C -3.210521 4.795482 -2.404483 3.9894441 -2.4044831 3.01716 C -2.4044831 2.0448761 -3.2105211 1.2403029 -4.182805 1.240303 z M 3.0169083 1.240303 C 2.0446244 1.240303 1.2400513 2.0448762 1.2400513 3.01716 C 1.2400512 3.989444 2.0446243 4.7954819 3.0169083 4.7954819 C 3.9891923 4.795482 4.7952302 3.9894441 4.7952301 3.01716 C 4.7952301 2.0448761 3.9891922 1.2403029 3.0169083 1.240303 z M -65.448483 1.3076859 C -66.420767 1.3076859 -67.22534 2.1122591 -67.22534 3.0845429 C -67.22534 4.0568268 -66.420767 4.8613999 -65.448483 4.8613999 C -64.476199 4.8614 -63.671626 4.0568269 -63.671626 3.0845429 C -63.671626 2.112259 -64.476199 1.3076858 -65.448483 1.3076859 z M -27.582239 1.3076859 C -28.554523 1.3076859 -29.359096 2.1122591 -29.359096 3.0845429 C -29.359096 4.0568268 -28.554523 4.8613999 -27.582239 4.8613999 C -26.609955 4.8614 -25.805382 4.0568269 -25.805382 3.0845429 C -25.805382 2.112259 -26.609955 1.3076858 -27.582239 1.3076859 z M -196.78209 1.6489948 C -198.51893 1.6489948 -199.94909 3.0806123 -199.94909 4.8174546 C -199.94909 6.5542968 -198.51893 7.9859143 -196.78209 7.9859143 C -195.04525 7.9859143 -193.61363 6.5542968 -193.61363 4.8174546 C -193.61363 3.0806123 -195.04525 1.6489948 -196.78209 1.6489948 z M -153.61897 1.6489948 C -155.35581 1.6489938 -156.78743 3.0806113 -156.78743 4.8174546 C -156.78743 6.5542968 -155.35581 7.9859153 -153.61897 7.9859143 C -151.88213 7.9859143 -150.44904 6.5542968 -150.44904 4.8174546 C -150.44904 3.0806123 -151.88213 1.6489948 -153.61897 1.6489948 z M 13.817211 7.0484135 C 12.080368 7.0484136 10.648751 8.4800308 10.648751 10.216873 C 10.648751 11.953716 12.080368 13.385333 13.817211 13.385333 C 15.554053 13.385333 16.98567 11.953716 16.98567 10.216873 C 16.98567 8.4800308 15.554053 7.0484136 13.817211 7.0484135 z M -34.781952 7.1582769 C -36.459148 7.1582769 -37.842014 8.5411428 -37.842014 10.218338 C -37.842014 11.895534 -36.459148 13.276935 -34.781952 13.276935 C -33.104757 13.276935 -31.720426 11.895534 -31.720426 10.218338 C -31.720426 8.5411428 -33.104757 7.1582769 -34.781952 7.1582769 z M -13.181348 7.1582769 C -14.858544 7.1582769 -16.242874 8.5411428 -16.242874 10.218338 C -16.242874 11.895534 -14.858544 13.276935 -13.181348 13.276935 C -11.504153 13.276935 -10.121287 11.895534 -10.121287 10.218338 C -10.121287 8.5411428 -11.504153 7.1582769 -13.181348 7.1582769 z M -74.381108 7.3516364 C -75.958892 7.3516365 -77.262458 8.6522723 -77.262458 10.230057 C -77.262458 11.807842 -75.958892 13.111407 -74.381108 13.111407 C -72.803323 13.111407 -71.502687 11.807842 -71.502687 10.230057 C -71.502687 8.6522722 -72.803323 7.3516364 -74.381108 7.3516364 z M -221.98329 8.848708 C -223.72013 8.8487081 -225.15175 10.280325 -225.15175 12.017168 C -225.15175 13.75401 -223.72013 15.185628 -221.98329 15.185628 C -220.24644 15.185627 -218.81483 13.75401 -218.81483 12.017168 C -218.81483 10.280325 -220.24644 8.8487081 -221.98329 8.848708 z M -140.98322 8.848708 C -142.72006 8.8487081 -144.15021 10.280325 -144.15021 12.017168 C -144.15021 13.75401 -142.72006 15.185628 -140.98322 15.185628 C -139.24637 15.185627 -137.81476 13.75401 -137.81476 12.017168 C -137.81476 10.280325 -139.24637 8.8487081 -140.98322 8.848708 z M -196.78209 8.8501729 C -198.51893 8.8501729 -199.94909 10.28179 -199.94909 12.018633 C -199.94909 13.755475 -198.51893 15.187092 -196.78209 15.187092 C -195.04525 15.187092 -193.61363 13.755475 -193.61363 12.018633 C -193.61363 10.281789 -195.04525 8.8501729 -196.78209 8.8501729 z M -153.61897 8.8501729 C -155.35581 8.8501719 -156.78743 10.281789 -156.78743 12.018633 C -156.78743 13.755475 -155.35581 15.187093 -153.61897 15.187092 C -151.88213 15.187092 -150.44904 13.755475 -150.44904 12.018633 C -150.44904 10.28179 -151.88213 8.8501729 -153.61897 8.8501729 z M 13.817211 14.249592 C 12.080368 14.249592 10.648751 15.679744 10.648751 17.416587 C 10.648751 19.153429 12.080368 20.585046 13.817211 20.585046 C 15.554053 20.585046 16.98567 19.153429 16.98567 17.416587 C 16.98567 15.679744 15.554053 14.249592 13.817211 14.249592 z M -129.64239 14.356525 L -129.64239 20.478113 L -128.5628 20.478113 L -123.5208 20.478113 L -123.5208 14.356525 L -129.64239 14.356525 z M -119.38261 14.356525 C -121.05981 14.356526 -122.44121 15.740856 -122.44121 17.418051 C -122.44121 19.095247 -121.05981 20.478112 -119.38261 20.478113 C -117.70542 20.478113 -116.32255 19.095247 -116.32255 17.418051 C -116.32255 15.740856 -117.70542 14.356525 -119.38261 14.356525 z M -112.18143 14.356525 C -113.85863 14.356525 -115.24149 15.740856 -115.24149 17.418051 C -115.24149 19.095247 -113.85863 20.478113 -112.18143 20.478113 C -110.50424 20.478113 -109.12284 19.095247 -109.12284 17.418051 C -109.12284 15.740856 -110.50424 14.356525 -112.18143 14.356525 z M -104.98172 14.356525 C -106.65892 14.356525 -108.04325 15.740856 -108.04325 17.418051 C -108.04325 19.095247 -106.65892 20.478113 -104.98172 20.478113 C -103.30452 20.478113 -101.92166 19.095247 -101.92166 17.418051 C -101.92166 15.740856 -103.30452 14.356525 -104.98172 14.356525 z M -97.783472 14.356525 C -99.460668 14.356525 -100.84207 15.740856 -100.84207 17.418051 C -100.84207 19.095247 -99.460668 20.478113 -97.783472 20.478113 C -96.106276 20.478113 -94.721946 19.095247 -94.721946 17.418051 C -94.721946 15.740856 -96.106276 14.356525 -97.783472 14.356525 z M -90.582294 14.356525 C -92.259489 14.356525 -93.642355 15.740856 -93.642355 17.418051 C -93.642355 19.095247 -92.259489 20.478113 -90.582294 20.478113 C -88.905097 20.478113 -87.520768 19.095247 -87.520768 17.418051 C -87.520768 15.740856 -88.905097 14.356525 -90.582294 14.356525 z M -83.38258 14.356525 C -85.059776 14.356525 -86.441176 15.740856 -86.441177 17.418051 C -86.441177 19.095247 -85.059776 20.478113 -83.38258 20.478113 C -81.705384 20.478113 -80.322519 19.095247 -80.322519 17.418051 C -80.322519 15.740856 -81.705384 14.356525 -83.38258 14.356525 z M -34.781952 14.356525 C -36.459148 14.356525 -37.842014 15.740855 -37.842014 17.418051 C -37.842014 19.095247 -36.459148 20.478113 -34.781952 20.478113 C -33.104757 20.478113 -31.720426 19.095247 -31.720426 17.418051 C -31.720426 15.740855 -33.104757 14.356525 -34.781952 14.356525 z M -13.181348 14.356525 C -14.858544 14.356525 -16.242874 15.740855 -16.242874 17.418051 C -16.242874 19.095247 -14.858544 20.478113 -13.181348 20.478113 C -11.504153 20.478113 -10.121287 19.095247 -10.121287 17.418051 C -10.121287 15.740855 -11.504153 14.356525 -13.181348 14.356525 z M -236.38271 16.048421 C -238.11955 16.048421 -239.55117 17.480039 -239.55117 19.216881 C -239.55117 20.953724 -238.11955 22.385341 -236.38271 22.385341 C -234.64587 22.385341 -233.21572 20.953723 -233.21572 19.216881 C -233.21572 17.480039 -234.64587 16.048421 -236.38271 16.048421 z M -140.98322 16.048421 C -142.72006 16.048421 -144.15021 17.480039 -144.15021 19.216881 C -144.15021 20.953724 -142.72006 22.385341 -140.98322 22.385341 C -139.24637 22.385341 -137.81476 20.953723 -137.81476 19.216881 C -137.81476 17.480039 -139.24637 16.048421 -140.98322 16.048421 z M -196.78209 16.049886 C -198.51893 16.049886 -199.94909 17.481504 -199.94909 19.218346 C -199.94909 20.955188 -198.51893 22.385341 -196.78209 22.385341 C -195.04525 22.385341 -193.61363 20.955189 -193.61363 19.218346 C -193.61363 17.481504 -195.04525 16.049886 -196.78209 16.049886 z M -153.61897 16.049886 C -155.35581 16.049885 -156.78743 17.481504 -156.78743 19.218346 C -156.78743 20.955189 -155.35581 22.385342 -153.61897 22.385341 C -151.88213 22.385341 -150.44904 20.955188 -150.44904 19.218346 C -150.44904 17.481504 -151.88213 16.049886 -153.61897 16.049886 z M -34.781952 21.557703 C -36.459148 21.557703 -37.842014 22.939103 -37.842014 24.6163 C -37.842014 26.293495 -36.459148 27.677826 -34.781952 27.677826 C -33.104757 27.677826 -31.720426 26.293495 -31.720426 24.6163 C -31.720426 22.939103 -33.104757 21.557703 -34.781952 21.557703 z M -13.181348 21.557703 C -14.858544 21.557703 -16.242874 22.939103 -16.242874 24.6163 C -16.242874 26.293495 -14.858544 27.677826 -13.181348 27.677826 C -11.504153 27.677827 -10.121287 26.293495 -10.121287 24.6163 C -10.121287 22.939103 -11.504153 21.557703 -13.181348 21.557703 z M -236.38271 23.249599 C -238.11955 23.249599 -239.55117 24.679752 -239.55117 26.416594 C -239.55117 28.153437 -238.11955 29.585054 -236.38271 29.585054 C -234.64587 29.585054 -233.21572 28.153437 -233.21572 26.416594 C -233.21572 24.679752 -234.64587 23.249599 -236.38271 23.249599 z M -196.78209 23.249599 C -198.51894 23.249599 -199.94909 24.679751 -199.94909 26.416594 C -199.94909 28.153437 -198.51893 29.585054 -196.78209 29.585054 C -195.04525 29.585054 -193.61363 28.153437 -193.61363 26.416594 C -193.61363 24.679751 -195.04525 23.249599 -196.78209 23.249599 z M -153.61897 23.249599 C -155.35581 23.249599 -156.78743 24.679751 -156.78743 26.416594 C -156.78743 28.153438 -155.35581 29.585055 -153.61897 29.585054 C -151.88213 29.585054 -150.44904 28.153437 -150.44904 26.416594 C -150.44904 24.679751 -151.88213 23.249599 -153.61897 23.249599 z M -140.98322 23.249599 C -142.72006 23.249599 -144.15021 24.679752 -144.15021 26.416594 C -144.15021 28.153437 -142.72006 29.585054 -140.98322 29.585054 C -139.24637 29.585054 -137.81476 28.153437 -137.81476 26.416594 C -137.81476 24.679752 -139.24637 23.249599 -140.98322 23.249599 z M 13.817211 28.649018 C 12.080368 28.649018 10.648751 30.080635 10.648751 31.817478 C 10.648751 33.55432 12.080368 34.984473 13.817211 34.984473 C 15.554053 34.984473 16.98567 33.55432 16.98567 31.817478 C 16.98567 30.080635 15.554053 28.649018 13.817211 28.649018 z M -34.781952 28.757417 C -36.459148 28.757417 -37.842014 30.140283 -37.842014 31.817478 C -37.842014 33.494674 -36.459148 34.879004 -34.781952 34.879004 C -33.104757 34.879004 -31.720426 33.494674 -31.720426 31.817478 C -31.720426 30.140283 -33.104757 28.757417 -34.781952 28.757417 z M -13.181348 28.757417 C -14.858544 28.757417 -16.242874 30.140283 -16.242874 31.817478 C -16.242874 33.494674 -14.858544 34.879004 -13.181348 34.879004 C -11.504153 34.879004 -10.121287 33.494674 -10.121287 31.817478 C -10.121287 30.140283 -11.504153 28.757417 -13.181348 28.757417 z M -236.38271 30.449313 C -238.11955 30.449313 -239.55117 31.879465 -239.55117 33.616308 C -239.55117 35.35315 -238.11955 36.784767 -236.38271 36.784767 C -234.64587 36.784767 -233.21572 35.35315 -233.21572 33.616308 C -233.21572 31.879465 -234.64587 30.449313 -236.38271 30.449313 z M -196.78209 30.450777 C -198.51893 30.450777 -199.94909 31.88093 -199.94909 33.617772 C -199.94909 35.354615 -198.51893 36.786232 -196.78209 36.786232 C -195.04525 36.786232 -193.61363 35.354615 -193.61363 33.617772 C -193.61363 31.88093 -195.04525 30.450777 -196.78209 30.450777 z M -153.61897 30.450777 C -155.35581 30.450777 -156.78743 31.880929 -156.78743 33.617772 C -156.78743 35.354616 -155.35581 36.786232 -153.61897 36.786232 C -151.88213 36.786232 -150.44904 35.354615 -150.44904 33.617772 C -150.44904 31.88093 -151.88213 30.450777 -153.61897 30.450777 z M 13.817211 35.848731 C 12.080368 35.848731 10.648751 37.280349 10.648751 39.017191 C 10.648751 40.754034 12.080368 42.185651 13.817211 42.185651 C 15.554053 42.185651 16.98567 40.754033 16.98567 39.017191 C 16.98567 37.280349 15.554053 35.848731 13.817211 35.848731 z M -34.781952 35.958595 C -36.459148 35.958595 -37.842014 37.339996 -37.842014 39.017191 C -37.842014 40.694387 -36.459148 42.077252 -34.781952 42.077252 C -33.104757 42.077252 -31.720426 40.694387 -31.720426 39.017191 C -31.720426 37.339996 -33.104757 35.958596 -34.781952 35.958595 z M -13.181348 35.958595 C -14.858544 35.958595 -16.242874 37.339996 -16.242874 39.017191 C -16.242874 40.694387 -14.858544 42.077252 -13.181348 42.077252 C -11.504153 42.077252 -10.121287 40.694387 -10.121287 39.017191 C -10.121287 37.339996 -11.504153 35.958596 -13.181348 35.958595 z M -236.38271 37.649026 C -238.11955 37.649026 -239.55117 39.080643 -239.55117 40.817486 C -239.55117 42.554328 -238.11955 43.984481 -236.38271 43.984481 C -234.64587 43.98448 -233.21572 42.554328 -233.21572 40.817486 C -233.21572 39.080643 -234.64587 37.649026 -236.38271 37.649026 z M -216.58387 37.649026 C -218.32071 37.649026 -219.75086 39.080643 -219.75086 40.817486 C -219.75086 42.554328 -218.32071 43.984481 -216.58387 43.984481 C -214.84702 43.98448 -213.41541 42.554328 -213.41541 40.817486 C -213.41541 39.080643 -214.84702 37.649026 -216.58387 37.649026 z M -196.78209 37.649026 C -198.51893 37.649026 -199.94909 39.080643 -199.94909 40.817486 C -199.94909 42.554328 -198.51893 43.985945 -196.78209 43.985945 C -195.04525 43.985945 -193.61363 42.554328 -193.61363 40.817486 C -193.61363 39.080643 -195.04525 37.649026 -196.78209 37.649026 z M -153.61897 37.649026 C -155.35581 37.649025 -156.78743 39.080642 -156.78743 40.817486 C -156.78743 42.554328 -155.35581 43.985946 -153.61897 43.985945 C -151.88213 43.985945 -150.44904 42.554328 -150.44904 40.817486 C -150.44904 39.080643 -151.88213 37.649026 -153.61897 37.649026 z M 13.817211 43.048445 C 12.080368 43.048445 10.648751 44.480062 10.648751 46.216904 C 10.648751 47.953747 12.080368 49.385364 13.817211 49.385364 C 15.554053 49.385364 16.98567 47.953747 16.98567 46.216904 C 16.98567 44.480062 15.554053 43.048445 13.817211 43.048445 z M -34.781952 43.158308 C -36.459148 43.158308 -37.842014 44.541174 -37.842014 46.218369 C -37.842014 47.895566 -36.459148 49.276966 -34.781952 49.276966 C -33.104757 49.276966 -31.720426 47.895566 -31.720426 46.218369 C -31.720426 44.541174 -33.104757 43.158308 -34.781952 43.158308 z M -13.181348 43.158308 C -14.858544 43.158308 -16.242874 44.541174 -16.242874 46.218369 C -16.242874 47.895566 -14.858544 49.276966 -13.181348 49.276966 C -11.504153 49.276966 -10.121287 47.895566 -10.121287 46.218369 C -10.121287 44.541174 -11.504153 43.158308 -13.181348 43.158308 z M -47.315166 44.50743 C -48.28745 44.50743 -49.093488 45.312003 -49.093488 46.284287 C -49.093488 47.256571 -48.28745 48.061144 -47.315166 48.061144 C -46.342882 48.061144 -45.538309 47.256571 -45.538309 46.284287 C -45.538309 45.312003 -46.342882 44.50743 -47.315166 44.50743 z M -236.38271 44.848739 C -238.11955 44.848739 -239.55117 46.280356 -239.55117 48.017199 C -239.55117 49.754041 -238.11955 51.185659 -236.38271 51.185659 C -234.64587 51.185659 -233.21572 49.754041 -233.21572 48.017199 C -233.21572 46.280356 -234.64587 44.848739 -236.38271 44.848739 z M -216.58387 44.848739 C -218.32071 44.848739 -219.75086 46.280356 -219.75086 48.017199 C -219.75086 49.754041 -218.32071 51.185659 -216.58387 51.185659 C -214.84702 51.185659 -213.41541 49.754041 -213.41541 48.017199 C -213.41541 46.280356 -214.84702 44.848739 -216.58387 44.848739 z M -196.78209 44.850204 C -198.51893 44.850204 -199.94909 46.281821 -199.94909 48.018664 C -199.94909 49.755506 -198.51893 51.187123 -196.78209 51.187123 C -195.04525 51.187123 -193.61363 49.755506 -193.61363 48.018664 C -193.61363 46.28182 -195.04525 44.850204 -196.78209 44.850204 z M -153.61897 44.850204 C -155.35581 44.850203 -156.78743 46.28182 -156.78743 48.018664 C -156.78743 49.755506 -155.35581 51.187124 -153.61897 51.187123 C -151.88213 51.187123 -150.44904 49.755506 -150.44904 48.018664 C -150.44904 46.281821 -151.88213 44.850204 -153.61897 44.850204 z M -133.78204 48.040636 C -134.75432 48.040636 -135.56036 48.84521 -135.56036 49.817493 C -135.56036 50.789777 -134.75432 51.59435 -133.78204 51.59435 C -132.80975 51.59435 -132.00518 50.789777 -132.00518 49.817493 C -132.00518 48.845209 -132.80975 48.040636 -133.78204 48.040636 z M 13.817211 50.249623 C 12.080368 50.249623 10.648751 51.679775 10.648751 53.416618 C 10.648751 55.15346 12.080368 56.585077 13.817211 56.585077 C 15.554053 56.585077 16.98567 55.15346 16.98567 53.416618 C 16.98567 51.679775 15.554053 50.249623 13.817211 50.249623 z M -34.781952 50.356556 C -36.459148 50.356556 -37.842014 51.740886 -37.842014 53.418082 C -37.842014 55.095278 -36.459148 56.478144 -34.781952 56.478144 C -33.104757 56.478144 -31.720426 55.095278 -31.720426 53.418082 C -31.720426 51.740886 -33.104757 50.356556 -34.781952 50.356556 z M -13.181348 50.356556 C -14.858544 50.356556 -16.242874 51.740886 -16.242874 53.418082 C -16.242874 55.095278 -14.858544 56.478144 -13.181348 56.478144 C -11.504153 56.478144 -10.121287 55.095278 -10.121287 53.418082 C -10.121287 51.740886 -11.504153 50.356556 -13.181348 50.356556 z M -74.382573 51.573843 C -75.354856 51.573843 -76.15943 52.379881 -76.15943 53.352164 C -76.15943 54.324448 -75.354857 55.129021 -74.382573 55.129021 C -73.410289 55.129021 -72.605715 54.324448 -72.605716 53.352164 C -72.605716 52.37988 -73.410289 51.573842 -74.382573 51.573843 z M 6.6174973 51.639761 C 5.6452135 51.639761 4.8406403 52.445799 4.8406403 53.418082 C 4.8406402 54.390366 5.6452134 55.194939 6.6174973 55.194939 C 7.5897813 55.19494 8.3943544 54.390366 8.3943543 53.418082 C 8.3943543 52.445798 7.5897812 51.63976 6.6174973 51.639761 z M -236.38271 52.048452 C -238.11955 52.048452 -239.55117 53.48007 -239.55117 55.216912 C -239.55117 56.953755 -238.11955 58.385372 -236.38271 58.385372 C -234.64587 58.385372 -233.21572 56.953754 -233.21572 55.216912 C -233.21572 53.48007 -234.64587 52.048452 -236.38271 52.048452 z M -216.58387 52.048452 C -218.32071 52.048452 -219.75086 53.48007 -219.75086 55.216912 C -219.75086 56.953755 -218.32071 58.385372 -216.58387 58.385372 C -214.84702 58.385372 -213.41541 56.953754 -213.41541 55.216912 C -213.41541 53.48007 -214.84702 52.048452 -216.58387 52.048452 z M -196.78209 52.049917 C -198.51893 52.049917 -199.94909 53.481535 -199.94909 55.218377 C -199.94909 56.955219 -198.51893 58.385372 -196.78209 58.385372 C -195.04525 58.385372 -193.61363 56.95522 -193.61363 55.218377 C -193.61363 53.481535 -195.04525 52.049917 -196.78209 52.049917 z M -153.61897 52.049917 C -155.35581 52.049916 -156.78743 53.481535 -156.78743 55.218377 C -156.78743 56.95522 -155.35581 58.385373 -153.61897 58.385372 C -151.88213 58.385372 -150.44904 56.955219 -150.44904 55.218377 C -150.44904 53.481535 -151.88213 52.049917 -153.61897 52.049917 z M -126.58232 53.440055 C -127.55461 53.440055 -128.35918 54.244628 -128.35918 55.216912 C -128.35918 56.189196 -127.55461 56.995234 -126.58232 56.995234 C -125.61004 56.995234 -124.80547 56.189196 -124.80547 55.216912 C -124.80547 54.244628 -125.61004 53.440055 -126.58232 53.440055 z M -58.24877 57.040644 C -59.221053 57.040644 -60.025627 57.845217 -60.025627 58.817501 C -60.025627 59.789785 -59.221054 60.594358 -58.24877 60.594358 C -57.276486 60.594358 -56.470448 59.789785 -56.470448 58.817501 C -56.470448 57.845217 -57.276486 57.040644 -58.24877 57.040644 z M -34.781952 57.557734 C -36.459148 57.557734 -37.842014 58.939134 -37.842014 60.616331 C -37.842014 62.293526 -36.459148 63.677857 -34.781952 63.677857 C -33.104757 63.677857 -31.720426 62.293526 -31.720426 60.616331 C -31.720426 58.939134 -33.104757 57.557734 -34.781952 57.557734 z M -13.181348 57.557734 C -14.858544 57.557734 -16.242874 58.939134 -16.242874 60.616331 C -16.242874 62.293526 -14.858544 63.677857 -13.181348 63.677857 C -11.504153 63.677857 -10.121287 62.293526 -10.121287 60.616331 C -10.121287 58.939134 -11.504153 57.557734 -13.181348 57.557734 z M -112.1829 58.839474 C -113.15518 58.839474 -113.95976 59.645512 -113.95976 60.617796 C -113.95976 61.59008 -113.15518 62.394653 -112.1829 62.394653 C -111.21061 62.394653 -110.40458 61.59008 -110.40458 60.617796 C -110.40458 59.645512 -111.21061 58.839474 -112.1829 58.839474 z M -216.58387 59.24963 C -218.32071 59.249631 -219.75086 60.679783 -219.75086 62.416625 C -219.75086 64.153468 -218.32071 65.585085 -216.58387 65.585085 C -214.84702 65.585085 -213.41541 64.153468 -213.41541 62.416625 C -213.41541 60.679783 -214.84702 59.249631 -216.58387 59.24963 z M -196.78209 59.24963 C -198.51894 59.24963 -199.94909 60.679782 -199.94909 62.416625 C -199.94909 64.153468 -198.51893 65.585085 -196.78209 65.585085 C -195.04525 65.585085 -193.61363 64.153468 -193.61363 62.416625 C -193.61363 60.679782 -195.04525 59.24963 -196.78209 59.24963 z M -153.61897 59.24963 C -155.35581 59.24963 -156.78743 60.679782 -156.78743 62.416625 C -156.78743 64.153469 -155.35581 65.585086 -153.61897 65.585085 C -151.88213 65.585085 -150.44904 64.153468 -150.44904 62.416625 C -150.44904 60.679782 -151.88213 59.24963 -153.61897 59.24963 z M 13.817211 61.04846 C 12.080368 61.04846 10.648751 62.480077 10.648751 64.21692 C 10.648751 65.953762 12.080368 67.38538 13.817211 67.38538 C 15.554053 67.38538 16.98567 65.953762 16.98567 64.21692 C 16.98567 62.480077 15.554053 61.04846 13.817211 61.04846 z M -216.58387 66.450809 C -218.32071 66.450809 -219.75086 67.880961 -219.75086 69.617803 C -219.75086 71.354647 -218.32071 72.786263 -216.58387 72.786263 C -214.84702 72.786263 -213.41541 71.354646 -213.41541 69.617803 C -213.41541 67.880961 -214.84702 66.450809 -216.58387 66.450809 z M -196.78209 66.450809 C -198.51893 66.450809 -199.94909 67.880961 -199.94909 69.617803 C -199.94909 71.354647 -198.51894 72.786263 -196.78209 72.786263 C -195.04525 72.786263 -193.61363 71.354647 -193.61363 69.617803 C -193.61363 67.880961 -195.04525 66.450809 -196.78209 66.450809 z M -153.61897 66.450809 C -155.35581 66.450809 -156.78743 67.88096 -156.78743 69.617803 C -156.78743 71.354647 -155.35581 72.786263 -153.61897 72.786263 C -151.88213 72.786263 -150.44904 71.354647 -150.44904 69.617803 C -150.44904 67.880961 -151.88213 66.450809 -153.61897 66.450809 z M -27.595423 66.737918 C -29.173207 66.737918 -30.475308 68.041484 -30.475308 69.619268 C -30.475308 71.197053 -29.173208 72.497689 -27.595423 72.497689 C -26.017638 72.497689 -24.715538 71.197053 -24.715538 69.619268 C -24.715538 68.041484 -26.017638 66.737918 -27.595423 66.737918 z M -20.382526 66.737918 C -21.960311 66.737918 -23.262411 68.041484 -23.262411 69.619268 C -23.262411 71.197053 -21.960311 72.497689 -20.382526 72.497689 C -18.804742 72.497689 -17.502641 71.197053 -17.502641 69.619268 C -17.502641 68.041484 -18.804742 66.737918 -20.382526 66.737918 z M 13.817211 68.249638 C 12.080368 68.249638 10.648751 69.679791 10.648751 71.416633 C 10.648751 73.153476 12.080368 74.585093 13.817211 74.585093 C 15.554053 74.585093 16.98567 73.153475 16.98567 71.416633 C 16.98567 69.679791 15.554053 68.249638 13.817211 68.249638 z M -236.38271 73.649057 C -238.11955 73.649057 -239.55117 75.080674 -239.55117 76.817517 C -239.55117 78.554359 -238.11955 79.984512 -236.38271 79.984512 C -234.64587 79.984511 -233.21572 78.554359 -233.21572 76.817517 C -233.21572 75.080674 -234.64587 73.649057 -236.38271 73.649057 z M -196.78209 73.649057 C -198.51893 73.649057 -199.94909 75.080674 -199.94909 76.817517 C -199.94909 78.554359 -198.51893 79.985976 -196.78209 79.985976 C -195.04525 79.985977 -193.61363 78.554359 -193.61363 76.817517 C -193.61363 75.080674 -195.04525 73.649057 -196.78209 73.649057 z M -153.61897 73.649057 C -155.35581 73.649056 -156.78743 75.080673 -156.78743 76.817517 C -156.78743 78.554359 -155.35581 79.985977 -153.61897 79.985976 C -151.88213 79.985976 -150.44904 78.554359 -150.44904 76.817517 C -150.44904 75.080674 -151.88213 73.649057 -153.61897 73.649057 z M -189.58091 73.937631 C -191.1587 73.937631 -192.46226 75.241197 -192.46226 76.818982 C -192.46226 78.396766 -191.1587 79.697402 -189.58091 79.697402 C -188.00313 79.697402 -186.70249 78.396766 -186.70249 76.818982 C -186.70249 75.241197 -188.00313 73.937631 -189.58091 73.937631 z M -182.36802 73.937631 C -183.9458 73.937631 -185.24937 75.241197 -185.24937 76.818982 C -185.24937 78.396766 -183.9458 79.697402 -182.36802 79.697402 C -180.79023 79.697402 -179.4896 78.396766 -179.4896 76.818982 C -179.4896 75.241197 -180.79023 73.937631 -182.36802 73.937631 z M 13.817211 75.449351 C 12.080368 75.449352 10.648751 76.879504 10.648751 78.616346 C 10.648751 80.353189 12.080368 81.784806 13.817211 81.784806 C 15.554053 81.784806 16.98567 80.353189 16.98567 78.616346 C 16.98567 76.879504 15.554053 75.449352 13.817211 75.449351 z M -236.38271 80.84877 C -238.11955 80.84877 -239.55117 82.280387 -239.55117 84.01723 C -239.55117 85.754072 -238.11955 87.184225 -236.38271 87.184225 C -234.64587 87.184225 -233.21572 85.754072 -233.21572 84.01723 C -233.21572 82.280387 -234.64587 80.84877 -236.38271 80.84877 z M -216.58387 80.84877 C -218.32071 80.84877 -219.75086 82.280387 -219.75086 84.01723 C -219.75086 85.754072 -218.32071 87.184225 -216.58387 87.184225 C -214.84702 87.184225 -213.41541 85.754072 -213.41541 84.01723 C -213.41541 82.280387 -214.84702 80.84877 -216.58387 80.84877 z M -196.78209 80.850235 C -198.51893 80.850235 -199.94909 82.281852 -199.94909 84.018695 C -199.94909 85.755542 -198.51894 87.187155 -196.78209 87.187155 C -195.04525 87.187155 -193.61363 85.755542 -193.61363 84.018695 C -193.61363 82.281851 -195.04525 80.850235 -196.78209 80.850235 z M -153.61897 80.850235 C -155.35581 80.850234 -156.78743 82.281851 -156.78743 84.018695 C -156.78743 85.755542 -155.35581 87.187155 -153.61897 87.187155 C -151.88213 87.187155 -150.44904 85.755542 -150.44904 84.018695 C -150.44904 82.281852 -151.88213 80.850235 -153.61897 80.850235 z M -189.58091 81.137345 C -191.1587 81.137345 -192.46226 82.44091 -192.46226 84.018695 C -192.46226 85.596479 -191.1587 86.897115 -189.58091 86.897115 C -188.00313 86.897115 -186.70249 85.596479 -186.70249 84.018695 C -186.70249 82.44091 -188.00313 81.137345 -189.58091 81.137345 z M -182.36802 81.137345 C -183.9458 81.137345 -185.24937 82.44091 -185.24937 84.018695 C -185.24937 85.59648 -183.9458 86.897115 -182.36802 86.897115 C -180.79023 86.897115 -179.4896 85.596479 -179.4896 84.018695 C -179.4896 82.44091 -180.79023 81.137345 -182.36802 81.137345 z M -27.595423 81.137345 C -29.173207 81.137345 -30.475308 82.44091 -30.475308 84.018695 C -30.475308 85.596479 -29.173208 86.897115 -27.595423 86.897115 C -26.017638 86.897115 -24.715538 85.596479 -24.715538 84.018695 C -24.715538 82.44091 -26.017638 81.137345 -27.595423 81.137345 z M -20.382526 81.137345 C -21.960311 81.137345 -23.262411 82.44091 -23.262411 84.018695 C -23.262411 85.59648 -21.960311 86.897115 -20.382526 86.897115 C -18.804742 86.897115 -17.502641 85.596479 -17.502641 84.018695 C -17.502641 82.44091 -18.804742 81.137345 -20.382526 81.137345 z M 13.802562 82.649065 C 12.06572 82.649065 10.635567 84.080682 10.635567 85.817524 C 10.635567 87.554367 12.06572 88.984519 13.802562 88.984519 C 15.539404 88.984519 16.971022 87.554367 16.971022 85.817524 C 16.971022 84.080682 15.539405 82.649065 13.802562 82.649065 z M 6.6174973 84.040667 C 5.6452135 84.040667 4.8406403 84.845241 4.8406403 85.817524 C 4.8406402 86.789808 5.6452134 87.594381 6.6174973 87.594381 C 7.5897813 87.594382 8.3943544 86.789808 8.3943543 85.817524 C 8.3943543 84.845241 7.5897812 84.040667 6.6174973 84.040667 z M -216.58387 88.048483 C -218.32071 88.048483 -219.75086 89.480101 -219.75086 91.216943 C -219.75086 92.953786 -218.32071 94.385403 -216.58387 94.385403 C -214.84702 94.385403 -213.41541 92.953786 -213.41541 91.216943 C -213.41541 89.480101 -214.84702 88.048483 -216.58387 88.048483 z M -139.18292 88.048483 C -140.91976 88.048483 -142.35138 89.480101 -142.35138 91.216943 C -142.35138 92.953786 -140.91976 94.385403 -139.18292 94.385403 C -137.44608 94.385403 -136.01446 92.953786 -136.01446 91.216943 C -136.01446 89.480101 -137.44608 88.048483 -139.18292 88.048483 z M -196.78209 88.049948 C -198.51893 88.049948 -199.94909 89.48157 -199.94909 91.218408 C -199.94909 92.955246 -198.51893 94.385403 -196.78209 94.385403 C -195.04525 94.385403 -193.61363 92.955246 -193.61363 91.218408 C -193.61363 89.48157 -195.04525 88.049948 -196.78209 88.049948 z M -153.61897 88.049948 C -155.35581 88.049948 -156.78743 89.48156 -156.78743 91.218408 C -156.78743 92.955246 -155.35581 94.385403 -153.61897 94.385403 C -151.88213 94.385403 -150.44904 92.955246 -150.44904 91.218408 C -150.44904 89.48157 -151.88213 88.049948 -153.61897 88.049948 z M -189.58091 88.338523 C -191.1587 88.338523 -192.46226 89.640623 -192.46226 91.218408 C -192.46226 92.796193 -191.1587 94.098293 -189.58091 94.098293 C -188.00313 94.098293 -186.70249 92.796193 -186.70249 91.218408 C -186.70249 89.640623 -188.00313 88.338523 -189.58091 88.338523 z M -182.36802 88.338523 C -183.9458 88.338523 -185.24937 89.640623 -185.24937 91.218408 C -185.24937 92.796193 -183.9458 94.098293 -182.36802 94.098293 C -180.79023 94.098293 -179.4896 92.796193 -179.4896 91.218408 C -179.4896 89.640623 -180.79023 88.338523 -182.36802 88.338523 z M -37.842014 89.957176 L -37.842014 91.038232 L -37.842014 96.078764 L -31.720426 96.078764 L -31.720426 89.957176 L -37.842014 89.957176 z M -13.181348 89.957176 C -14.858544 89.957176 -16.242874 91.341507 -16.242874 93.018703 C -16.242874 94.695898 -14.858544 96.078764 -13.181348 96.078764 C -11.504153 96.078764 -10.121287 94.695898 -10.121287 93.018703 C -10.121287 91.341507 -11.504153 89.957176 -13.181348 89.957176 z M -20.382526 91.240381 C -21.35481 91.240381 -22.159383 92.044954 -22.159383 93.017238 C -22.159383 93.989522 -21.35481 94.794095 -20.382526 94.794095 C -19.410242 94.794095 -18.605669 93.989522 -18.605669 93.017238 C -18.605669 92.044954 -19.410242 91.240381 -20.382526 91.240381 z M -216.58387 95.249661 C -218.32071 95.249662 -219.75086 96.679814 -219.75086 98.416656 C -219.75086 100.1535 -218.32071 101.58512 -216.58387 101.58512 C -214.84702 101.58512 -213.41541 100.1535 -213.41541 98.416656 C -213.41541 96.679814 -214.84702 95.249662 -216.58387 95.249661 z M -196.78209 95.249661 C -198.51893 95.249661 -199.94909 96.679808 -199.94909 98.416656 C -199.94909 100.15349 -198.51893 101.58512 -196.78209 101.58512 C -195.04525 101.58512 -193.61363 100.15349 -193.61363 98.416656 C -193.61363 96.679808 -195.04525 95.249661 -196.78209 95.249661 z M -153.61897 95.249661 C -155.35581 95.249661 -156.78743 96.679808 -156.78743 98.416656 C -156.78743 100.15349 -155.35581 101.58512 -153.61897 101.58512 C -151.88213 101.58512 -150.44904 100.15349 -150.44904 98.416656 C -150.44904 96.679808 -151.88213 95.249661 -153.61897 95.249661 z M -139.18292 95.249661 C -140.91976 95.249662 -142.35138 96.679814 -142.35138 98.416656 C -142.35138 100.1535 -140.91976 101.58512 -139.18292 101.58512 C -137.44608 101.58512 -136.01446 100.1535 -136.01446 98.416656 C -136.01446 96.679814 -137.44608 95.249662 -139.18292 95.249661 z M -189.58091 95.538236 C -191.1587 95.538236 -192.46226 96.840337 -192.46226 98.418121 C -192.46226 99.995906 -191.1587 101.29801 -189.58091 101.29801 C -188.00313 101.29801 -186.70249 99.995906 -186.70249 98.418121 C -186.70249 96.840337 -188.00313 95.538236 -189.58091 95.538236 z M -182.36802 95.538236 C -183.9458 95.538236 -185.24937 96.840337 -185.24937 98.418121 C -185.24937 99.995906 -183.9458 101.29801 -182.36802 101.29801 C -180.79023 101.29801 -179.4896 99.995906 -179.4896 98.418121 C -179.4896 96.840337 -180.79023 95.538236 -182.36802 95.538236 z M 13.817211 97.048491 C 12.080368 97.048491 10.648751 98.480108 10.648751 100.21695 C 10.648751 101.95379 12.080368 103.38541 13.817211 103.38541 C 15.554053 103.38541 16.98567 101.95379 16.98567 100.21695 C 16.98567 98.480108 15.554053 97.048491 13.817211 97.048491 z M -34.781952 97.158355 C -36.459148 97.158355 -37.842013 98.539756 -37.842014 100.21695 C -37.842014 101.89415 -36.459148 103.27848 -34.781952 103.27848 C -33.104757 103.27848 -31.720426 101.89415 -31.720426 100.21695 C -31.720427 98.539756 -33.104757 97.158355 -34.781952 97.158355 z M -13.181348 97.158355 C -14.858543 97.158355 -16.242874 98.539756 -16.242874 100.21695 C -16.242874 101.89415 -14.858544 103.27848 -13.181348 103.27848 C -11.504153 103.27848 -10.121287 101.89415 -10.121287 100.21695 C -10.121288 98.539756 -11.504153 97.158355 -13.181348 97.158355 z M -27.582239 98.374176 C -28.554523 98.374176 -29.359096 99.178749 -29.359096 100.15103 C -29.359096 101.12332 -28.554523 101.92935 -27.582239 101.92935 C -26.609955 101.92935 -25.805382 101.12332 -25.805382 100.15103 C -25.805382 99.178749 -26.609955 98.374176 -27.582239 98.374176 z M -47.382549 100.24039 C -48.354833 100.24039 -49.159406 101.04496 -49.159406 102.01725 C -49.159406 102.98953 -48.354833 103.7941 -47.382549 103.7941 C -46.410265 103.7941 -45.605692 102.98953 -45.605692 102.01725 C -45.605692 101.04496 -46.410265 100.24039 -47.382549 100.24039 z M -139.18292 102.44937 C -140.91976 102.44937 -142.35138 103.87953 -142.35138 105.61637 C -142.35138 107.35321 -140.91976 108.78483 -139.18292 108.78483 C -137.44608 108.78483 -136.01446 107.35321 -136.01446 105.61637 C -136.01446 103.87953 -137.44608 102.44937 -139.18292 102.44937 z M -196.78209 102.45084 C -198.51893 102.45084 -199.94909 103.881 -199.94909 105.61783 C -199.94909 107.35467 -198.51893 108.78629 -196.78209 108.78629 C -195.04525 108.78629 -193.61363 107.35467 -193.61363 105.61783 C -193.61363 103.881 -195.04525 102.45084 -196.78209 102.45084 z M -153.61897 102.45084 C -155.35581 102.45084 -156.78743 103.881 -156.78743 105.61783 C -156.78743 107.35467 -155.35581 108.78629 -153.61897 108.78629 C -151.88213 108.78629 -150.44904 107.35467 -150.44904 105.61783 C -150.44904 103.881 -151.88213 102.45084 -153.61897 102.45084 z M -189.58091 102.73795 C -191.1587 102.73795 -192.46226 104.04151 -192.46226 105.6193 C -192.46226 107.19708 -191.1587 108.49772 -189.58091 108.49772 C -188.00313 108.49772 -186.70249 107.19708 -186.70249 105.6193 C -186.70249 104.04151 -188.00313 102.73795 -189.58091 102.73795 z M -182.36802 102.73795 C -183.9458 102.73795 -185.24937 104.04151 -185.24937 105.6193 C -185.24937 107.19708 -183.9458 108.49772 -182.36802 108.49772 C -180.79023 108.49772 -179.4896 107.19708 -179.4896 105.6193 C -179.4896 104.04151 -180.79023 102.73795 -182.36802 102.73795 z M -209.38269 103.83951 C -210.35497 103.83951 -211.15955 104.64555 -211.15955 105.61783 C -211.15955 106.59012 -210.35497 107.39469 -209.38269 107.39469 C -208.4104 107.39469 -207.60437 106.59012 -207.60437 105.61783 C -207.60437 104.64555 -208.41041 103.83951 -209.38269 103.83951 z M 13.817211 104.24967 C 12.080368 104.24967 10.648751 105.67982 10.648751 107.41666 C 10.648751 109.15351 12.080368 110.58512 13.817211 110.58512 C 15.554053 110.58512 16.98567 109.15351 16.98567 107.41666 C 16.98567 105.67982 15.554053 104.24967 13.817211 104.24967 z M -34.781952 104.35807 C -36.459148 104.35807 -37.842014 105.74093 -37.842014 107.41813 C -37.842014 109.09533 -36.459148 110.47673 -34.781952 110.47673 C -33.104757 110.47673 -31.720426 109.09533 -31.720426 107.41813 C -31.720426 105.74093 -33.104757 104.35807 -34.781952 104.35807 z M -13.181348 104.35807 C -14.858544 104.35807 -16.242874 105.74093 -16.242874 107.41813 C -16.242874 109.09533 -14.858544 110.47673 -13.181348 110.47673 C -11.504153 110.47673 -10.121287 109.09533 -10.121287 107.41813 C -10.121287 105.74093 -11.504153 104.35807 -13.181348 104.35807 z M -225.58387 109.64909 C -227.32072 109.64909 -228.75087 111.08071 -228.75087 112.81755 C -228.75087 114.55439 -227.32072 115.98454 -225.58387 115.98454 C -223.84703 115.98454 -222.41542 114.55439 -222.41542 112.81755 C -222.41542 111.08071 -223.84703 109.64909 -225.58387 109.64909 z M -196.78209 109.64909 C -198.51893 109.64909 -199.94909 111.0807 -199.94909 112.81755 C -199.94909 114.55439 -198.51893 115.98601 -196.78209 115.98601 C -195.04525 115.98601 -193.61363 114.55439 -193.61363 112.81755 C -193.61363 111.0807 -195.04525 109.64909 -196.78209 109.64909 z M -153.61897 109.64909 C -155.35581 109.64909 -156.78743 111.0807 -156.78743 112.81755 C -156.78743 114.55439 -155.35581 115.98601 -153.61897 115.98601 C -151.88213 115.98601 -150.44904 114.55439 -150.44904 112.81755 C -150.44904 111.0807 -151.88213 109.64909 -153.61897 109.64909 z M -139.18292 109.64909 C -140.91976 109.64909 -142.35138 111.08071 -142.35138 112.81755 C -142.35138 114.55439 -140.91976 115.98454 -139.18292 115.98454 C -137.44608 115.98454 -136.01446 114.55439 -136.01446 112.81755 C -136.01446 111.08071 -137.44608 109.64909 -139.18292 109.64909 z M -176.98325 109.65055 C -178.72009 109.65055 -180.15171 111.08217 -180.15171 112.81901 C -180.15171 114.55586 -178.72009 115.98747 -176.98325 115.98747 C -175.2464 115.98747 -173.81479 114.55586 -173.81479 112.81901 C -173.81479 111.08217 -175.2464 109.65055 -176.98325 109.65055 z M -169.78207 109.65055 C -171.51891 109.65055 -172.95053 111.08217 -172.95053 112.81901 C -172.95053 114.55586 -171.51891 115.98747 -169.78207 115.98747 C -168.04523 115.98747 -166.61361 114.55586 -166.61361 112.81901 C -166.61361 111.08217 -168.04523 109.65055 -169.78207 109.65055 z M 13.817211 111.44938 C 12.080368 111.44938 10.648751 112.87953 10.648751 114.61638 C 10.648751 116.35322 12.080368 117.78484 13.817211 117.78484 C 15.554053 117.78484 16.98567 116.35322 16.98567 114.61638 C 16.98567 112.87953 15.554053 111.44938 13.817211 111.44938 z M -34.781952 111.55778 C -36.459148 111.55778 -37.842014 112.94065 -37.842014 114.61784 C -37.842014 116.29504 -36.459148 117.6779 -34.781952 117.6779 C -33.104757 117.6779 -31.720426 116.29504 -31.720426 114.61784 C -31.720426 112.94065 -33.104757 111.55778 -34.781952 111.55778 z M -13.181348 111.55778 C -14.858544 111.55778 -16.242874 112.94065 -16.242874 114.61784 C -16.242874 116.29504 -14.858544 117.6779 -13.181348 117.6779 C -11.504153 117.6779 -10.121287 116.29504 -10.121287 114.61784 C -10.121287 112.94065 -11.504153 111.55778 -13.181348 111.55778 z M -225.58387 116.8488 C -227.32072 116.8488 -228.75087 118.28042 -228.75087 120.01726 C -228.75087 121.7541 -227.32072 123.18426 -225.58387 123.18426 C -223.84703 123.18426 -222.41542 121.7541 -222.41542 120.01726 C -222.41542 118.28042 -223.84703 116.8488 -225.58387 116.8488 z M -139.18292 116.8488 C -140.91976 116.8488 -142.35138 118.28042 -142.35138 120.01726 C -142.35138 121.7541 -140.91976 123.18426 -139.18292 123.18426 C -137.44608 123.18426 -136.01446 121.7541 -136.01446 120.01726 C -136.01446 118.28042 -137.44608 116.8488 -139.18292 116.8488 z M -196.78209 116.85027 C -198.51893 116.85027 -199.94909 118.28189 -199.94909 120.01873 C -199.94909 121.75556 -198.51893 123.18719 -196.78209 123.18719 C -195.04525 123.18719 -193.61363 121.75556 -193.61363 120.01873 C -193.61363 118.28189 -195.04525 116.85027 -196.78209 116.85027 z M -153.61897 116.85027 C -155.35581 116.85027 -156.78743 118.28189 -156.78743 120.01873 C -156.78743 121.75557 -155.35581 123.18719 -153.61897 123.18719 C -151.88213 123.18719 -150.44904 121.75556 -150.44904 120.01873 C -150.44904 118.28189 -151.88213 116.85027 -153.61897 116.85027 z M 13.802562 118.6491 C 12.06572 118.6491 10.635567 120.08071 10.635567 121.81756 C 10.635567 123.5544 12.06572 124.98455 13.802562 124.98455 C 15.539404 124.98455 16.971022 123.5544 16.971022 121.81756 C 16.971022 120.08071 15.539405 118.6491 13.802562 118.6491 z M -34.781952 118.75896 C -36.459148 118.75896 -37.842014 120.14036 -37.842014 121.81756 C -37.842014 123.49475 -36.459148 124.87762 -34.781952 124.87762 C -33.104757 124.87762 -31.720426 123.49475 -31.720426 121.81756 C -31.720426 120.14036 -33.104757 118.75896 -34.781952 118.75896 z M -13.181348 118.75896 C -14.858544 118.75896 -16.242874 120.14036 -16.242874 121.81756 C -16.242874 123.49475 -14.858544 124.87762 -13.181348 124.87762 C -11.504153 124.87762 -10.121287 123.49475 -10.121287 121.81756 C -10.121287 120.14036 -11.504153 118.75896 -13.181348 118.75896 z M 6.6174973 120.0407 C 5.6452135 120.0407 4.8406403 120.84527 4.8406403 121.81756 C 4.8406402 122.78984 5.6452134 123.59441 6.6174973 123.59441 C 7.5897813 123.59441 8.3943544 122.78984 8.3943543 121.81756 C 8.3943543 120.84527 7.5897812 120.0407 6.6174973 120.0407 z M -225.58387 124.04851 C -227.32072 124.04851 -228.75087 125.48013 -228.75087 127.21697 C -228.75087 128.95382 -227.32072 130.38543 -225.58387 130.38543 C -223.84703 130.38543 -222.41542 128.95382 -222.41542 127.21697 C -222.41542 125.48013 -223.84703 124.04851 -225.58387 124.04851 z M -139.18292 124.04851 C -140.91976 124.04851 -142.35138 125.48013 -142.35138 127.21697 C -142.35138 128.95382 -140.91976 130.38543 -139.18292 130.38543 C -137.44608 130.38543 -136.01446 128.95382 -136.01446 127.21697 C -136.01446 125.48013 -137.44608 124.04851 -139.18292 124.04851 z M -196.78209 124.04998 C -198.51893 124.04998 -199.94909 125.4816 -199.94909 127.21844 C -199.94909 128.95528 -198.51893 130.38543 -196.78209 130.38543 C -195.04525 130.38543 -193.61363 128.95528 -193.61363 127.21844 C -193.61363 125.4816 -195.04525 124.04998 -196.78209 124.04998 z M -153.61897 124.04998 C -155.35581 124.04998 -156.78743 125.48159 -156.78743 127.21844 C -156.78743 128.95528 -155.35581 130.38543 -153.61897 130.38543 C -151.88213 130.38543 -150.44904 128.95528 -150.44904 127.21844 C -150.44904 125.4816 -151.88213 124.04998 -153.61897 124.04998 z M -203.98181 125.44012 C -204.95409 125.44012 -205.76013 126.24469 -205.76013 127.21697 C -205.76013 128.18926 -204.95409 128.9953 -203.98181 128.9953 C -203.00952 128.9953 -202.20495 128.18926 -202.20495 127.21697 C -202.20495 126.24469 -203.00952 125.44012 -203.98181 125.44012 z M -34.781952 125.95721 C -36.459148 125.95721 -37.842014 127.34154 -37.842014 129.01873 C -37.842014 130.69593 -36.459148 132.07879 -34.781952 132.07879 C -33.104757 132.07879 -31.720426 130.69593 -31.720426 129.01873 C -31.720426 127.34154 -33.104757 125.95721 -34.781952 125.95721 z M -13.181348 125.95721 C -14.858544 125.95721 -16.242874 127.34154 -16.242874 129.01873 C -16.242874 130.69593 -14.858544 132.07879 -13.181348 132.07879 C -11.504153 132.07879 -10.121287 130.69593 -10.121287 129.01873 C -10.121287 127.34154 -11.504153 125.95721 -13.181348 125.95721 z M 13.817211 133.04852 C 12.080368 133.04852 10.648751 134.48014 10.648751 136.21698 C 10.648751 137.95382 12.080368 139.38544 13.817211 139.38544 C 15.554053 139.38544 16.98567 137.95382 16.98567 136.21698 C 16.98567 134.48014 15.554053 133.04852 13.817211 133.04852 z M -108.58231 133.05145 C -110.31915 133.05145 -111.75077 134.4816 -111.75077 136.21845 C -111.75077 137.95529 -110.31915 139.38691 -108.58231 139.38691 C -106.84547 139.38691 -105.41531 137.95529 -105.41531 136.21845 C -105.41531 134.4816 -106.84547 133.05145 -108.58231 133.05145 z M -101.38113 133.05145 C -103.11797 133.05145 -104.54959 134.4816 -104.54959 136.21845 C -104.54959 137.95529 -103.11797 139.38691 -101.38113 139.38691 C -99.644288 139.38691 -98.214136 137.95529 -98.214136 136.21845 C -98.214136 134.4816 -99.644289 133.05145 -101.38113 133.05145 z M -34.781952 133.15839 C -36.459148 133.15839 -37.842014 134.53979 -37.842014 136.21698 C -37.842014 137.89418 -36.459148 139.27851 -34.781952 139.27851 C -33.104757 139.27851 -31.720426 137.89418 -31.720426 136.21698 C -31.720426 134.53979 -33.104757 133.15839 -34.781952 133.15839 z M -13.181348 133.15839 C -14.858544 133.15839 -16.242874 134.53979 -16.242874 136.21698 C -16.242874 137.89418 -14.858544 139.27851 -13.181348 139.27851 C -11.504153 139.27851 -10.121287 137.89418 -10.121287 136.21698 C -10.121287 134.53979 -11.504153 133.15839 -13.181348 133.15839 z M -200.39586 136.93769 C -201.97365 136.93769 -203.27575 138.24125 -203.27575 139.81904 C -203.27575 141.39682 -201.97365 142.69746 -200.39586 142.69746 C -198.81808 142.69746 -197.51598 141.39682 -197.51598 139.81904 C -197.51598 138.24125 -198.81808 136.93769 -200.39586 136.93769 z M -193.18297 136.93769 C -194.76075 136.93769 -196.06285 138.24125 -196.06285 139.81904 C -196.06285 141.39682 -194.76075 142.69746 -193.18297 142.69746 C -191.60518 142.69746 -190.30308 141.39682 -190.30308 139.81904 C -190.30308 138.24125 -191.60518 136.93769 -193.18297 136.93769 z M -236.38271 138.44941 C -238.11955 138.44941 -239.55117 139.87956 -239.55117 141.6164 C -239.55117 143.35324 -238.11955 144.78486 -236.38271 144.78486 C -234.64587 144.78486 -233.21572 143.35324 -233.21572 141.6164 C -233.21572 139.87956 -234.64587 138.44941 -236.38271 138.44941 z M 13.817211 140.2497 C 12.080368 140.2497 10.648751 141.67985 10.648751 143.4167 C 10.648751 145.15354 12.080368 146.58515 13.817211 146.58515 C 15.554053 146.58515 16.98567 145.15354 16.98567 143.4167 C 16.98567 141.67985 15.554053 140.2497 13.817211 140.2497 z M -108.58231 140.25117 C -110.31915 140.25117 -111.75077 141.68132 -111.75077 143.41816 C -111.75077 145.155 -110.31915 146.58662 -108.58231 146.58662 C -106.84547 146.58662 -105.41531 145.155 -105.41531 143.41816 C -105.41531 141.68132 -106.84547 140.25117 -108.58231 140.25117 z M -101.38113 140.25117 C -103.11797 140.25117 -104.54959 141.68132 -104.54959 143.41816 C -104.54959 145.155 -103.11797 146.58662 -101.38113 146.58662 C -99.644288 146.58662 -98.214136 145.155 -98.214136 143.41816 C -98.214136 141.68132 -99.644289 140.25117 -101.38113 140.25117 z M -34.781952 140.3581 C -36.459148 140.3581 -37.842014 141.74096 -37.842014 143.41816 C -37.842014 145.09536 -36.459148 146.47676 -34.781952 146.47676 C -33.104757 146.47676 -31.720426 145.09536 -31.720426 143.41816 C -31.720426 141.74096 -33.104757 140.3581 -34.781952 140.3581 z M -13.181348 140.3581 C -14.858544 140.3581 -16.242874 141.74096 -16.242874 143.41816 C -16.242874 145.09536 -14.858544 146.47676 -13.181348 146.47676 C -11.504153 146.47676 -10.121287 145.09536 -10.121287 143.41816 C -10.121287 141.74096 -11.504153 140.3581 -13.181348 140.3581 z M -41.983131 141.70722 C -42.955414 141.70722 -43.759988 142.51179 -43.759988 143.48408 C -43.759988 144.45636 -42.955414 145.2624 -41.983131 145.2624 C -41.010847 145.2624 -40.204809 144.45636 -40.204809 143.48408 C -40.204809 142.51179 -41.010847 141.70722 -41.983131 141.70722 z M -236.38271 145.64912 C -238.11955 145.64912 -239.55117 147.08074 -239.55117 148.81758 C -239.55117 150.55442 -238.11955 151.98457 -236.38271 151.98457 C -234.64587 151.98457 -233.21572 150.55442 -233.21572 148.81758 C -233.21572 147.08074 -234.64587 145.64912 -236.38271 145.64912 z M -203.98181 145.75752 C -205.659 145.75752 -207.04187 147.14038 -207.04187 148.81758 C -207.04187 150.49477 -205.659 151.87764 -203.98181 151.87764 C -202.30461 151.87764 -200.92321 150.49477 -200.92321 148.81758 C -200.92321 147.14038 -202.30461 145.75752 -203.98181 145.75752 z M 13.817211 147.44941 C 12.080368 147.44941 10.648751 148.87957 10.648751 150.61641 C 10.648751 152.35325 12.080368 153.78487 13.817211 153.78487 C 15.554053 153.78487 16.98567 152.35325 16.98567 150.61641 C 16.98567 148.87957 15.554053 147.44941 13.817211 147.44941 z M -34.781952 147.55781 C -36.459148 147.55781 -37.842014 148.94068 -37.842014 150.61787 C -37.842014 152.29507 -36.459148 153.67793 -34.781952 153.67793 C -33.104757 153.67793 -31.720426 152.29507 -31.720426 150.61787 C -31.720426 148.94068 -33.104757 147.55781 -34.781952 147.55781 z M -13.181348 147.55781 C -14.858544 147.55781 -16.242874 148.94068 -16.242874 150.61787 C -16.242874 152.29507 -14.858544 153.67793 -13.181348 153.67793 C -11.504153 153.67793 -10.121287 152.29507 -10.121287 150.61787 C -10.121287 148.94068 -11.504153 147.55781 -13.181348 147.55781 z M -180.04184 152.95723 L -180.04184 154.03829 L -180.04184 159.07735 L -173.92319 159.07735 L -173.92319 152.95723 L -180.04184 152.95723 z M -169.78207 152.95723 C -171.45926 152.95723 -172.84213 154.34156 -172.84213 156.01876 C -172.84213 157.69595 -171.45926 159.07735 -169.78207 159.07735 C -168.10487 159.07735 -166.72201 157.69595 -166.72201 156.01876 C -166.72201 154.34156 -168.10487 152.95723 -169.78207 152.95723 z M -207.04187 152.9587 L -207.04187 159.07735 L -205.96228 159.07735 L -200.92321 159.07735 L -200.92321 152.9587 L -207.04187 152.9587 z M 13.802562 154.64913 C 12.06572 154.64913 10.635567 156.08074 10.635567 157.81759 C 10.635567 159.55443 12.06572 160.98458 13.802562 160.98458 C 15.539404 160.98458 16.971022 159.55443 16.971022 157.81759 C 16.971022 156.08074 15.539405 154.64913 13.802562 154.64913 z M -34.781952 154.75899 C -36.459148 154.75899 -37.842014 156.14039 -37.842014 157.81759 C -37.842014 159.49478 -36.459148 160.87765 -34.781952 160.87765 C -33.104757 160.87765 -31.720426 159.49478 -31.720426 157.81759 C -31.720426 156.14039 -33.104757 154.75899 -34.781952 154.75899 z M -13.181348 154.75899 C -14.858544 154.75899 -16.242874 156.14039 -16.242874 157.81759 C -16.242874 159.49478 -14.858544 160.87765 -13.181348 160.87765 C -11.504153 160.87765 -10.121287 159.49478 -10.121287 157.81759 C -10.121287 156.14039 -11.504153 154.75899 -13.181348 154.75899 z M 6.6174973 156.04073 C 5.6452135 156.04073 4.8406403 156.8453 4.8406403 157.81759 C 4.8406402 158.78987 5.6452134 159.59444 6.6174973 159.59444 C 7.5897813 159.59444 8.3943544 158.78987 8.3943543 157.81759 C 8.3943543 156.8453 7.5897812 156.04073 6.6174973 156.04073 z M -238.18301 169.12326 C -240.88241 169.12326 -243.07705 171.31791 -243.07705 174.01731 C -243.07705 176.71671 -240.88241 178.91428 -238.18301 178.91428 C -235.4836 178.91428 -233.28603 176.71671 -233.28603 174.01731 C -233.28603 171.31791 -235.4836 169.12326 -238.18301 169.12326 z M 15.61604 169.12326 C 12.916638 169.12326 10.721993 171.31791 10.721993 174.01731 C 10.721993 176.71671 12.916638 178.91428 15.61604 178.91428 C 18.315442 178.91428 20.513017 176.71671 20.513017 174.01731 C 20.513017 171.31791 18.315442 169.12326 15.61604 169.12326 z M -124.78349 170.85031 C -126.52034 170.85031 -127.95049 172.28193 -127.95049 174.01877 C -127.95049 175.75561 -126.52034 177.18723 -124.78349 177.18723 C -123.04665 177.18723 -121.61504 175.75561 -121.61504 174.01877 C -121.61504 172.28193 -123.04665 170.85031 -124.78349 170.85031 z M -117.58232 170.85031 C -119.31916 170.85031 -120.74931 172.28193 -120.74931 174.01877 C -120.74931 175.75561 -119.31916 177.18723 -117.58232 177.18723 C -115.84547 177.18723 -114.41386 175.75561 -114.41386 174.01877 C -114.41386 172.28193 -115.84547 170.85031 -117.58232 170.85031 z M -110.3826 170.85031 C -112.11945 170.85031 -113.55106 172.28193 -113.55106 174.01877 C -113.55106 175.75562 -112.11945 177.18723 -110.3826 177.18723 C -108.64576 177.18723 -107.21414 175.75561 -107.21414 174.01877 C -107.21414 172.28193 -108.64576 170.85031 -110.3826 170.85031 z M -103.18143 170.85031 C -104.91827 170.85031 -106.34989 172.28193 -106.34989 174.01877 C -106.34989 175.75561 -104.91827 177.18723 -103.18143 177.18723 C -101.44458 177.18723 -100.01297 175.75561 -100.01297 174.01877 C -100.01297 172.28193 -101.44458 170.85031 -103.18143 170.85031 z " />
      </g>
    </g>
  </g>
  <g
     partID="1124330"
     id="g17">
    <g
       transform="translate(31.356,67.5301)"
       id="g15">
      <g
         id="g13" />
    </g>
  </g>
  <g
     partID="1078810"
     id="g27">
    <g
       transform="translate(42.2936,12.0007)"
       id="g25">
      <g
         id="g23">
        <g
           id="copper1" />
      </g>
    </g>
  </g>
  <g
     partID="1074350"
     id="g39">
    <g
       transform="translate(128.694,12.0007)"
       id="g37">
      <g
         id="g35">
        <g
           id="g33" />
      </g>
    </g>
  </g>
  <g
     partID="1070870"
     id="g51">
    <g
       transform="translate(99.8936,12.0007)"
       id="g49">
      <g
         id="g47">
        <g
           id="g45" />
      </g>
    </g>
  </g>
  <g
     partID="1068340"
     id="g63">
    <g
       transform="translate(71.0936,12.0007)"
       id="g61">
      <g
         id="g59">
        <g
           id="g57" />
      </g>
    </g>
  </g>
  <g
     partID="1090060"
     id="g75">
    <g
       transform="translate(56.6936,197.401)"
       id="g73">
      <g
         id="g71">
        <g
           id="g69" />
      </g>
    </g>
  </g>
  <g
     partID="1085390"
     id="g87">
    <g
       transform="translate(56.6936,190.201)"
       id="g85">
      <g
         id="g83">
        <g
           id="g81" />
      </g>
    </g>
  </g>
  <g
     partID="1085260"
     id="g99">
    <g
       transform="translate(56.6936,183.001)"
       id="g97">
      <g
         id="g95">
        <g
           id="g93" />
      </g>
    </g>
  </g>
  <g
     partID="1085130"
     id="g111">
    <g
       transform="translate(56.6936,175.801)"
       id="g109">
      <g
         id="g107">
        <g
           id="g105" />
      </g>
    </g>
  </g>
  <g
     partID="1084990"
     id="g123">
    <g
       transform="translate(56.6936,168.601)"
       id="g121">
      <g
         id="g119">
        <g
           id="g117" />
      </g>
    </g>
  </g>
  <g
     partID="1056650"
     id="g131">
    <g
       transform="translate(36.756,197.263)"
       id="g129">
      <g
         id="g127" />
    </g>
  </g>
  <g
     partID="1057190"
     id="g143">
    <g
       transform="translate(45.88,231.601)"
       id="g141">
      <g
         id="g139">
        <g
           id="g137" />
      </g>
    </g>
  </g>
  <g
     partID="1039830"
     id="g157">
    <g
       transform="translate(119.334,273.721)"
       id="g155">
      <g
         transform="matrix(0,-1,1,0,0,0)"
         id="g153">
        <g
           id="g151" />
      </g>
    </g>
  </g>
  <g
     partID="1019470"
     id="g169">
    <g
       transform="translate(67.1336,212.521)"
       id="g167">
      <g
         transform="matrix(0,-1,1,0,0,0)"
         id="g165">
        <g
           id="g163" />
      </g>
    </g>
  </g>
  <g
     partID="1026740"
     id="g181">
    <g
       transform="translate(216.534,21.7207)"
       id="g179">
      <g
         transform="matrix(0,-1,1,0,0,0)"
         id="g177">
        <g
           id="g175" />
      </g>
    </g>
  </g>
  <g
     partID="1039090"
     id="g193">
    <g
       transform="translate(135.534,235.921)"
       id="g191">
      <g
         transform="matrix(0,-1,1,0,0,0)"
         id="g189">
        <g
           id="g187" />
      </g>
    </g>
  </g>
  <g
     partID="1034370"
     id="g205">
    <g
       transform="translate(135.534,243.121)"
       id="g203">
      <g
         transform="matrix(0,-1,1,0,0,0)"
         id="g201">
        <g
           id="g199" />
      </g>
    </g>
  </g>
  <g
     partID="987580"
     id="g213">
    <g
       transform="translate(204.156,235.13)"
       id="g211">
      <g
         id="g209" />
    </g>
  </g>
  <g
     partID="989520"
     id="g221">
    <g
       transform="translate(70.956,73.0634)"
       id="g219">
      <g
         id="g217" />
    </g>
  </g>
  <g
     partID="991430"
     id="g229">
    <g
       transform="translate(63.756,67.6634)"
       id="g227">
      <g
         id="g225" />
    </g>
  </g>
  <g
     partID="992700"
     id="g237">
    <g
       transform="translate(218.556,94.7303)"
       id="g235">
      <g
         id="g233" />
    </g>
  </g>
  <g
     partID="993450"
     id="g245">
    <g
       transform="translate(218.556,191.797)"
       id="g243">
      <g
         id="g241" />
    </g>
  </g>
  <g
     partID="1001650"
     id="g257">
    <g
       transform="translate(218.68,175.801)"
       id="g255">
      <g
         id="g253">
        <g
           id="g251" />
      </g>
    </g>
  </g>
  <g
     partID="999740"
     id="g269">
    <g
       transform="translate(218.68,161.401)"
       id="g267">
      <g
         id="g265">
        <g
           id="g263" />
      </g>
    </g>
  </g>
  <g
     partID="1005030"
     id="g277">
    <g
       transform="translate(187.89,150.463)"
       id="g275">
      <g
         id="g273" />
    </g>
  </g>
  <g
     partID="1005390"
     id="g285">
    <g
       transform="translate(180.69,94.7303)"
       id="g283">
      <g
         id="g281" />
    </g>
  </g>
  <g
     partID="963300"
     id="g293">
    <g
       transform="translate(128.596,29.8234)"
       id="g291">
      <g
         id="g289" />
    </g>
  </g>
  <g
     partID="963500"
     id="g301">
    <g
       transform="translate(90.756,58.6634)"
       id="g299">
      <g
         id="g297" />
    </g>
  </g>
  <g
     partID="968410"
     id="g309">
    <g
       transform="translate(171.756,144.997)"
       id="g307">
      <g
         id="g305" />
    </g>
  </g>
  <g
     partID="970400"
     id="g317">
    <g
       transform="translate(198.823,137.93)"
       id="g315">
      <g
         id="g313" />
    </g>
  </g>
  <g
     partID="971960"
     id="g325">
    <g
       transform="translate(198.756,193.663)"
       id="g323">
      <g
         id="g321" />
    </g>
  </g>
  <g
     partID="972610"
     id="g333">
    <g
       transform="translate(133.956,152.263)"
       id="g331">
      <g
         id="g329" />
    </g>
  </g>
  <g
     partID="977930"
     id="g341">
    <g
       transform="translate(112.356,87.4631)"
       id="g339">
      <g
         id="g337" />
    </g>
  </g>
  <g
     partID="978110"
     id="g349">
    <g
       transform="translate(99.756,80.2634)"
       id="g347">
      <g
         id="g345" />
    </g>
  </g>
  <g
     partID="957260"
     id="g357">
    <g
       transform="translate(78.156,26.2634)"
       id="g355">
      <g
         id="g353" />
    </g>
  </g>
  <g
     partID="957360"
     id="g365">
    <g
       transform="translate(106.956,26.2634)"
       id="g363">
      <g
         id="g361" />
    </g>
  </g>
  <g
     partID="957460"
     id="g373">
    <g
       transform="translate(135.756,26.2634)"
       id="g371">
      <g
         id="g369" />
    </g>
  </g>
  <g
     partID="957860"
     id="g383">
    <g
       transform="translate(162.534,33.2407)"
       id="g381">
      <g
         id="g379" />
    </g>
  </g>
  <g
     partID="959160"
     id="g391">
    <g
       transform="translate(164.556,20.8634)"
       id="g389">
      <g
         id="g387" />
    </g>
  </g>
  <g
     partID="921120"
     id="g405">
    <g
       transform="translate(164.694,78.9607)"
       id="g403">
      <g
         transform="matrix(0,-1,1,0,0,0)"
         id="g401">
        <g
           id="g399">
          <g
             id="g397" />
        </g>
      </g>
    </g>
  </g>
  <g
     partID="948430"
     id="g413">
    <g
       transform="translate(119.556,146.863)"
       id="g411">
      <g
         id="g409" />
    </g>
  </g>
  <g
     partID="950630"
     id="g427">
    <g
       transform="translate(171.894,107.774)"
       id="g425">
      <g
         transform="matrix(0,-1,1,0,0,0)"
         id="g423">
        <g
           id="g421">
          <g
             id="g419" />
        </g>
      </g>
    </g>
  </g>
  <g
     partID="849500"
     id="g435">
    <g
       transform="translate(252.756,249.463)"
       id="g433">
      <g
         id="g431" />
    </g>
  </g>
  <g
     partID="851080"
     id="g443">
    <g
       transform="translate(252.756,213.463)"
       id="g441">
      <g
         id="g439" />
    </g>
  </g>
  <g
     partID="852660"
     id="g451">
    <g
       transform="translate(252.756,177.463)"
       id="g449">
      <g
         id="g447" />
    </g>
  </g>
  <g
     partID="854240"
     id="g459">
    <g
       transform="translate(252.756,145.063)"
       id="g457">
      <g
         id="g455" />
    </g>
  </g>
  <g
     partID="888430"
     id="g467">
    <g
       transform="translate(241.956,94.6631)"
       id="g465">
      <g
         id="g463" />
    </g>
  </g>
  <g
     partID="897900"
     id="g475">
    <g
       transform="translate(225.756,184.663)"
       id="g473">
      <g
         id="g471" />
    </g>
  </g>
  <g
     partID="899060"
     id="g483">
    <g
       transform="translate(225.756,87.4631)"
       id="g481">
      <g
         id="g479" />
    </g>
  </g>
  <g
     partID="821240"
     id="g491">
    <g
       transform="translate(112.356,141.463)"
       id="g489">
      <g
         id="g487" />
    </g>
  </g>
  <g
     partID="828640"
     id="g499">
    <g
       transform="translate(42.156,218.863)"
       id="g497">
      <g
         id="g495" />
    </g>
  </g>
  <g
     partID="690210"
     id="g506">
    <g
       transform="translate(4.8384,12.3453)"
       id="g504">
      <g
         id="g502" />
    </g>
  </g>
  <g
     partID="690200"
     id="g514">
    <g
       transform="translate(4.8384,262.546)"
       id="g512">
      <g
         id="g510" />
    </g>
  </g>
  <g
     partID="690180"
     id="g522">
    <g
       transform="translate(258.638,12.3453)"
       id="g520">
      <g
         id="g518" />
    </g>
  </g>
  <g
     partID="690150"
     id="g530">
    <g
       transform="translate(258.638,262.546)"
       id="g528">
      <g
         id="g526" />
    </g>
  </g>
  <g
     partID="964570"
     id="g538">
    <g
       transform="translate(22.1336,101.641)"
       id="g536">
      <g
         id="g534" />
    </g>
  </g>
  <g
     partID="604560"
     id="g546">
    <g
       transform="translate(257.934,107.041)"
       id="g544">
      <g
         id="g542" />
    </g>
  </g>
  <g
     partID="1111610"
     id="g554">
    <g
       transform="translate(257.934,85.4407)"
       id="g552">
      <g
         id="g550" />
    </g>
  </g>
  <g
     partID="965440"
     id="g562">
    <g
       transform="translate(257.934,69.2407)"
       id="g560">
      <g
         id="g558" />
    </g>
  </g>
  <g
     partID="1112320"
     id="g570">
    <g
       transform="translate(257.934,99.8407)"
       id="g568">
      <g
         id="g566" />
    </g>
  </g>
  <g
     partID="604540"
     id="g578">
    <g
       transform="translate(257.934,92.6407)"
       id="g576">
      <g
         id="g574" />
    </g>
  </g>
  <g
     partID="573690"
     id="g586">
    <g
       transform="translate(103.134,116.041)"
       id="g584">
      <g
         id="g582" />
    </g>
  </g>
  <g
     partID="573670"
     id="g594">
    <g
       transform="translate(103.134,108.841)"
       id="g592">
      <g
         id="g590" />
    </g>
  </g>
  <g
     partID="573650"
     id="g602">
    <g
       transform="translate(103.134,101.641)"
       id="g600">
      <g
         id="g598" />
    </g>
  </g>
  <g
     partID="578180"
     id="g610">
    <g
       transform="translate(104.934,216.841)"
       id="g608">
      <g
         id="g606" />
    </g>
  </g>
  <g
     partID="979420"
     id="g618">
    <g
       transform="translate(104.934,209.641)"
       id="g616">
      <g
         id="g614" />
    </g>
  </g>
  <g
     partID="979400"
     id="g626">
    <g
       transform="translate(104.934,202.441)"
       id="g624">
      <g
         id="g622" />
    </g>
  </g>
  <g
     partID="979380"
     id="g634">
    <g
       transform="translate(104.934,195.241)"
       id="g632">
      <g
         id="g630" />
    </g>
  </g>
  <g
     partID="979290"
     id="g642">
    <g
       transform="translate(104.934,188.041)"
       id="g640">
      <g
         id="g638" />
    </g>
  </g>
  <g
     partID="979110"
     id="g650">
    <g
       transform="translate(104.934,180.841)"
       id="g648">
      <g
         id="g646" />
    </g>
  </g>
  <g
     partID="630560"
     id="g663">
    <g
       transform="translate(37.6136,254.641)"
       id="g661">
      <g
         transform="matrix(0,-1,1,0,0,0)"
         id="g659">
        <g
           id="g657" />
      </g>
    </g>
  </g>
  <g
     partID="595770"
     id="g675">
    <g
       transform="translate(68.2136,243.121)"
       id="g673">
      <g
         id="g671" />
    </g>
  </g>
  <g
     partID="608160"
     id="g683">
    <g
       transform="translate(257.92,247.441)"
       id="g681">
      <g
         id="g679" />
    </g>
  </g>
  <g
     partID="608080"
     id="g691">
    <g
       transform="translate(257.92,211.441)"
       id="g689">
      <g
         id="g687" />
    </g>
  </g>
  <g
     partID="607240"
     id="g699">
    <g
       transform="translate(257.92,175.441)"
       id="g697">
      <g
         id="g695" />
    </g>
  </g>
  <g
     partID="605560"
     id="g707">
    <g
       transform="translate(257.934,62.0407)"
       id="g705">
      <g
         id="g703" />
    </g>
  </g>
  <g
     partID="604360"
     id="g715">
    <g
       transform="translate(257.934,143.041)"
       id="g713">
      <g
         id="g711" />
    </g>
  </g>
  <g
     partID="608170"
     id="g723">
    <g
       transform="translate(257.934,240.241)"
       id="g721">
      <g
         id="g719" />
    </g>
  </g>
  <g
     partID="608090"
     id="g731">
    <g
       transform="translate(257.934,204.241)"
       id="g729">
      <g
         id="g727" />
    </g>
  </g>
  <g
     partID="607250"
     id="g739">
    <g
       transform="translate(257.934,168.241)"
       id="g737">
      <g
         id="g735" />
    </g>
  </g>
  <g
     partID="604370"
     id="g747">
    <g
       transform="translate(257.934,135.841)"
       id="g745">
      <g
         id="g743" />
    </g>
  </g>
  <g
     partID="608180"
     id="g755">
    <g
       transform="translate(257.934,225.841)"
       id="g753">
      <g
         id="g751" />
    </g>
  </g>
  <g
     partID="608100"
     id="g763">
    <g
       transform="translate(257.934,189.841)"
       id="g761">
      <g
         id="g759" />
    </g>
  </g>
  <g
     partID="607260"
     id="g771">
    <g
       transform="translate(257.934,153.841)"
       id="g769">
      <g
         id="g767" />
    </g>
  </g>
  <g
     partID="604380"
     id="g779">
    <g
       transform="translate(257.934,121.441)"
       id="g777">
      <g
         id="g775" />
    </g>
  </g>
  <g
     partID="608190"
     id="g787">
    <g
       transform="translate(257.934,233.041)"
       id="g785">
      <g
         id="g783" />
    </g>
  </g>
  <g
     partID="608110"
     id="g795">
    <g
       transform="translate(257.934,197.041)"
       id="g793">
      <g
         id="g791" />
    </g>
  </g>
  <g
     partID="607270"
     id="g803">
    <g
       transform="translate(257.934,161.041)"
       id="g801">
      <g
         id="g799" />
    </g>
  </g>
  <g
     partID="604390"
     id="g811">
    <g
       transform="translate(257.934,128.641)"
       id="g809">
      <g
         id="g807" />
    </g>
  </g>
  <g
     partID="475140"
     id="g821">
    <g
       transform="translate(97.7336,12.7207)"
       id="g819">
      <g
         transform="matrix(0,-1,1,0,0,0)"
         id="g817">
        <g
           id="g815" />
      </g>
    </g>
  </g>
  <g
     partID="475100"
     id="g831">
    <g
       transform="translate(126.446,12.632)"
       id="g829">
      <g
         transform="matrix(0.0174524,-0.999848,0.999848,0.0174524,0,0)"
         id="g827">
        <g
           id="g825" />
      </g>
    </g>
  </g>
  <g
     partID="475080"
     id="g841">
    <g
       transform="translate(68.9336,12.7207)"
       id="g839">
      <g
         transform="matrix(0,-1,1,0,0,0)"
         id="g837">
        <g
           id="g835" />
      </g>
    </g>
  </g>
  <g
     partID="731880"
     id="g849">
    <g
       transform="translate(169.734,2.64071)"
       id="g847">
      <g
         id="g845" />
    </g>
  </g>
  <g
     partID="649260"
     id="g859">
    <g
       transform="translate(143.814,12.7207)"
       id="g857">
      <g
         transform="matrix(-1,0,0,-1,0,0)"
         id="g855">
        <g
           id="g853" />
      </g>
    </g>
  </g>
  <g
     partID="731890"
     id="g867">
    <g
       transform="translate(162.534,2.64071)"
       id="g865">
      <g
         id="g863" />
    </g>
  </g>
  <g
     partID="649250"
     id="g877">
    <g
       transform="translate(151.014,12.7207)"
       id="g875">
      <g
         transform="matrix(-1,0,0,-1,0,0)"
         id="g873">
        <g
           id="g871" />
      </g>
    </g>
  </g>
  <g
     partID="649220"
     id="g887">
    <g
       transform="translate(104.934,12.7207)"
       id="g885">
      <g
         transform="matrix(0,-1,1,0,0,0)"
         id="g883">
        <g
           id="g881" />
      </g>
    </g>
  </g>
  <g
     partID="649210"
     id="g897">
    <g
       transform="translate(112.134,12.7207)"
       id="g895">
      <g
         transform="matrix(0,-1,1,0,0,0)"
         id="g893">
        <g
           id="g891" />
      </g>
    </g>
  </g>
  <g
     partID="649180"
     id="g907">
    <g
       transform="translate(76.1336,12.7207)"
       id="g905">
      <g
         transform="matrix(0,-1,1,0,0,0)"
         id="g903">
        <g
           id="g901" />
      </g>
    </g>
  </g>
  <g
     partID="649170"
     id="g917">
    <g
       transform="translate(83.3336,12.7207)"
       id="g915">
      <g
         transform="matrix(0,-1,1,0,0,0)"
         id="g913">
        <g
           id="g911" />
      </g>
    </g>
  </g>
  <g
     partID="649150"
     id="g927">
    <g
       transform="translate(54.5336,12.7207)"
       id="g925">
      <g
         transform="matrix(0,-1,1,0,0,0)"
         id="g923">
        <g
           id="g921" />
      </g>
    </g>
  </g>
  <g
     partID="649130"
     id="g937">
    <g
       transform="translate(47.3336,12.7207)"
       id="g935">
      <g
         transform="matrix(0,-1,1,0,0,0)"
         id="g933">
        <g
           id="g931" />
      </g>
    </g>
  </g>
  <g
     partID="475060"
     id="g947">
    <g
       transform="translate(40.1336,12.7207)"
       id="g945">
      <g
         transform="matrix(0,-1,1,0,0,0)"
         id="g943">
        <g
           id="g941" />
      </g>
    </g>
  </g>
  <g
     partID="552330"
     id="g978">
    <g
       transform="translate(210.054,183.361)"
       id="g976">
      <g
         id="g974" />
    </g>
  </g>
  <g
     partID="532010"
     id="g1026">
    <g
       transform="translate(210.054,86.1607)"
       id="g1024">
      <g
         id="g1022" />
    </g>
  </g>
  <g
     partID="491660"
     id="g1064">
    <g
       transform="translate(111.054,80.4007)"
       id="g1062">
      <g
         transform="matrix(0,-1,1,0,0,0)"
         id="g1060">
        <g
           id="g1058" />
      </g>
    </g>
  </g>
  <g
     partID="484800"
     id="g1102">
    <g
       transform="translate(118.254,116.401)"
       id="g1100">
      <g
         transform="matrix(0,-1,1,0,0,0)"
         id="g1098">
        <g
           id="g1096" />
      </g>
    </g>
  </g>
  <g
     partID="456410"
     id="g1170">
    <g
       transform="translate(48.4136,79.9687)"
       id="g1168">
      <g
         id="g1166" />
    </g>
  </g>
  <g
     partID="1093570"
     id="g1178">
    <g
       transform="translate(7.7336,173.641)"
       id="g1176">
      <g
         id="g1174" />
    </g>
  </g>
  <g
     partID="473290"
     id="g1186">
    <g
       transform="translate(7.7336,166.441)"
       id="g1184">
      <g
         id="g1182" />
    </g>
  </g>
  <g
     partID="473200"
     id="g1194">
    <g
       transform="translate(27.5336,173.641)"
       id="g1192">
      <g
         id="g1190" />
    </g>
  </g>
  <g
     partID="473040"
     id="g1202">
    <g
       transform="translate(27.5336,180.841)"
       id="g1200">
      <g
         id="g1198" />
    </g>
  </g>
  <g
     partID="473020"
     id="g1210">
    <g
       transform="translate(27.5336,188.041)"
       id="g1208">
      <g
         id="g1206" />
    </g>
  </g>
  <g
     partID="1056560"
     id="g1218">
    <g
       transform="translate(7.7336,238.441)"
       id="g1216">
      <g
         id="g1214" />
    </g>
  </g>
  <g
     partID="472930"
     id="g1226">
    <g
       transform="translate(7.7336,231.241)"
       id="g1224">
      <g
         id="g1222" />
    </g>
  </g>
  <g
     partID="472820"
     id="g1234">
    <g
       transform="translate(18.5336,202.441)"
       id="g1232">
      <g
         id="g1230" />
    </g>
  </g>
  <g
     partID="472650"
     id="g1242">
    <g
       transform="translate(18.5336,216.841)"
       id="g1240">
      <g
         id="g1238" />
    </g>
  </g>
  <g
     partID="472640"
     id="g1250">
    <g
       transform="translate(18.5336,209.641)"
       id="g1248">
      <g
         id="g1246" />
    </g>
  </g>
  <g
     partID="1114920"
     id="g1258">
    <g
       transform="translate(7.7336,144.841)"
       id="g1256">
      <g
         id="g1254" />
    </g>
  </g>
  <g
     partID="1114900"
     id="g1266">
    <g
       transform="translate(7.7336,137.641)"
       id="g1264">
      <g
         id="g1262" />
    </g>
  </g>
  <g
     partID="1114880"
     id="g1274">
    <g
       transform="translate(7.7336,130.441)"
       id="g1272">
      <g
         id="g1270" />
    </g>
  </g>
  <g
     partID="670830"
     id="g1282">
    <g
       transform="translate(7.7336,123.241)"
       id="g1280">
      <g
         id="g1278" />
    </g>
  </g>
  <g
     partID="1039670"
     id="g1290">
    <g
       transform="translate(27.5336,144.841)"
       id="g1288">
      <g
         id="g1286" />
    </g>
  </g>
  <g
     partID="469030"
     id="g1298">
    <g
       transform="translate(27.5336,137.641)"
       id="g1296">
      <g
         id="g1294" />
    </g>
  </g>
  <g
     partID="1114860"
     id="g1306">
    <g
       transform="translate(7.7336,108.841)"
       id="g1304">
      <g
         id="g1302" />
    </g>
  </g>
  <g
     partID="670840"
     id="g1314">
    <g
       transform="translate(7.7336,116.041)"
       id="g1312">
      <g
         id="g1310" />
    </g>
  </g>
  <g
     partID="469020"
     id="g1322">
    <g
       transform="translate(27.5336,130.441)"
       id="g1320">
      <g
         id="g1318" />
    </g>
  </g>
  <g
     partID="471690"
     id="g1332">
    <g
       transform="translate(27.5336,152.041)"
       id="g1330">
      <g
         id="g1328" />
    </g>
  </g>
</svg>
