<?xml version='1.0' encoding='UTF-8' standalone='no'?>
<!-- Created with Fritzing (https://fritzing.org/) -->
<svg xmlns="http://www.w3.org/2000/svg" y="0in" x="0in"  baseProfile="tiny" version="1.2" height="3.88283in" width="3.84764in" viewBox="0 0 277.03 279.564" xmlns:svg="http://www.w3.org/2000/svg">
 <g partID="57730">
  <g id="board" >
   <rect id="boardoutline" fill-opacity="0.5" y="0.288" x="0.288"  stroke="black" stroke-width="0.5" fill="none" height="278.988" width="276.454"/>
  </g>
 </g>
 <g partID="1111551">
  <g transform="translate(249.156,94.6631)">
   <g id="copper1" >
    <g cx="3.01733" r="0.992124" id="0"  cy="3.01733" stroke="black" stroke-width="0.850392" fill="none"/>
   </g>
  </g>
 </g>
 <g partID="1124331">
  <g transform="translate(31.356,67.5301)">
   <g id="copper1" >
    <g cx="3.01733" r="0.992124" id="1"  cy="3.01733" stroke="black" stroke-width="0.850392" fill="none"/>
   </g>
  </g>
 </g>
 <g partID="1078811">
  <g transform="translate(42.2936,12.0007)">
   <g id="copper1" >
    <g id="2" cx="2.88" r="1.8"  cy="2.88" stroke="black" stroke-width="1.44" fill="none"/>
    <g id="3" cx="10.0933" r="1.8"  cy="2.88" stroke="black" stroke-width="1.44" fill="none"/>
   </g>
  </g>
 </g>
 <g partID="1074351">
  <g transform="translate(128.694,12.0007)">
   <g id="copper1" >
    <g id="4" cx="2.88" r="1.8"  cy="2.88" stroke="black" stroke-width="1.44" fill="none"/>
    <g id="5" cx="10.0933" r="1.8"  cy="2.88" stroke="black" stroke-width="1.44" fill="none"/>
   </g>
  </g>
 </g>
 <g partID="1070871">
  <g transform="translate(99.8936,12.0007)">
   <g id="copper1" >
    <g id="6" cx="2.88" r="1.8"  cy="2.88" stroke="black" stroke-width="1.44" fill="none"/>
    <g id="7" cx="10.0933" r="1.8"  cy="2.88" stroke="black" stroke-width="1.44" fill="none"/>
   </g>
  </g>
 </g>
 <g partID="1068341">
  <g transform="translate(71.0936,12.0007)">
   <g id="copper1" >
    <g id="8" cx="2.88" r="1.8"  cy="2.88" stroke="black" stroke-width="1.44" fill="none"/>
    <g id="9" cx="10.0933" r="1.8"  cy="2.88" stroke="black" stroke-width="1.44" fill="none"/>
   </g>
  </g>
 </g>
 <g partID="1090061">
  <g transform="translate(56.6936,197.401)">
   <g id="copper1" >
    <g id="10" cx="2.88" r="1.8"  cy="2.88" stroke="black" stroke-width="1.44" fill="none"/>
    <g id="11" cx="10.0933" r="1.8"  cy="2.88" stroke="black" stroke-width="1.44" fill="none"/>
   </g>
  </g>
 </g>
 <g partID="1085391">
  <g transform="translate(56.6936,190.201)">
   <g id="copper1" >
    <g id="12" cx="2.88" r="1.8"  cy="2.88" stroke="black" stroke-width="1.44" fill="none"/>
    <g id="13" cx="10.0933" r="1.8"  cy="2.88" stroke="black" stroke-width="1.44" fill="none"/>
   </g>
  </g>
 </g>
 <g partID="1085261">
  <g transform="translate(56.6936,183.001)">
   <g id="copper1" >
    <g id="14" cx="2.88" r="1.8"  cy="2.88" stroke="black" stroke-width="1.44" fill="none"/>
    <g id="15" cx="10.0933" r="1.8"  cy="2.88" stroke="black" stroke-width="1.44" fill="none"/>
   </g>
  </g>
 </g>
 <g partID="1085131">
  <g transform="translate(56.6936,175.801)">
   <g id="copper1" >
    <g id="16" cx="2.88" r="1.8"  cy="2.88" stroke="black" stroke-width="1.44" fill="none"/>
    <g id="17" cx="10.0933" r="1.8"  cy="2.88" stroke="black" stroke-width="1.44" fill="none"/>
   </g>
  </g>
 </g>
 <g partID="1084991">
  <g transform="translate(56.6936,168.601)">
   <g id="copper1" >
    <g id="18" cx="2.88" r="1.8"  cy="2.88" stroke="black" stroke-width="1.44" fill="none"/>
    <g id="19" cx="10.0933" r="1.8"  cy="2.88" stroke="black" stroke-width="1.44" fill="none"/>
   </g>
  </g>
 </g>
 <g partID="1097010">
  <g transform="translate(9.9392,159.221)">
   <g id="copper1" >
    <rect id="20" fill-opacity="1" y="0.566929" x="0.566929"  stroke="none" stroke-width="0" fill="black" height="5.38583" width="4.53543"/>
    <rect id="21" fill-opacity="1" y="0.566929" x="9.35433"  stroke="none" stroke-width="0" fill="black" height="5.38583" width="4.53543"/>
   </g>
  </g>
 </g>
 <g partID="1053350">
  <g transform="translate(33.5512,258.221)">
   <g id="copper1" >
    <rect id="22" fill-opacity="1" y="0.566929" x="0.566929"  stroke="none" stroke-width="0" fill="black" height="5.38583" width="4.53543"/>
    <rect id="23" fill-opacity="1" y="0.566929" x="9.35433"  stroke="none" stroke-width="0" fill="black" height="5.38583" width="4.53543"/>
   </g>
  </g>
 </g>
 <g partID="1056651">
  <g transform="translate(36.756,197.263)">
   <g id="copper1" >
    <g cx="3.01733" r="0.992124" id="24"  cy="3.01733" stroke="black" stroke-width="0.850392" fill="none"/>
   </g>
  </g>
 </g>
 <g partID="1057191">
  <g transform="translate(45.88,231.601)">
   <g id="copper1" >
    <g id="25" cx="2.88" r="1.8"  cy="2.88" stroke="black" stroke-width="1.44" fill="none"/>
    <g id="26" cx="10.0933" r="1.8"  cy="2.88" stroke="black" stroke-width="1.44" fill="none"/>
   </g>
  </g>
 </g>
 <g partID="1039831">
  <g transform="translate(119.334,273.721)">
   <g transform="matrix(0,-1,1,0,0,0)">
    <g id="copper1" >
     <g id="copper0" >
      <g cx="5.04" id="27" r="2.088"  cy="5.04" stroke="black" stroke-width="1.44" fill="none"/>
      <g cx="5.04" id="28" r="2.088"  cy="12.24" stroke="black" stroke-width="1.44" fill="none"/>
      <g cx="5.04" id="29" r="2.088"  cy="19.44" stroke="black" stroke-width="1.44" fill="none"/>
      <g cx="5.04" id="30" r="2.088"  cy="26.64" stroke="black" stroke-width="1.44" fill="none"/>
     </g>
    </g>
   </g>
  </g>
 </g>
 <g partID="1044030">
  <g transform="translate(132.608,252.14)">
   <g transform="matrix(-1,0,0,-1,0,0)">
    <g id="copper1" >
     <rect id="31" fill-opacity="1" y="0.566929" x="0.566929"  stroke="none" stroke-width="0" fill="black" height="5.38583" width="4.53543"/>
     <rect id="32" fill-opacity="1" y="0.566929" x="9.35433"  stroke="none" stroke-width="0" fill="black" height="5.38583" width="4.53543"/>
    </g>
   </g>
  </g>
 </g>
 <g partID="1044080">
  <g transform="translate(150.608,252.14)">
   <g transform="matrix(-1,0,0,-1,0,0)">
    <g id="copper1" >
     <rect id="33" fill-opacity="1" y="0.566929" x="0.566929"  stroke="none" fill="black" height="5.38583" width="4.53543"/>
     <rect id="34" fill-opacity="1" y="0.566929" x="9.35433"  stroke="none" fill="black" height="5.38583" width="4.53543"/>
    </g>
   </g>
  </g>
 </g>
 <g partID="1019471">
  <g transform="translate(67.1336,212.521)">
   <g transform="matrix(0,-1,1,0,0,0)">
    <g id="copper1" >
     <g id="copper0" >
      <g cx="5.04" id="35" r="2.088"  cy="5.04" stroke="black" stroke-width="1.44" fill="none"/>
      <g cx="5.04" id="36" r="2.088"  cy="12.24" stroke="black" stroke-width="1.44" fill="none"/>
     </g>
    </g>
   </g>
  </g>
 </g>
 <g partID="1026741">
  <g transform="translate(216.534,21.7207)">
   <g transform="matrix(0,-1,1,0,0,0)">
    <g id="copper1" >
     <g id="copper0" >
      <g cx="5.04" id="37" r="2.088"  cy="5.04" stroke="black" stroke-width="1.44" fill="none"/>
      <g cx="5.04" id="38" r="2.088"  cy="12.24" stroke="black" stroke-width="1.44" fill="none"/>
     </g>
    </g>
   </g>
  </g>
 </g>
 <g partID="1039091">
  <g transform="translate(135.534,235.921)">
   <g transform="matrix(0,-1,1,0,0,0)">
    <g id="copper1" >
     <g id="copper0" >
      <g cx="5.04" id="39" r="2.088"  cy="5.04" stroke="black" stroke-width="1.44" fill="none"/>
      <g cx="5.04" id="40" r="2.088"  cy="12.24" stroke="black" stroke-width="1.44" fill="none"/>
     </g>
    </g>
   </g>
  </g>
 </g>
 <g partID="1034371">
  <g transform="translate(135.534,243.121)">
   <g transform="matrix(0,-1,1,0,0,0)">
    <g id="copper1" >
     <g id="copper0" >
      <g cx="5.04" id="41" r="2.088"  cy="5.04" stroke="black" stroke-width="1.44" fill="none"/>
      <g cx="5.04" id="42" r="2.088"  cy="12.24" stroke="black" stroke-width="1.44" fill="none"/>
     </g>
    </g>
   </g>
  </g>
 </g>
 <g partID="987581">
  <g transform="translate(204.156,235.13)">
   <g id="copper1" >
    <g cx="3.01733" r="0.992124" id="43"  cy="3.01733" stroke="black" stroke-width="0.850392" fill="none"/>
   </g>
  </g>
 </g>
 <g partID="989521">
  <g transform="translate(70.956,73.0634)">
   <g id="copper1" >
    <g cx="3.01733" r="0.992124" id="44"  cy="3.01733" stroke="black" stroke-width="0.850392" fill="none"/>
   </g>
  </g>
 </g>
 <g partID="991431">
  <g transform="translate(63.756,67.6634)">
   <g id="copper1" >
    <g cx="3.01733" r="0.992124" id="45"  cy="3.01733" stroke="black" stroke-width="0.850392" fill="none"/>
   </g>
  </g>
 </g>
 <g partID="992701">
  <g transform="translate(218.556,94.7303)">
   <g id="copper1" >
    <g cx="3.01733" r="0.992124" id="46"  cy="3.01733" stroke="black" stroke-width="0.850392" fill="none"/>
   </g>
  </g>
 </g>
 <g partID="993451">
  <g transform="translate(218.556,191.797)">
   <g id="copper1" >
    <g cx="3.01733" r="0.992124" id="47"  cy="3.01733" stroke="black" stroke-width="0.850392" fill="none"/>
   </g>
  </g>
 </g>
 <g partID="1001651">
  <g transform="translate(218.68,175.801)">
   <g id="copper1" >
    <g id="48" cx="2.88" r="1.8"  cy="2.88" stroke="black" stroke-width="1.44" fill="none"/>
    <g id="49" cx="10.0933" r="1.8"  cy="2.88" stroke="black" stroke-width="1.44" fill="none"/>
   </g>
  </g>
 </g>
 <g partID="999741">
  <g transform="translate(218.68,161.401)">
   <g id="copper1" >
    <g id="50" cx="2.88" r="1.8"  cy="2.88" stroke="black" stroke-width="1.44" fill="none"/>
    <g id="51" cx="10.0933" r="1.8"  cy="2.88" stroke="black" stroke-width="1.44" fill="none"/>
   </g>
  </g>
 </g>
 <g partID="1005031">
  <g transform="translate(187.89,150.463)">
   <g id="copper1" >
    <g cx="3.01733" r="0.992124" id="52"  cy="3.01733" stroke="black" stroke-width="0.850392" fill="none"/>
   </g>
  </g>
 </g>
 <g partID="1005391">
  <g transform="translate(180.69,94.7303)">
   <g id="copper1" >
    <g cx="3.01733" r="0.992124" id="53"  cy="3.01733" stroke="black" stroke-width="0.850392" fill="none"/>
   </g>
  </g>
 </g>
 <g partID="963301">
  <g transform="translate(128.596,29.8234)">
   <g id="copper1" >
    <g cx="3.01733" r="0.992124" id="54"  cy="3.01733" stroke="black" stroke-width="0.850392" fill="none"/>
   </g>
  </g>
 </g>
 <g partID="963501">
  <g transform="translate(90.756,58.6634)">
   <g id="copper1" >
    <g cx="3.01733" r="0.992124" id="55"  cy="3.01733" stroke="black" stroke-width="0.850392" fill="none"/>
   </g>
  </g>
 </g>
 <g partID="968411">
  <g transform="translate(171.756,144.997)">
   <g id="copper1" >
    <g cx="3.01733" r="0.992124" id="56"  cy="3.01733" stroke="black" stroke-width="0.850392" fill="none"/>
   </g>
  </g>
 </g>
 <g partID="970401">
  <g transform="translate(198.823,137.93)">
   <g id="copper1" >
    <g cx="3.01733" r="0.992124" id="57"  cy="3.01733" stroke="black" stroke-width="0.850392" fill="none"/>
   </g>
  </g>
 </g>
 <g partID="971961">
  <g transform="translate(198.756,193.663)">
   <g id="copper1" >
    <g cx="3.01733" r="0.992124" id="58"  cy="3.01733" stroke="black" stroke-width="0.850392" fill="none"/>
   </g>
  </g>
 </g>
 <g partID="972611">
  <g transform="translate(133.956,152.263)">
   <g id="copper1" >
    <g cx="3.01733" r="0.992124" id="59"  cy="3.01733" stroke="black" stroke-width="0.850392" fill="none"/>
   </g>
  </g>
 </g>
 <g partID="977931">
  <g transform="translate(112.356,87.4631)">
   <g id="copper1" >
    <g cx="3.01733" r="0.992124" id="60"  cy="3.01733" stroke="black" stroke-width="0.850392" fill="none"/>
   </g>
  </g>
 </g>
 <g partID="978111">
  <g transform="translate(99.756,80.2634)">
   <g id="copper1" >
    <g cx="3.01733" r="0.992124" id="61"  cy="3.01733" stroke="black" stroke-width="0.850392" fill="none"/>
   </g>
  </g>
 </g>
 <g partID="957261">
  <g transform="translate(78.156,26.2634)">
   <g id="copper1" >
    <g cx="3.01733" r="0.992124" id="62"  cy="3.01733" stroke="black" stroke-width="0.850392" fill="none"/>
   </g>
  </g>
 </g>
 <g partID="957361">
  <g transform="translate(106.956,26.2634)">
   <g id="copper1" >
    <g cx="3.01733" r="0.992124" id="63"  cy="3.01733" stroke="black" stroke-width="0.850392" fill="none"/>
   </g>
  </g>
 </g>
 <g partID="957461">
  <g transform="translate(135.756,26.2634)">
   <g id="copper1" >
    <g cx="3.01733" r="0.992124" id="64"  cy="3.01733" stroke="black" stroke-width="0.850392" fill="none"/>
   </g>
  </g>
 </g>
 <g partID="957861">
  <g transform="translate(162.534,33.2407)">
   <g id="copper1" >
    <g id="copper0" >
     <g cx="5.04" id="65" r="2.088"  cy="5.04" stroke="black" stroke-width="1.44" fill="none"/>
     <g cx="5.04" id="66" r="2.088"  cy="12.24" stroke="black" stroke-width="1.44" fill="none"/>
    </g>
   </g>
  </g>
 </g>
 <g partID="959161">
  <g transform="translate(164.556,20.8634)">
   <g id="copper1" >
    <g cx="3.01733" r="0.992124" id="67"  cy="3.01733" stroke="black" stroke-width="0.850392" fill="none"/>
   </g>
  </g>
 </g>
 <g partID="921121">
  <g transform="translate(164.694,78.9607)">
   <g transform="matrix(0,-1,1,0,0,0)">
    <g id="copper1" >
     <g id="68" cx="2.88" r="1.8"  cy="2.88" stroke="black" stroke-width="1.44" fill="none"/>
     <g id="69" cx="10.0933" r="1.8"  cy="2.88" stroke="black" stroke-width="1.44" fill="none"/>
    </g>
   </g>
  </g>
 </g>
 <g partID="948431">
  <g transform="translate(119.556,146.863)">
   <g id="copper1" >
    <g cx="3.01733" r="0.992124" id="70"  cy="3.01733" stroke="black" stroke-width="0.850392" fill="none"/>
   </g>
  </g>
 </g>
 <g partID="950631">
  <g transform="translate(171.894,107.774)">
   <g transform="matrix(0,-1,1,0,0,0)">
    <g id="copper1" >
     <g id="71" cx="2.88" r="1.8"  cy="2.88" stroke="black" stroke-width="1.44" fill="none"/>
     <g id="72" cx="10.0933" r="1.8"  cy="2.88" stroke="black" stroke-width="1.44" fill="none"/>
    </g>
   </g>
  </g>
 </g>
 <g partID="849501">
  <g transform="translate(252.756,249.463)">
   <g id="copper1" >
    <g cx="3.01733" r="0.992124" id="73"  cy="3.01733" stroke="black" stroke-width="0.850392" fill="none"/>
   </g>
  </g>
 </g>
 <g partID="851081">
  <g transform="translate(252.756,213.463)">
   <g id="copper1" >
    <g cx="3.01733" r="0.992124" id="74"  cy="3.01733" stroke="black" stroke-width="0.850392" fill="none"/>
   </g>
  </g>
 </g>
 <g partID="852661">
  <g transform="translate(252.756,177.463)">
   <g id="copper1" >
    <g cx="3.01733" r="0.992124" id="75"  cy="3.01733" stroke="black" stroke-width="0.850392" fill="none"/>
   </g>
  </g>
 </g>
 <g partID="854241">
  <g transform="translate(252.756,145.063)">
   <g id="copper1" >
    <g cx="3.01733" r="0.992124" id="76"  cy="3.01733" stroke="black" stroke-width="0.850392" fill="none"/>
   </g>
  </g>
 </g>
 <g partID="888431">
  <g transform="translate(241.956,94.6631)">
   <g id="copper1" >
    <g cx="3.01733" r="0.992124" id="77"  cy="3.01733" stroke="black" stroke-width="0.850392" fill="none"/>
   </g>
  </g>
 </g>
 <g partID="897901">
  <g transform="translate(225.756,184.663)">
   <g id="copper1" >
    <g cx="3.01733" r="0.992124" id="78"  cy="3.01733" stroke="black" stroke-width="0.850392" fill="none"/>
   </g>
  </g>
 </g>
 <g partID="899061">
  <g transform="translate(225.756,87.4631)">
   <g id="copper1" >
    <g cx="3.01733" r="0.992124" id="79"  cy="3.01733" stroke="black" stroke-width="0.850392" fill="none"/>
   </g>
  </g>
 </g>
 <g partID="821241">
  <g transform="translate(112.356,141.463)">
   <g id="copper1" >
    <g cx="3.01733" r="0.992124" id="80"  cy="3.01733" stroke="black" stroke-width="0.850392" fill="none"/>
   </g>
  </g>
 </g>
 <g partID="793580">
  <g transform="translate(98.4079,79.3406)">
   <g transform="matrix(-1,0,0,-1,0,0)">
    <g id="copper1" >
     <rect id="81" fill-opacity="1" y="0.566929" x="0.566929"  stroke="none" stroke-width="0" fill="black" height="5.38583" width="4.53543"/>
     <rect id="82" fill-opacity="1" y="0.566929" x="9.35433"  stroke="none" stroke-width="0" fill="black" height="5.38583" width="4.53543"/>
    </g>
   </g>
  </g>
 </g>
 <g partID="793520">
  <g transform="translate(83.7392,65.6209)">
   <g id="copper1" >
    <rect id="83" fill-opacity="1" y="0.566929" x="0.566929"  stroke="none" stroke-width="0" fill="black" height="5.38583" width="4.53543"/>
    <rect id="84" fill-opacity="1" y="0.566929" x="9.35433"  stroke="none" stroke-width="0" fill="black" height="5.38583" width="4.53543"/>
   </g>
  </g>
 </g>
 <g partID="789190">
  <g transform="translate(33.3392,96.2207)">
   <g id="copper1" >
    <rect id="85" fill-opacity="1" y="0.566929" x="0.566929"  stroke="none" stroke-width="0" fill="black" height="5.38583" width="4.53543"/>
    <rect id="86" fill-opacity="1" y="0.566929" x="9.35433"  stroke="none" stroke-width="0" fill="black" height="5.38583" width="4.53543"/>
   </g>
  </g>
 </g>
 <g partID="788750">
  <g transform="translate(119.314,50.1154)">
   <g transform="matrix(0,-1,1,0,0,0)">
    <g id="copper1" >
     <rect id="87" fill-opacity="1" y="0.566929" x="0.566929"  stroke="none" stroke-width="0" fill="black" height="5.38583" width="4.53543"/>
     <rect id="88" fill-opacity="1" y="0.566929" x="9.35433"  stroke="none" stroke-width="0" fill="black" height="5.38583" width="4.53543"/>
    </g>
   </g>
  </g>
 </g>
 <g partID="788310">
  <g transform="translate(126.514,50.1154)">
   <g transform="matrix(0,-1,1,0,0,0)">
    <g id="copper1" >
     <rect id="89" fill-opacity="1" y="0.566929" x="0.566929"  stroke="none" stroke-width="0" fill="black" height="5.38583" width="4.53543"/>
     <rect id="90" fill-opacity="1" y="0.566929" x="9.35433"  stroke="none" stroke-width="0" fill="black" height="5.38583" width="4.53543"/>
    </g>
   </g>
  </g>
 </g>
 <g partID="787910">
  <g transform="translate(33.3392,81.8209)">
   <g id="copper1" >
    <rect id="91" fill-opacity="1" y="0.566929" x="0.566929"  stroke="none" stroke-width="0" fill="black" height="5.38583" width="4.53543"/>
    <rect id="92" fill-opacity="1" y="0.566929" x="9.35433"  stroke="none" stroke-width="0" fill="black" height="5.38583" width="4.53543"/>
   </g>
  </g>
 </g>
 <g partID="828641">
  <g transform="translate(42.156,218.863)">
   <g id="copper1" >
    <g cx="3.01733" r="0.992124" id="93"  cy="3.01733" stroke="black" stroke-width="0.850392" fill="none"/>
   </g>
  </g>
 </g>
 <g partID="964571">
  <g transform="translate(22.1336,101.641)">
   <g id="copper1" >
    <g id="copper0" >
     <g cx="5.04" id="94" r="2.088"  cy="5.04" stroke="black" stroke-width="1.44" fill="none"/>
    </g>
   </g>
  </g>
 </g>
 <g partID="604561">
  <g transform="translate(257.934,107.041)">
   <g id="copper1" >
    <g id="copper0" >
     <g cx="5.04" id="95" r="2.088"  cy="5.04" stroke="black" stroke-width="1.44" fill="none"/>
    </g>
   </g>
  </g>
 </g>
 <g partID="1111611">
  <g transform="translate(257.934,85.4407)">
   <g id="copper1" >
    <g id="copper0" >
     <g cx="5.04" id="96" r="2.088"  cy="5.04" stroke="black" stroke-width="1.44" fill="none"/>
    </g>
   </g>
  </g>
 </g>
 <g partID="965441">
  <g transform="translate(257.934,69.2407)">
   <g id="copper1" >
    <g id="copper0" >
     <g cx="5.04" id="97" r="2.088"  cy="5.04" stroke="black" stroke-width="1.44" fill="none"/>
    </g>
   </g>
  </g>
 </g>
 <g partID="1112321">
  <g transform="translate(257.934,99.8407)">
   <g id="copper1" >
    <g id="copper0" >
     <g cx="5.04" id="98" r="2.088"  cy="5.04" stroke="black" stroke-width="1.44" fill="none"/>
    </g>
   </g>
  </g>
 </g>
 <g partID="604541">
  <g transform="translate(257.934,92.6407)">
   <g id="copper1" >
    <g id="copper0" >
     <g cx="5.04" id="99" r="2.088"  cy="5.04" stroke="black" stroke-width="1.44" fill="none"/>
    </g>
   </g>
  </g>
 </g>
 <g partID="573691">
  <g transform="translate(103.134,116.041)">
   <g id="copper1" >
    <g id="copper0" >
     <g cx="5.04" id="100" r="2.088"  cy="5.04" stroke="black" stroke-width="1.44" fill="none"/>
    </g>
   </g>
  </g>
 </g>
 <g partID="573671">
  <g transform="translate(103.134,108.841)">
   <g id="copper1" >
    <g id="copper0" >
     <g cx="5.04" id="101" r="2.088"  cy="5.04" stroke="black" stroke-width="1.44" fill="none"/>
    </g>
   </g>
  </g>
 </g>
 <g partID="573651">
  <g transform="translate(103.134,101.641)">
   <g id="copper1" >
    <g id="copper0" >
     <g cx="5.04" id="102" r="2.088"  cy="5.04" stroke="black" stroke-width="1.44" fill="none"/>
    </g>
   </g>
  </g>
 </g>
 <g partID="578181">
  <g transform="translate(104.934,216.841)">
   <g id="copper1" >
    <g id="copper0" >
     <g cx="5.04" id="103" r="2.088"  cy="5.04" stroke="black" stroke-width="1.44" fill="none"/>
    </g>
   </g>
  </g>
 </g>
 <g partID="979421">
  <g transform="translate(104.934,209.641)">
   <g id="copper1" >
    <g id="copper0" >
     <g cx="5.04" id="104" r="2.088"  cy="5.04" stroke="black" stroke-width="1.44" fill="none"/>
    </g>
   </g>
  </g>
 </g>
 <g partID="979401">
  <g transform="translate(104.934,202.441)">
   <g id="copper1" >
    <g id="copper0" >
     <g cx="5.04" id="105" r="2.088"  cy="5.04" stroke="black" stroke-width="1.44" fill="none"/>
    </g>
   </g>
  </g>
 </g>
 <g partID="979381">
  <g transform="translate(104.934,195.241)">
   <g id="copper1" >
    <g id="copper0" >
     <g cx="5.04" id="106" r="2.088"  cy="5.04" stroke="black" stroke-width="1.44" fill="none"/>
    </g>
   </g>
  </g>
 </g>
 <g partID="979291">
  <g transform="translate(104.934,188.041)">
   <g id="copper1" >
    <g id="copper0" >
     <g cx="5.04" id="107" r="2.088"  cy="5.04" stroke="black" stroke-width="1.44" fill="none"/>
    </g>
   </g>
  </g>
 </g>
 <g partID="979111">
  <g transform="translate(104.934,180.841)">
   <g id="copper1" >
    <g id="copper0" >
     <g cx="5.04" id="108" r="2.088"  cy="5.04" stroke="black" stroke-width="1.44" fill="none"/>
    </g>
   </g>
  </g>
 </g>
 <g partID="630561">
  <g transform="translate(37.6136,254.641)">
   <g transform="matrix(0,-1,1,0,0,0)">
    <g id="copper1" >
     <g id="copper0" >
      <g id="109" y="5.58" x="1.98"  stroke="black" stroke-width="1.44" fill="none" height="3.96" width="3.96"/>
      <g cx="3.96" r="1.98" id="110"  cy="7.56" stroke="black" stroke-width="1.44" fill="none"/>
      <g cx="11.16" r="1.98" id="111"  cy="7.56" stroke="black" stroke-width="1.44" fill="none"/>
     </g>
    </g>
   </g>
  </g>
 </g>
 <g partID="595771">
  <g transform="translate(68.2136,243.121)">
   <g id="copper1" >
    <g id="copper0" >
     <g id="112" y="5.58" x="1.98"  stroke="black" stroke-width="1.44" fill="none" height="3.96" width="3.96"/>
     <g cx="3.96" r="1.98" id="113"  cy="7.56" stroke="black" stroke-width="1.44" fill="none"/>
     <g cx="11.16" r="1.98" id="114"  cy="7.56" stroke="black" stroke-width="1.44" fill="none"/>
    </g>
   </g>
  </g>
 </g>
 <g partID="608161">
  <g transform="translate(257.92,247.441)">
   <g id="copper1" >
    <g id="copper0" >
     <g cx="5.04" id="115" r="2.088"  cy="5.04" stroke="black" stroke-width="1.44" fill="none"/>
    </g>
   </g>
  </g>
 </g>
 <g partID="608081">
  <g transform="translate(257.92,211.441)">
   <g id="copper1" >
    <g id="copper0" >
     <g cx="5.04" id="116" r="2.088"  cy="5.04" stroke="black" stroke-width="1.44" fill="none"/>
    </g>
   </g>
  </g>
 </g>
 <g partID="607241">
  <g transform="translate(257.92,175.441)">
   <g id="copper1" >
    <g id="copper0" >
     <g cx="5.04" id="117" r="2.088"  cy="5.04" stroke="black" stroke-width="1.44" fill="none"/>
    </g>
   </g>
  </g>
 </g>
 <g partID="605561">
  <g transform="translate(257.934,62.0407)">
   <g id="copper1" >
    <g id="copper0" >
     <g cx="5.04" id="118" r="2.088"  cy="5.04" stroke="black" stroke-width="1.44" fill="none"/>
    </g>
   </g>
  </g>
 </g>
 <g partID="604361">
  <g transform="translate(257.934,143.041)">
   <g id="copper1" >
    <g id="copper0" >
     <g cx="5.04" id="119" r="2.088"  cy="5.04" stroke="black" stroke-width="1.44" fill="none"/>
    </g>
   </g>
  </g>
 </g>
 <g partID="608171">
  <g transform="translate(257.934,240.241)">
   <g id="copper1" >
    <g id="copper0" >
     <g cx="5.04" id="120" r="2.088"  cy="5.04" stroke="black" stroke-width="1.44" fill="none"/>
    </g>
   </g>
  </g>
 </g>
 <g partID="608091">
  <g transform="translate(257.934,204.241)">
   <g id="copper1" >
    <g id="copper0" >
     <g cx="5.04" id="121" r="2.088"  cy="5.04" stroke="black" stroke-width="1.44" fill="none"/>
    </g>
   </g>
  </g>
 </g>
 <g partID="607251">
  <g transform="translate(257.934,168.241)">
   <g id="copper1" >
    <g id="copper0" >
     <g cx="5.04" id="122" r="2.088"  cy="5.04" stroke="black" stroke-width="1.44" fill="none"/>
    </g>
   </g>
  </g>
 </g>
 <g partID="604371">
  <g transform="translate(257.934,135.841)">
   <g id="copper1" >
    <g id="copper0" >
     <g cx="5.04" id="123" r="2.088"  cy="5.04" stroke="black" stroke-width="1.44" fill="none"/>
    </g>
   </g>
  </g>
 </g>
 <g partID="608181">
  <g transform="translate(257.934,225.841)">
   <g id="copper1" >
    <g id="copper0" >
     <g cx="5.04" id="124" r="2.088"  cy="5.04" stroke="black" stroke-width="1.44" fill="none"/>
    </g>
   </g>
  </g>
 </g>
 <g partID="608101">
  <g transform="translate(257.934,189.841)">
   <g id="copper1" >
    <g id="copper0" >
     <g cx="5.04" id="125" r="2.088"  cy="5.04" stroke="black" stroke-width="1.44" fill="none"/>
    </g>
   </g>
  </g>
 </g>
 <g partID="607261">
  <g transform="translate(257.934,153.841)">
   <g id="copper1" >
    <g id="copper0" >
     <g cx="5.04" id="126" r="2.088"  cy="5.04" stroke="black" stroke-width="1.44" fill="none"/>
    </g>
   </g>
  </g>
 </g>
 <g partID="604381">
  <g transform="translate(257.934,121.441)">
   <g id="copper1" >
    <g id="copper0" >
     <g cx="5.04" id="127" r="2.088"  cy="5.04" stroke="black" stroke-width="1.44" fill="none"/>
    </g>
   </g>
  </g>
 </g>
 <g partID="608191">
  <g transform="translate(257.934,233.041)">
   <g id="copper1" >
    <g id="copper0" >
     <g cx="5.04" id="128" r="2.088"  cy="5.04" stroke="black" stroke-width="1.44" fill="none"/>
    </g>
   </g>
  </g>
 </g>
 <g partID="608111">
  <g transform="translate(257.934,197.041)">
   <g id="copper1" >
    <g id="copper0" >
     <g cx="5.04" id="129" r="2.088"  cy="5.04" stroke="black" stroke-width="1.44" fill="none"/>
    </g>
   </g>
  </g>
 </g>
 <g partID="607271">
  <g transform="translate(257.934,161.041)">
   <g id="copper1" >
    <g id="copper0" >
     <g cx="5.04" id="130" r="2.088"  cy="5.04" stroke="black" stroke-width="1.44" fill="none"/>
    </g>
   </g>
  </g>
 </g>
 <g partID="604391">
  <g transform="translate(257.934,128.641)">
   <g id="copper1" >
    <g id="copper0" >
     <g cx="5.04" id="131" r="2.088"  cy="5.04" stroke="black" stroke-width="1.44" fill="none"/>
    </g>
   </g>
  </g>
 </g>
 <g partID="475141">
  <g transform="translate(97.7336,12.7207)">
   <g transform="matrix(0,-1,1,0,0,0)">
    <g id="copper1" >
     <g id="copper0" >
      <g cx="5.04" id="132" r="2.088"  cy="5.04" stroke="black" stroke-width="1.44" fill="none"/>
     </g>
    </g>
   </g>
  </g>
 </g>
 <g partID="475101">
  <g transform="translate(126.446,12.632)">
   <g transform="matrix(0.0174524,-0.999848,0.999848,0.0174524,0,0)">
    <g id="copper1" >
     <g id="copper0" >
      <g cx="5.04" id="133" r="2.088"  cy="5.04" stroke="black" stroke-width="1.44" fill="none"/>
     </g>
    </g>
   </g>
  </g>
 </g>
 <g partID="475081">
  <g transform="translate(68.9336,12.7207)">
   <g transform="matrix(0,-1,1,0,0,0)">
    <g id="copper1" >
     <g id="copper0" >
      <g cx="5.04" id="134" r="2.088"  cy="5.04" stroke="black" stroke-width="1.44" fill="none"/>
     </g>
    </g>
   </g>
  </g>
 </g>
 <g partID="731881">
  <g transform="translate(169.734,2.64071)">
   <g id="copper1" >
    <g id="copper0" >
     <g cx="5.04" id="135" r="2.088"  cy="5.04" stroke="black" stroke-width="1.44" fill="none"/>
    </g>
   </g>
  </g>
 </g>
 <g partID="649261">
  <g transform="translate(143.814,12.7207)">
   <g transform="matrix(-1,0,0,-1,0,0)">
    <g id="copper1" >
     <g id="copper0" >
      <g cx="5.04" id="136" r="2.088"  cy="5.04" stroke="black" stroke-width="1.44" fill="none"/>
     </g>
    </g>
   </g>
  </g>
 </g>
 <g partID="731891">
  <g transform="translate(162.534,2.64071)">
   <g id="copper1" >
    <g id="copper0" >
     <g cx="5.04" id="137" r="2.088"  cy="5.04" stroke="black" stroke-width="1.44" fill="none"/>
    </g>
   </g>
  </g>
 </g>
 <g partID="649251">
  <g transform="translate(151.014,12.7207)">
   <g transform="matrix(-1,0,0,-1,0,0)">
    <g id="copper1" >
     <g id="copper0" >
      <g cx="5.04" id="138" r="2.088"  cy="5.04" stroke="black" stroke-width="1.44" fill="none"/>
     </g>
    </g>
   </g>
  </g>
 </g>
 <g partID="649221">
  <g transform="translate(104.934,12.7207)">
   <g transform="matrix(0,-1,1,0,0,0)">
    <g id="copper1" >
     <g id="copper0" >
      <g cx="5.04" id="139" r="2.088"  cy="5.04" stroke="black" stroke-width="1.44" fill="none"/>
     </g>
    </g>
   </g>
  </g>
 </g>
 <g partID="649211">
  <g transform="translate(112.134,12.7207)">
   <g transform="matrix(0,-1,1,0,0,0)">
    <g id="copper1" >
     <g id="copper0" >
      <g cx="5.04" id="140" r="2.088"  cy="5.04" stroke="black" stroke-width="1.44" fill="none"/>
     </g>
    </g>
   </g>
  </g>
 </g>
 <g partID="649181">
  <g transform="translate(76.1336,12.7207)">
   <g transform="matrix(0,-1,1,0,0,0)">
    <g id="copper1" >
     <g id="copper0" >
      <g cx="5.04" id="141" r="2.088"  cy="5.04" stroke="black" stroke-width="1.44" fill="none"/>
     </g>
    </g>
   </g>
  </g>
 </g>
 <g partID="649171">
  <g transform="translate(83.3336,12.7207)">
   <g transform="matrix(0,-1,1,0,0,0)">
    <g id="copper1" >
     <g id="copper0" >
      <g cx="5.04" id="142" r="2.088"  cy="5.04" stroke="black" stroke-width="1.44" fill="none"/>
     </g>
    </g>
   </g>
  </g>
 </g>
 <g partID="649151">
  <g transform="translate(54.5336,12.7207)">
   <g transform="matrix(0,-1,1,0,0,0)">
    <g id="copper1" >
     <g id="copper0" >
      <g cx="5.04" id="143" r="2.088"  cy="5.04" stroke="black" stroke-width="1.44" fill="none"/>
     </g>
    </g>
   </g>
  </g>
 </g>
 <g partID="649131">
  <g transform="translate(47.3336,12.7207)">
   <g transform="matrix(0,-1,1,0,0,0)">
    <g id="copper1" >
     <g id="copper0" >
      <g cx="5.04" id="144" r="2.088"  cy="5.04" stroke="black" stroke-width="1.44" fill="none"/>
     </g>
    </g>
   </g>
  </g>
 </g>
 <g partID="475061">
  <g transform="translate(40.1336,12.7207)">
   <g transform="matrix(0,-1,1,0,0,0)">
    <g id="copper1" >
     <g id="copper0" >
      <g cx="5.04" id="145" r="2.088"  cy="5.04" stroke="black" stroke-width="1.44" fill="none"/>
     </g>
    </g>
   </g>
  </g>
 </g>
 <g partID="552331">
  <g transform="translate(210.054,183.361)">
   <g id="copper1" >
    <g id="copper0" >
     <g id="146" y="2.34" x="2.34"  stroke="black" stroke-width="1.44" fill="none" height="3.96" width="3.96"/>
     <g cx="4.32" id="147" r="1.98"  cy="4.32" stroke="black" stroke-width="1.44" fill="none"/>
     <g cx="25.92" id="148" r="1.98"  cy="4.32" stroke="black" stroke-width="1.44" fill="none"/>
     <g cx="4.32" id="149" r="1.98"  cy="11.52" stroke="black" stroke-width="1.44" fill="none"/>
     <g cx="25.92" id="150" r="1.98"  cy="11.52" stroke="black" stroke-width="1.44" fill="none"/>
     <g cx="4.32" id="151" r="1.98"  cy="18.72" stroke="black" stroke-width="1.44" fill="none"/>
     <g cx="25.92" id="152" r="1.98"  cy="18.72" stroke="black" stroke-width="1.44" fill="none"/>
     <g cx="4.32" id="153" r="1.98"  cy="25.92" stroke="black" stroke-width="1.44" fill="none"/>
     <g cx="25.92" id="154" r="1.98"  cy="25.92" stroke="black" stroke-width="1.44" fill="none"/>
     <g cx="4.32" id="155" r="1.98"  cy="33.12" stroke="black" stroke-width="1.44" fill="none"/>
     <g cx="25.92" id="156" r="1.98"  cy="33.12" stroke="black" stroke-width="1.44" fill="none"/>
     <g cx="4.32" id="157" r="1.98"  cy="40.32" stroke="black" stroke-width="1.44" fill="none"/>
     <g cx="25.92" id="158" r="1.98"  cy="40.32" stroke="black" stroke-width="1.44" fill="none"/>
     <g cx="4.32" id="159" r="1.98"  cy="47.52" stroke="black" stroke-width="1.44" fill="none"/>
     <g cx="25.92" id="160" r="1.98"  cy="47.52" stroke="black" stroke-width="1.44" fill="none"/>
     <g cx="4.32" id="161" r="1.98"  cy="54.72" stroke="black" stroke-width="1.44" fill="none"/>
     <g cx="25.92" id="162" r="1.98"  cy="54.72" stroke="black" stroke-width="1.44" fill="none"/>
     <g cx="4.32" id="163" r="1.98"  cy="61.92" stroke="black" stroke-width="1.44" fill="none"/>
     <g cx="25.92" id="164" r="1.98"  cy="61.92" stroke="black" stroke-width="1.44" fill="none"/>
     <g cx="4.32" id="165" r="1.98"  cy="69.12" stroke="black" stroke-width="1.44" fill="none"/>
     <g cx="25.92" id="166" r="1.98"  cy="69.12" stroke="black" stroke-width="1.44" fill="none"/>
    </g>
   </g>
  </g>
 </g>
 <g partID="532011">
  <g transform="translate(210.054,86.1607)">
   <g id="copper1" >
    <g id="copper0" >
     <g id="167" y="2.34" x="2.34"  stroke="black" stroke-width="1.44" fill="none" height="3.96" width="3.96"/>
     <g cx="4.32" id="168" r="1.98"  cy="4.32" stroke="black" stroke-width="1.44" fill="none"/>
     <g cx="25.92" id="169" r="1.98"  cy="4.32" stroke="black" stroke-width="1.44" fill="none"/>
     <g cx="4.32" id="170" r="1.98"  cy="11.52" stroke="black" stroke-width="1.44" fill="none"/>
     <g cx="25.92" id="171" r="1.98"  cy="11.52" stroke="black" stroke-width="1.44" fill="none"/>
     <g cx="4.32" id="172" r="1.98"  cy="18.72" stroke="black" stroke-width="1.44" fill="none"/>
     <g cx="25.92" id="173" r="1.98"  cy="18.72" stroke="black" stroke-width="1.44" fill="none"/>
     <g cx="4.32" id="174" r="1.98"  cy="25.92" stroke="black" stroke-width="1.44" fill="none"/>
     <g cx="25.92" id="175" r="1.98"  cy="25.92" stroke="black" stroke-width="1.44" fill="none"/>
     <g cx="4.32" id="176" r="1.98"  cy="33.12" stroke="black" stroke-width="1.44" fill="none"/>
     <g cx="25.92" id="177" r="1.98"  cy="33.12" stroke="black" stroke-width="1.44" fill="none"/>
     <g cx="4.32" id="178" r="1.98"  cy="40.32" stroke="black" stroke-width="1.44" fill="none"/>
     <g cx="25.92" id="179" r="1.98"  cy="40.32" stroke="black" stroke-width="1.44" fill="none"/>
     <g cx="4.32" id="180" r="1.98"  cy="47.52" stroke="black" stroke-width="1.44" fill="none"/>
     <g cx="25.92" id="181" r="1.98"  cy="47.52" stroke="black" stroke-width="1.44" fill="none"/>
     <g cx="4.32" id="182" r="1.98"  cy="54.72" stroke="black" stroke-width="1.44" fill="none"/>
     <g cx="25.92" id="183" r="1.98"  cy="54.72" stroke="black" stroke-width="1.44" fill="none"/>
     <g cx="4.32" id="184" r="1.98"  cy="61.92" stroke="black" stroke-width="1.44" fill="none"/>
     <g cx="25.92" id="185" r="1.98"  cy="61.92" stroke="black" stroke-width="1.44" fill="none"/>
     <g cx="4.32" id="186" r="1.98"  cy="69.12" stroke="black" stroke-width="1.44" fill="none"/>
     <g cx="25.92" id="187" r="1.98"  cy="69.12" stroke="black" stroke-width="1.44" fill="none"/>
    </g>
   </g>
  </g>
 </g>
 <g partID="491661">
  <g transform="translate(111.054,80.4007)">
   <g transform="matrix(0,-1,1,0,0,0)">
    <g id="copper1" >
     <g id="copper0" >
      <g id="188" y="2.34" x="2.34"  stroke="black" stroke-width="1.44" fill="none" height="3.96" width="3.96"/>
      <g cx="4.32" id="189" r="1.98"  cy="4.32" stroke="black" stroke-width="1.44" fill="none"/>
      <g cx="25.92" id="190" r="1.98"  cy="4.32" stroke="black" stroke-width="1.44" fill="none"/>
      <g cx="4.32" id="191" r="1.98"  cy="11.52" stroke="black" stroke-width="1.44" fill="none"/>
      <g cx="25.92" id="192" r="1.98"  cy="11.52" stroke="black" stroke-width="1.44" fill="none"/>
      <g cx="4.32" id="193" r="1.98"  cy="18.72" stroke="black" stroke-width="1.44" fill="none"/>
      <g cx="25.92" id="194" r="1.98"  cy="18.72" stroke="black" stroke-width="1.44" fill="none"/>
      <g cx="4.32" id="195" r="1.98"  cy="25.92" stroke="black" stroke-width="1.44" fill="none"/>
      <g cx="25.92" id="196" r="1.98"  cy="25.92" stroke="black" stroke-width="1.44" fill="none"/>
      <g cx="4.32" id="197" r="1.98"  cy="33.12" stroke="black" stroke-width="1.44" fill="none"/>
      <g cx="25.92" id="198" r="1.98"  cy="33.12" stroke="black" stroke-width="1.44" fill="none"/>
      <g cx="4.32" id="199" r="1.98"  cy="40.32" stroke="black" stroke-width="1.44" fill="none"/>
      <g cx="25.92" id="200" r="1.98"  cy="40.32" stroke="black" stroke-width="1.44" fill="none"/>
      <g cx="4.32" id="201" r="1.98"  cy="47.52" stroke="black" stroke-width="1.44" fill="none"/>
      <g cx="25.92" id="202" r="1.98"  cy="47.52" stroke="black" stroke-width="1.44" fill="none"/>
     </g>
    </g>
   </g>
  </g>
 </g>
 <g partID="484801">
  <g transform="translate(118.254,116.401)">
   <g transform="matrix(0,-1,1,0,0,0)">
    <g id="copper1" >
     <g id="copper0" >
      <g id="203" y="2.34" x="2.34"  stroke="black" stroke-width="1.44" fill="none" height="3.96" width="3.96"/>
      <g cx="4.32" id="204" r="1.98"  cy="4.32" stroke="black" stroke-width="1.44" fill="none"/>
      <g cx="25.92" id="205" r="1.98"  cy="4.32" stroke="black" stroke-width="1.44" fill="none"/>
      <g cx="4.32" id="206" r="1.98"  cy="11.52" stroke="black" stroke-width="1.44" fill="none"/>
      <g cx="25.92" id="207" r="1.98"  cy="11.52" stroke="black" stroke-width="1.44" fill="none"/>
      <g cx="4.32" id="208" r="1.98"  cy="18.72" stroke="black" stroke-width="1.44" fill="none"/>
      <g cx="25.92" id="209" r="1.98"  cy="18.72" stroke="black" stroke-width="1.44" fill="none"/>
      <g cx="4.32" id="210" r="1.98"  cy="25.92" stroke="black" stroke-width="1.44" fill="none"/>
      <g cx="25.92" id="211" r="1.98"  cy="25.92" stroke="black" stroke-width="1.44" fill="none"/>
      <g cx="4.32" id="212" r="1.98"  cy="33.12" stroke="black" stroke-width="1.44" fill="none"/>
      <g cx="25.92" id="213" r="1.98"  cy="33.12" stroke="black" stroke-width="1.44" fill="none"/>
      <g cx="4.32" id="214" r="1.98"  cy="40.32" stroke="black" stroke-width="1.44" fill="none"/>
      <g cx="25.92" id="215" r="1.98"  cy="40.32" stroke="black" stroke-width="1.44" fill="none"/>
      <g cx="4.32" id="216" r="1.98"  cy="47.52" stroke="black" stroke-width="1.44" fill="none"/>
      <g cx="25.92" id="217" r="1.98"  cy="47.52" stroke="black" stroke-width="1.44" fill="none"/>
     </g>
    </g>
   </g>
  </g>
 </g>
 <g partID="456411">
  <g transform="translate(48.4136,79.9687)">
   <g id="copper1" >
    <g id="copper0" >
     <g id="218" y="3.132" x="1.98"  gorn="0.2.0.0" stroke="black" stroke-width="1.44" fill="none" height="3.96" width="3.96"/>
     <g r="2.088" id="219" cx="3.96"  cy="5.112" gorn="0.2.0.1" stroke="black" stroke-width="1.44" fill="none"/>
     <g r="2.088" id="220" cx="47.124"  cy="5.112" gorn="0.2.0.2" stroke="black" stroke-width="1.44" fill="none"/>
     <g r="2.088" id="221" cx="3.96"  cy="12.312" gorn="0.2.0.3" stroke="black" stroke-width="1.44" fill="none"/>
     <g r="2.088" id="222" cx="47.124"  cy="12.312" gorn="0.2.0.4" stroke="black" stroke-width="1.44" fill="none"/>
     <g r="2.088" id="223" cx="3.96"  cy="19.512" gorn="0.2.0.5" stroke="black" stroke-width="1.44" fill="none"/>
     <g r="2.088" id="224" cx="47.124"  cy="19.512" gorn="0.2.0.6" stroke="black" stroke-width="1.44" fill="none"/>
     <g r="2.088" id="225" cx="3.96"  cy="26.712" gorn="0.2.0.7" stroke="black" stroke-width="1.44" fill="none"/>
     <g r="2.088" id="226" cx="47.124"  cy="26.712" gorn="0.2.0.8" stroke="black" stroke-width="1.44" fill="none"/>
     <g r="2.088" id="227" cx="3.96"  cy="33.912" gorn="0.2.0.9" stroke="black" stroke-width="1.44" fill="none"/>
     <g r="2.088" id="228" cx="47.124"  cy="33.912" gorn="0.2.0.10" stroke="black" stroke-width="1.44" fill="none"/>
     <g r="2.088" id="229" cx="3.96"  cy="41.112" gorn="0.2.0.11" stroke="black" stroke-width="1.44" fill="none"/>
     <g r="2.088" id="230" cx="47.124"  cy="41.112" gorn="0.2.0.12" stroke="black" stroke-width="1.44" fill="none"/>
     <g r="2.088" id="231" cx="3.96"  cy="48.312" gorn="0.2.0.13" stroke="black" stroke-width="1.44" fill="none"/>
     <g r="2.088" id="232" cx="47.124"  cy="48.312" gorn="0.2.0.14" stroke="black" stroke-width="1.44" fill="none"/>
     <g r="2.088" id="233" cx="3.96"  cy="55.512" gorn="0.2.0.15" stroke="black" stroke-width="1.44" fill="none"/>
     <g r="2.088" id="234" cx="47.124"  cy="55.512" gorn="0.2.0.16" stroke="black" stroke-width="1.44" fill="none"/>
     <g r="2.088" id="235" cx="3.96"  cy="62.712" gorn="0.2.0.17" stroke="black" stroke-width="1.44" fill="none"/>
     <g r="2.088" id="236" cx="47.124"  cy="62.712" gorn="0.2.0.18" stroke="black" stroke-width="1.44" fill="none"/>
     <g r="2.088" id="237" cx="3.96"  cy="69.912" gorn="0.2.0.19" stroke="black" stroke-width="1.44" fill="none"/>
     <g r="2.088" id="238" cx="47.124"  cy="69.912" gorn="0.2.0.20" stroke="black" stroke-width="1.44" fill="none"/>
     <g r="2.088" id="239" cx="3.96"  cy="77.112" gorn="0.2.0.21" stroke="black" stroke-width="1.44" fill="none"/>
     <g r="2.088" id="240" cx="47.124"  cy="77.112" gorn="0.2.0.22" stroke="black" stroke-width="1.44" fill="none"/>
     <g r="2.088" id="241" cx="3.96"  cy="84.312" gorn="0.2.0.23" stroke="black" stroke-width="1.44" fill="none"/>
     <g r="2.088" id="242" cx="47.124"  cy="84.312" gorn="0.2.0.24" stroke="black" stroke-width="1.44" fill="none"/>
     <g r="2.088" id="243" cx="3.96"  cy="91.512" gorn="0.2.0.25" stroke="black" stroke-width="1.44" fill="none"/>
     <g r="2.088" id="244" cx="47.124"  cy="91.512" gorn="0.2.0.26" stroke="black" stroke-width="1.44" fill="none"/>
     <g r="2.088" id="245" cx="3.96"  cy="98.712" gorn="0.2.0.27" stroke="black" stroke-width="1.44" fill="none"/>
     <g r="2.088" id="246" cx="47.124"  cy="98.712" gorn="0.2.0.28" stroke="black" stroke-width="1.44" fill="none"/>
     <g r="2.088" id="247" cx="3.96"  cy="105.912" gorn="0.2.0.29" stroke="black" stroke-width="1.44" fill="none"/>
     <g r="2.088" id="248" cx="47.124"  cy="105.912" gorn="0.2.0.30" stroke="black" stroke-width="1.44" fill="none"/>
     <g r="2.088" id="249" cx="3.96"  cy="113.112" gorn="0.2.0.31" stroke="black" stroke-width="1.44" fill="none"/>
     <g r="2.088" id="250" cx="47.124"  cy="113.112" gorn="0.2.0.32" stroke="black" stroke-width="1.44" fill="none"/>
     <g r="2.088" id="251" cx="3.96"  cy="120.312" gorn="0.2.0.33" stroke="black" stroke-width="1.44" fill="none"/>
     <g r="2.088" id="252" cx="47.124"  cy="120.312" gorn="0.2.0.34" stroke="black" stroke-width="1.44" fill="none"/>
     <g r="2.088" id="253" cx="3.96"  cy="127.512" gorn="0.2.0.35" stroke="black" stroke-width="1.44" fill="none"/>
     <g r="2.088" id="254" cx="47.124"  cy="127.512" gorn="0.2.0.36" stroke="black" stroke-width="1.44" fill="none"/>
     <g r="2.088" id="255" cx="3.96"  cy="134.712" gorn="0.2.0.37" stroke="black" stroke-width="1.44" fill="none"/>
     <g r="2.088" id="256" cx="47.124"  cy="134.712" gorn="0.2.0.38" stroke="black" stroke-width="1.44" fill="none"/>
     <g r="2.088" id="257" cx="3.96"  cy="141.912" gorn="0.2.0.39" stroke="black" stroke-width="1.44" fill="none"/>
     <g r="2.088" id="258" cx="47.124"  cy="141.912" gorn="0.2.0.40" stroke="black" stroke-width="1.44" fill="none"/>
    </g>
   </g>
  </g>
 </g>
 <g partID="1093571">
  <g transform="translate(7.7336,173.641)">
   <g id="copper1" >
    <g id="copper0" >
     <g cx="5.04" id="259" r="2.088"  cy="5.04" stroke="black" stroke-width="1.44" fill="none"/>
    </g>
   </g>
  </g>
 </g>
 <g partID="473291">
  <g transform="translate(7.7336,166.441)">
   <g id="copper1" >
    <g id="copper0" >
     <g cx="5.04" id="260" r="2.088"  cy="5.04" stroke="black" stroke-width="1.44" fill="none"/>
    </g>
   </g>
  </g>
 </g>
 <g partID="473201">
  <g transform="translate(27.5336,173.641)">
   <g id="copper1" >
    <g id="copper0" >
     <g cx="5.04" id="261" r="2.088"  cy="5.04" stroke="black" stroke-width="1.44" fill="none"/>
    </g>
   </g>
  </g>
 </g>
 <g partID="473041">
  <g transform="translate(27.5336,180.841)">
   <g id="copper1" >
    <g id="copper0" >
     <g cx="5.04" id="262" r="2.088"  cy="5.04" stroke="black" stroke-width="1.44" fill="none"/>
    </g>
   </g>
  </g>
 </g>
 <g partID="473021">
  <g transform="translate(27.5336,188.041)">
   <g id="copper1" >
    <g id="copper0" >
     <g cx="5.04" id="263" r="2.088"  cy="5.04" stroke="black" stroke-width="1.44" fill="none"/>
    </g>
   </g>
  </g>
 </g>
 <g partID="1056561">
  <g transform="translate(7.7336,238.441)">
   <g id="copper1" >
    <g id="copper0" >
     <g cx="5.04" id="264" r="2.088"  cy="5.04" stroke="black" stroke-width="1.44" fill="none"/>
    </g>
   </g>
  </g>
 </g>
 <g partID="472931">
  <g transform="translate(7.7336,231.241)">
   <g id="copper1" >
    <g id="copper0" >
     <g cx="5.04" id="265" r="2.088"  cy="5.04" stroke="black" stroke-width="1.44" fill="none"/>
    </g>
   </g>
  </g>
 </g>
 <g partID="472821">
  <g transform="translate(18.5336,202.441)">
   <g id="copper1" >
    <g id="copper0" >
     <g cx="5.04" id="266" r="2.088"  cy="5.04" stroke="black" stroke-width="1.44" fill="none"/>
    </g>
   </g>
  </g>
 </g>
 <g partID="472651">
  <g transform="translate(18.5336,216.841)">
   <g id="copper1" >
    <g id="copper0" >
     <g cx="5.04" id="267" r="2.088"  cy="5.04" stroke="black" stroke-width="1.44" fill="none"/>
    </g>
   </g>
  </g>
 </g>
 <g partID="472641">
  <g transform="translate(18.5336,209.641)">
   <g id="copper1" >
    <g id="copper0" >
     <g cx="5.04" id="268" r="2.088"  cy="5.04" stroke="black" stroke-width="1.44" fill="none"/>
    </g>
   </g>
  </g>
 </g>
 <g partID="1114921">
  <g transform="translate(7.7336,144.841)">
   <g id="copper1" >
    <g id="copper0" >
     <g cx="5.04" id="269" r="2.088"  cy="5.04" stroke="black" stroke-width="1.44" fill="none"/>
    </g>
   </g>
  </g>
 </g>
 <g partID="1114901">
  <g transform="translate(7.7336,137.641)">
   <g id="copper1" >
    <g id="copper0" >
     <g cx="5.04" id="270" r="2.088"  cy="5.04" stroke="black" stroke-width="1.44" fill="none"/>
    </g>
   </g>
  </g>
 </g>
 <g partID="1114881">
  <g transform="translate(7.7336,130.441)">
   <g id="copper1" >
    <g id="copper0" >
     <g cx="5.04" id="271" r="2.088"  cy="5.04" stroke="black" stroke-width="1.44" fill="none"/>
    </g>
   </g>
  </g>
 </g>
 <g partID="670831">
  <g transform="translate(7.7336,123.241)">
   <g id="copper1" >
    <g id="copper0" >
     <g cx="5.04" id="272" r="2.088"  cy="5.04" stroke="black" stroke-width="1.44" fill="none"/>
    </g>
   </g>
  </g>
 </g>
 <g partID="1039671">
  <g transform="translate(27.5336,144.841)">
   <g id="copper1" >
    <g id="copper0" >
     <g cx="5.04" id="273" r="2.088"  cy="5.04" stroke="black" stroke-width="1.44" fill="none"/>
    </g>
   </g>
  </g>
 </g>
 <g partID="469031">
  <g transform="translate(27.5336,137.641)">
   <g id="copper1" >
    <g id="copper0" >
     <g cx="5.04" id="274" r="2.088"  cy="5.04" stroke="black" stroke-width="1.44" fill="none"/>
    </g>
   </g>
  </g>
 </g>
 <g partID="1114861">
  <g transform="translate(7.7336,108.841)">
   <g id="copper1" >
    <g id="copper0" >
     <g cx="5.04" id="275" r="2.088"  cy="5.04" stroke="black" stroke-width="1.44" fill="none"/>
    </g>
   </g>
  </g>
 </g>
 <g partID="670841">
  <g transform="translate(7.7336,116.041)">
   <g id="copper1" >
    <g id="copper0" >
     <g cx="5.04" id="276" r="2.088"  cy="5.04" stroke="black" stroke-width="1.44" fill="none"/>
    </g>
   </g>
  </g>
 </g>
 <g partID="469021">
  <g transform="translate(27.5336,130.441)">
   <g id="copper1" >
    <g id="copper0" >
     <g cx="5.04" id="277" r="2.088"  cy="5.04" stroke="black" stroke-width="1.44" fill="none"/>
    </g>
   </g>
  </g>
 </g>
 <g partID="471691">
  <g transform="translate(27.5336,152.041)">
   <g id="copper1" >
    <g id="copper0" >
     <g cx="5.04" id="278" r="2.088"  cy="5.04" stroke="black" stroke-width="1.44" fill="none"/>
     <g cx="5.04" id="279" r="2.088"  cy="12.24" stroke="black" stroke-width="1.44" fill="none"/>
    </g>
   </g>
  </g>
 </g>
</svg>
