<?xml version='1.0' encoding='UTF-8' standalone='no'?>
<!-- Created with Fritzing (https://fritzing.org/) -->
<svg xmlns="http://www.w3.org/2000/svg"  y="0in" width="2.71869in" viewBox="0 0 195.746 208.49" xmlns:svg="http://www.w3.org/2000/svg" height="2.8957in" version="1.2" x="0in" baseProfile="tiny">
 <g transform="matrix(-1, 0, 0, 1, 195.746, 0)">
  <g partID="57831">
   <g id="silkscreen">
    <rect y="0.288" width="195.17" stroke="black" stroke-width="0.576" fill="none" height="207.914" x="0.288"/>
   </g>
  </g>
  <g partID="57830">
   <g id="board">
    <rect y="0.288" width="195.17" stroke="black" stroke-width="0.5" fill="none" height="207.914" id="boardoutline" x="0.288" fill-opacity="0.5"/>
   </g>
  </g>
  <g partID="75080">
   <g transform="translate(45.1542,199.283)">
    <g id="silkscreen">
     <text y="5.11063" xmlns:xml="http://www.w3.org/XML/1998/namespace" font-size="5.67849" stroke-width="0" xml:space="preserve" font-family="OCRA" fill="black" id="label" x="53.9456" text-anchor="middle">Marius Krabset 2023</text>
    </g>
   </g>
  </g>
  <g partID="75050">
   <g transform="translate(6.70591,4.91878)">
    <g id="silkscreen">
     <text y="5.11063" xmlns:xml="http://www.w3.org/XML/1998/namespace" font-size="5.67847" stroke-width="0" xml:space="preserve" font-family="OCRA" fill="black" id="label" x="59.6239" text-anchor="middle">Stepper drivers 3x v1</text>
    </g>
   </g>
  </g>
  <g partID="98330">
   <g transform="translate(165.661,138.929)">
    <g id="silkscreen">
     <text y="6.48" xmlns:xml="http://www.w3.org/XML/1998/namespace" font-size="7.2" stroke-width="0" xml:space="preserve" font-family="OCRA" fill="black" id="label" x="10.8" text-anchor="middle">GND</text>
    </g>
   </g>
  </g>
  <g partID="95320">
   <g transform="translate(157.724,166.832)">
    <g id="silkscreen">
     <text y="6.48" xmlns:xml="http://www.w3.org/XML/1998/namespace" font-size="7.2" stroke-width="0" xml:space="preserve" font-family="OCRA" fill="black" id="label" x="14.4" text-anchor="middle">STEP</text>
    </g>
   </g>
  </g>
  <g partID="95300">
   <g transform="translate(160.117,174.039)">
    <g id="silkscreen">
     <text y="6.48" xmlns:xml="http://www.w3.org/XML/1998/namespace" font-size="7.2" stroke-width="0" xml:space="preserve" font-family="OCRA" fill="black" id="label" x="10.8" text-anchor="middle">DIR</text>
    </g>
   </g>
  </g>
  <g partID="93640">
   <g transform="translate(157.669,105.589)">
    <g id="silkscreen">
     <text y="6.48" xmlns:xml="http://www.w3.org/XML/1998/namespace" font-size="7.2" stroke-width="0" xml:space="preserve" font-family="OCRA" fill="black" id="label" x="14.4" text-anchor="middle">STEP</text>
    </g>
   </g>
  </g>
  <g partID="93630">
   <g transform="translate(160.062,112.796)">
    <g id="silkscreen">
     <text y="6.48" xmlns:xml="http://www.w3.org/XML/1998/namespace" font-size="7.2" stroke-width="0" xml:space="preserve" font-family="OCRA" fill="black" id="label" x="10.8" text-anchor="middle">DIR</text>
    </g>
   </g>
  </g>
  <g partID="93650">
   <g transform="translate(162.815,98.3815)">
    <g id="silkscreen">
     <text y="6.48" xmlns:xml="http://www.w3.org/XML/1998/namespace" font-size="7.2" stroke-width="0" xml:space="preserve" font-family="OCRA" fill="black" id="label" x="7.2" text-anchor="middle">EN</text>
    </g>
   </g>
  </g>
  <g partID="95310">
   <g transform="translate(162.87,159.624)">
    <g id="silkscreen">
     <text y="6.48" xmlns:xml="http://www.w3.org/XML/1998/namespace" font-size="7.2" stroke-width="0" xml:space="preserve" font-family="OCRA" fill="black" id="label" x="7.2" text-anchor="middle">EN</text>
    </g>
   </g>
  </g>
  <g partID="74850">
   <g transform="translate(160.062,51.5962)">
    <g id="silkscreen">
     <text y="6.48" xmlns:xml="http://www.w3.org/XML/1998/namespace" font-size="7.2" stroke-width="0" xml:space="preserve" font-family="OCRA" fill="black" id="label" x="10.8" text-anchor="middle">DIR</text>
    </g>
   </g>
  </g>
  <g partID="74830">
   <g transform="translate(157.669,44.3888)">
    <g id="silkscreen">
     <text y="6.48" xmlns:xml="http://www.w3.org/XML/1998/namespace" font-size="7.2" stroke-width="0" xml:space="preserve" font-family="OCRA" fill="black" id="label" x="14.4" text-anchor="middle">STEP</text>
    </g>
   </g>
  </g>
  <g partID="74800">
   <g transform="translate(162.815,37.1815)">
    <g id="silkscreen">
     <text y="6.48" xmlns:xml="http://www.w3.org/XML/1998/namespace" font-size="7.2" stroke-width="0" xml:space="preserve" font-family="OCRA" fill="black" id="label" x="7.2" text-anchor="middle">EN</text>
    </g>
   </g>
  </g>
  <g partID="74760">
   <g transform="translate(171.629,1.78819)">
    <g transform="matrix(0,1,-1,0,0,0)">
     <g id="silkscreen">
      <text y="6.48" xmlns:xml="http://www.w3.org/XML/1998/namespace" font-size="7.2" stroke-width="0" xml:space="preserve" font-family="OCRA" fill="black" id="label" x="10.8" text-anchor="middle">12V</text>
     </g>
    </g>
   </g>
  </g>
  <g partID="58851">
   <g transform="translate(19.2141,15.5719)">
    <g stroke-width="0" id="silkscreen">
     <path stroke="black" stroke-width="0.576" fill="none" d="M0.288,0.288l136.224,0,0,57.024,-136.224,0,0,-57.024zM107.208,18a4.392,4.392,0,1,0,8.784,0,4.392,4.392,0,1,0,-8.784,0zM38.808,28.8a4.392,4.392,0,1,0,8.784,0,4.392,4.392,0,1,0,-8.784,0z"/>
     <line stroke="black" x1="0" stroke-width="0.72" y2="57.6" x2="136.8" stroke-linecap="round" y1="57.6"/>
     <line stroke="black" x1="136.8" stroke-width="0.72" y2="0" x2="136.8" stroke-linecap="round" y1="57.6"/>
     <line stroke="black" x1="0" stroke-width="0.72" y2="57.6" x2="0" stroke-linecap="round" y1="0"/>
     <line stroke="black" x1="21.6" stroke-width="0.576" y2="2.16" x2="23.4" stroke-linecap="round" y1="2.16"/>
     <line stroke="black" x1="21.6" stroke-width="0.576" y2="3.96" x2="21.6" stroke-linecap="round" y1="2.16"/>
     <line stroke="black" x1="28.8" stroke-width="0.576" y2="2.16" x2="27" stroke-linecap="round" y1="2.16"/>
     <line stroke="black" x1="28.8" stroke-width="0.576" y2="3.96" x2="28.8" stroke-linecap="round" y1="2.16"/>
     <line stroke="black" x1="37.8" stroke-width="0.576" y2="2.16" x2="36" stroke-linecap="round" y1="2.16"/>
     <line stroke="black" x1="36" stroke-width="0.576" y2="3.96" x2="36" stroke-linecap="round" y1="2.16"/>
     <line stroke="black" x1="43.2" stroke-width="0.576" y2="2.16" x2="41.4" stroke-linecap="round" y1="2.16"/>
     <line stroke="black" x1="43.2" stroke-width="0.576" y2="3.96" x2="43.2" stroke-linecap="round" y1="2.16"/>
     <line stroke="black" x1="136.8" stroke-width="0.72" y2="0" x2="0" stroke-linecap="round" y1="0"/>
     <line stroke="black" x1="122.4" stroke-width="0.576" y2="12.24" x2="122.4" stroke-linecap="round" y1="10.44"/>
     <line stroke="black" x1="129.6" stroke-width="0.576" y2="12.24" x2="129.6" stroke-linecap="round" y1="10.44"/>
     <line stroke="black" x1="129.6" stroke-width="0.576" y2="12.24" x2="122.4" stroke-linecap="round" y1="12.24"/>
     <path stroke="black" stroke-width="0.72" fill="none" d="M34.92,37.8A4.61027,4.61027,0,0,0,34.92,30.6"/>
     <path stroke="black" stroke-width="0.72" fill="none" d="M23.04,30.6A5.09131,5.09131,0,0,0,23.04,37.8"/>
     <line stroke="black" x1="34.92" stroke-width="0.72" y2="36" x2="34.92" stroke-linecap="round" y1="37.8"/>
     <line stroke="black" x1="34.92" stroke-width="0.72" y2="37.8" x2="36.72" stroke-linecap="round" y1="37.8"/>
     <line stroke="black" x1="23.04" stroke-width="0.72" y2="37.8" x2="23.04" stroke-linecap="round" y1="36"/>
     <line stroke="black" x1="23.04" stroke-width="0.72" y2="37.8" x2="21.24" stroke-linecap="round" y1="37.8"/>
     <line stroke="black" x1="21.6" stroke-width="0.72" y2="12.24" x2="21.6" stroke-linecap="round" y1="10.8"/>
     <line stroke="black" x1="21.6" stroke-width="0.72" y2="12.24" x2="43.2" stroke-linecap="round" y1="12.24"/>
     <line stroke="black" x1="43.2" stroke-width="0.72" y2="10.8" x2="43.2" stroke-linecap="round" y1="12.24"/>
     <g stroke-width="0">
      <title>element:C3</title>
      <g stroke-width="0">
       <title>package:PANASONIC_D</title>
       <line stroke="black" x1="123.307" stroke-width="0.288" y2="38.0126" x2="116.788" stroke-linecap="round" y1="38.0126"/>
       <line stroke="black" x1="116.788" stroke-width="0.288" y2="24.4063" x2="116.788" stroke-linecap="round" y1="38.0126"/>
       <line stroke="black" x1="116.788" stroke-width="0.288" y2="19.5874" x2="121.607" stroke-linecap="round" y1="24.4063"/>
       <line stroke="black" x1="121.607" stroke-width="0.288" y2="19.5874" x2="123.307" stroke-linecap="round" y1="19.5874"/>
       <line stroke="black" x1="128.693" stroke-width="0.288" y2="19.5874" x2="130.393" stroke-linecap="round" y1="19.5874"/>
       <line stroke="black" x1="130.393" stroke-width="0.288" y2="24.4063" x2="135.212" stroke-linecap="round" y1="19.5874"/>
       <line stroke="black" x1="135.212" stroke-width="0.288" y2="38.0126" x2="135.212" stroke-linecap="round" y1="24.4063"/>
       <line stroke="black" x1="135.212" stroke-width="0.288" y2="38.0126" x2="128.693" stroke-linecap="round" y1="38.0126"/>
       <path stroke="black" stroke-width="0.288" fill="none" d="M123.307,20.4378A8.78515,8.78515,0,0,0,123.307,37.1622"/>
       <path stroke="black" stroke-width="0.288" fill="none" d="M128.693,37.1622A8.78515,8.78515,0,0,0,128.693,20.4378"/>
      </g>
     </g>
     <g stroke-width="0">
      <title>element:IC1</title>
      <g stroke-width="0">
       <title>package:SO24W</title>
      </g>
     </g>
     <g stroke-width="0">
      <title>element:IC2</title>
      <g stroke-width="0">
       <title>package:SOT223</title>
       <line stroke="black" x1="20.088" stroke-width="0.576" y2="30.24" x2="20.088" stroke-linecap="round" y1="20.16"/>
       <line stroke="black" x1="20.088" stroke-width="0.576" y2="30.24" x2="1.512" stroke-linecap="round" y1="30.24"/>
       <line stroke="black" x1="1.512" stroke-width="0.576" y2="20.16" x2="1.512" stroke-linecap="round" y1="30.24"/>
       <line stroke="black" x1="1.512" stroke-width="0.576" y2="20.16" x2="20.088" stroke-linecap="round" y1="20.16"/>
      </g>
     </g>
     <g stroke-width="0">
      <title>element:JP3</title>
      <g stroke-width="0">
       <title>package:1X04_NO_SILK</title>
      </g>
     </g>
     <g stroke-width="0">
      <title>element:U$2</title>
      <g stroke-width="0">
       <title>package:SFE-NEW-WEBLOGO</title>
      </g>
     </g>
    </g>
   </g>
  </g>
  <g partID="57831">
   <g id="silkscreen">
    <rect y="0.288" width="195.17" stroke="black" stroke-width="0.576" fill="none" height="207.914" x="0.288"/>
   </g>
  </g>
  <g partID="59791">
   <g transform="translate(183.318,35.6891)">
    <g id="silkscreen">
     <line stroke="black" stroke-width="0.72" x1="1.44" y2="23.04" x2="1.44" y1="1.44"/>
     <line stroke="black" stroke-width="0.72" x1="1.44" y2="23.04" x2="8.64" y1="23.04"/>
     <line stroke="black" stroke-width="0.72" x1="8.64" y2="1.44" x2="8.64" y1="23.04"/>
     <line stroke="black" stroke-width="0.72" x1="8.64" y2="1.44" x2="1.44" y1="1.44"/>
     <line stroke="black" stroke-width="0.36" x1="1.44" y2="1.44" x2="3.96" y1="3.96"/>
     <!-- 120 -->
    </g>
   </g>
  </g>
  <g partID="58911">
   <g transform="translate(3.31845,28.4891)">
    <g id="silkscreen">
     <line stroke="black" stroke-width="0.72" x1="1.44" y2="30.24" x2="1.44" y1="1.44"/>
     <line stroke="black" stroke-width="0.72" x1="1.44" y2="30.24" x2="8.64" y1="30.24"/>
     <line stroke="black" stroke-width="0.72" x1="8.64" y2="1.44" x2="8.64" y1="30.24"/>
     <line stroke="black" stroke-width="0.72" x1="8.64" y2="1.44" x2="1.44" y1="1.44"/>
     <line stroke="black" stroke-width="0.36" x1="1.44" y2="1.44" x2="3.96" y1="3.96"/>
     <!-- 120 -->
    </g>
   </g>
  </g>
  <g partID="66211">
   <g transform="translate(147.374,13.4119)">
    <g transform="matrix(0,-1,1,0,0,0)">
     <g id="silkscreen">
      <line stroke="black" stroke-width="0.72" x1="1.44" y2="15.84" x2="1.44" y1="1.44"/>
      <line stroke="black" stroke-width="0.72" x1="1.44" y2="15.84" x2="8.64" y1="15.84"/>
      <line stroke="black" stroke-width="0.72" x1="8.64" y2="1.44" x2="8.64" y1="15.84"/>
      <line stroke="black" stroke-width="0.72" x1="8.64" y2="1.44" x2="1.44" y1="1.44"/>
      <line stroke="black" stroke-width="0.36" x1="1.44" y2="1.44" x2="3.96" y1="3.96"/>
      <!-- 120 -->
     </g>
    </g>
   </g>
  </g>
  <g partID="66181">
   <g transform="translate(125.774,13.4119)">
    <g transform="matrix(0,-1,1,0,0,0)">
     <g id="silkscreen">
      <line stroke="black" stroke-width="0.72" x1="1.44" y2="15.84" x2="1.44" y1="1.44"/>
      <line stroke="black" stroke-width="0.72" x1="1.44" y2="15.84" x2="8.64" y1="15.84"/>
      <line stroke="black" stroke-width="0.72" x1="8.64" y2="1.44" x2="8.64" y1="15.84"/>
      <line stroke="black" stroke-width="0.72" x1="8.64" y2="1.44" x2="1.44" y1="1.44"/>
      <line stroke="black" stroke-width="0.36" x1="1.44" y2="1.44" x2="3.96" y1="3.96"/>
      <!-- 120 -->
     </g>
    </g>
   </g>
  </g>
  <g partID="92051">
   <g transform="translate(154.862,28.8199)">
    <g id="silkscreen">
     <line stroke="black" x1="4.752" stroke-width="1.512" y2="7.452" x2="4.752" stroke-linecap="round" y1="34.452"/>
    </g>
   </g>
  </g>
  <g partID="92251">
   <g transform="translate(129.662,28.8199)">
    <g id="silkscreen">
     <line stroke="black" x1="4.752" stroke-width="1.512" y2="7.452" x2="4.752" stroke-linecap="round" y1="16.452"/>
    </g>
   </g>
  </g>
  <g partID="93241">
   <g transform="translate(19.2141,76.7719)">
    <g stroke-width="0" id="silkscreen">
     <path stroke="black" stroke-width="0.576" fill="none" d="M0.288,0.288l136.224,0,0,57.024,-136.224,0,0,-57.024zM107.208,18a4.392,4.392,0,1,0,8.784,0,4.392,4.392,0,1,0,-8.784,0zM38.808,28.8a4.392,4.392,0,1,0,8.784,0,4.392,4.392,0,1,0,-8.784,0z"/>
     <line stroke="black" x1="0" stroke-width="0.72" y2="57.6" x2="136.8" stroke-linecap="round" y1="57.6"/>
     <line stroke="black" x1="136.8" stroke-width="0.72" y2="0" x2="136.8" stroke-linecap="round" y1="57.6"/>
     <line stroke="black" x1="0" stroke-width="0.72" y2="57.6" x2="0" stroke-linecap="round" y1="0"/>
     <line stroke="black" x1="21.6" stroke-width="0.576" y2="2.16" x2="23.4" stroke-linecap="round" y1="2.16"/>
     <line stroke="black" x1="21.6" stroke-width="0.576" y2="3.96" x2="21.6" stroke-linecap="round" y1="2.16"/>
     <line stroke="black" x1="28.8" stroke-width="0.576" y2="2.16" x2="27" stroke-linecap="round" y1="2.16"/>
     <line stroke="black" x1="28.8" stroke-width="0.576" y2="3.96" x2="28.8" stroke-linecap="round" y1="2.16"/>
     <line stroke="black" x1="37.8" stroke-width="0.576" y2="2.16" x2="36" stroke-linecap="round" y1="2.16"/>
     <line stroke="black" x1="36" stroke-width="0.576" y2="3.96" x2="36" stroke-linecap="round" y1="2.16"/>
     <line stroke="black" x1="43.2" stroke-width="0.576" y2="2.16" x2="41.4" stroke-linecap="round" y1="2.16"/>
     <line stroke="black" x1="43.2" stroke-width="0.576" y2="3.96" x2="43.2" stroke-linecap="round" y1="2.16"/>
     <line stroke="black" x1="136.8" stroke-width="0.72" y2="0" x2="0" stroke-linecap="round" y1="0"/>
     <line stroke="black" x1="122.4" stroke-width="0.576" y2="12.24" x2="122.4" stroke-linecap="round" y1="10.44"/>
     <line stroke="black" x1="129.6" stroke-width="0.576" y2="12.24" x2="129.6" stroke-linecap="round" y1="10.44"/>
     <line stroke="black" x1="129.6" stroke-width="0.576" y2="12.24" x2="122.4" stroke-linecap="round" y1="12.24"/>
     <path stroke="black" stroke-width="0.72" fill="none" d="M34.92,37.8A4.61027,4.61027,0,0,0,34.92,30.6"/>
     <path stroke="black" stroke-width="0.72" fill="none" d="M23.04,30.6A5.09131,5.09131,0,0,0,23.04,37.8"/>
     <line stroke="black" x1="34.92" stroke-width="0.72" y2="36" x2="34.92" stroke-linecap="round" y1="37.8"/>
     <line stroke="black" x1="34.92" stroke-width="0.72" y2="37.8" x2="36.72" stroke-linecap="round" y1="37.8"/>
     <line stroke="black" x1="23.04" stroke-width="0.72" y2="37.8" x2="23.04" stroke-linecap="round" y1="36"/>
     <line stroke="black" x1="23.04" stroke-width="0.72" y2="37.8" x2="21.24" stroke-linecap="round" y1="37.8"/>
     <line stroke="black" x1="21.6" stroke-width="0.72" y2="12.24" x2="21.6" stroke-linecap="round" y1="10.8"/>
     <line stroke="black" x1="21.6" stroke-width="0.72" y2="12.24" x2="43.2" stroke-linecap="round" y1="12.24"/>
     <line stroke="black" x1="43.2" stroke-width="0.72" y2="10.8" x2="43.2" stroke-linecap="round" y1="12.24"/>
     <g stroke-width="0">
      <title>element:C3</title>
      <g stroke-width="0">
       <title>package:PANASONIC_D</title>
       <line stroke="black" x1="123.307" stroke-width="0.288" y2="38.0126" x2="116.788" stroke-linecap="round" y1="38.0126"/>
       <line stroke="black" x1="116.788" stroke-width="0.288" y2="24.4063" x2="116.788" stroke-linecap="round" y1="38.0126"/>
       <line stroke="black" x1="116.788" stroke-width="0.288" y2="19.5874" x2="121.607" stroke-linecap="round" y1="24.4063"/>
       <line stroke="black" x1="121.607" stroke-width="0.288" y2="19.5874" x2="123.307" stroke-linecap="round" y1="19.5874"/>
       <line stroke="black" x1="128.693" stroke-width="0.288" y2="19.5874" x2="130.393" stroke-linecap="round" y1="19.5874"/>
       <line stroke="black" x1="130.393" stroke-width="0.288" y2="24.4063" x2="135.212" stroke-linecap="round" y1="19.5874"/>
       <line stroke="black" x1="135.212" stroke-width="0.288" y2="38.0126" x2="135.212" stroke-linecap="round" y1="24.4063"/>
       <line stroke="black" x1="135.212" stroke-width="0.288" y2="38.0126" x2="128.693" stroke-linecap="round" y1="38.0126"/>
       <path stroke="black" stroke-width="0.288" fill="none" d="M123.307,20.4378A8.78515,8.78515,0,0,0,123.307,37.1622"/>
       <path stroke="black" stroke-width="0.288" fill="none" d="M128.693,37.1622A8.78515,8.78515,0,0,0,128.693,20.4378"/>
      </g>
     </g>
     <g stroke-width="0">
      <title>element:IC1</title>
      <g stroke-width="0">
       <title>package:SO24W</title>
      </g>
     </g>
     <g stroke-width="0">
      <title>element:IC2</title>
      <g stroke-width="0">
       <title>package:SOT223</title>
       <line stroke="black" x1="20.088" stroke-width="0.576" y2="30.24" x2="20.088" stroke-linecap="round" y1="20.16"/>
       <line stroke="black" x1="20.088" stroke-width="0.576" y2="30.24" x2="1.512" stroke-linecap="round" y1="30.24"/>
       <line stroke="black" x1="1.512" stroke-width="0.576" y2="20.16" x2="1.512" stroke-linecap="round" y1="30.24"/>
       <line stroke="black" x1="1.512" stroke-width="0.576" y2="20.16" x2="20.088" stroke-linecap="round" y1="20.16"/>
      </g>
     </g>
     <g stroke-width="0">
      <title>element:JP3</title>
      <g stroke-width="0">
       <title>package:1X04_NO_SILK</title>
      </g>
     </g>
     <g stroke-width="0">
      <title>element:U$2</title>
      <g stroke-width="0">
       <title>package:SFE-NEW-WEBLOGO</title>
      </g>
     </g>
    </g>
   </g>
  </g>
  <g partID="93251">
   <g transform="translate(183.318,96.8891)">
    <g id="silkscreen">
     <line stroke="black" stroke-width="0.72" x1="1.44" y2="23.04" x2="1.44" y1="1.44"/>
     <line stroke="black" stroke-width="0.72" x1="1.44" y2="23.04" x2="8.64" y1="23.04"/>
     <line stroke="black" stroke-width="0.72" x1="8.64" y2="1.44" x2="8.64" y1="23.04"/>
     <line stroke="black" stroke-width="0.72" x1="8.64" y2="1.44" x2="1.44" y1="1.44"/>
     <line stroke="black" stroke-width="0.36" x1="1.44" y2="1.44" x2="3.96" y1="3.96"/>
     <!-- 120 -->
    </g>
   </g>
  </g>
  <g partID="93261">
   <g transform="translate(3.31845,89.6891)">
    <g id="silkscreen">
     <line stroke="black" stroke-width="0.72" x1="1.44" y2="30.24" x2="1.44" y1="1.44"/>
     <line stroke="black" stroke-width="0.72" x1="1.44" y2="30.24" x2="8.64" y1="30.24"/>
     <line stroke="black" stroke-width="0.72" x1="8.64" y2="1.44" x2="8.64" y1="30.24"/>
     <line stroke="black" stroke-width="0.72" x1="8.64" y2="1.44" x2="1.44" y1="1.44"/>
     <line stroke="black" stroke-width="0.36" x1="1.44" y2="1.44" x2="3.96" y1="3.96"/>
     <!-- 120 -->
    </g>
   </g>
  </g>
  <g partID="93291">
   <g transform="translate(154.862,90.0199)">
    <g id="silkscreen">
     <line stroke="black" x1="4.752" stroke-width="1.512" y2="7.452" x2="4.752" stroke-linecap="round" y1="34.452"/>
    </g>
   </g>
  </g>
  <g partID="93301">
   <g transform="translate(129.662,90.0199)">
    <g id="silkscreen">
     <line stroke="black" x1="4.752" stroke-width="1.512" y2="7.452" x2="4.752" stroke-linecap="round" y1="16.452"/>
    </g>
   </g>
  </g>
  <g partID="94981">
   <g transform="translate(19.2698,138.015)">
    <g stroke-width="0" id="silkscreen">
     <path stroke="black" stroke-width="0.576" fill="none" d="M0.288,0.288l136.224,0,0,57.024,-136.224,0,0,-57.024zM107.208,18a4.392,4.392,0,1,0,8.784,0,4.392,4.392,0,1,0,-8.784,0zM38.808,28.8a4.392,4.392,0,1,0,8.784,0,4.392,4.392,0,1,0,-8.784,0z"/>
     <line stroke="black" x1="0" stroke-width="0.72" y2="57.6" x2="136.8" stroke-linecap="round" y1="57.6"/>
     <line stroke="black" x1="136.8" stroke-width="0.72" y2="0" x2="136.8" stroke-linecap="round" y1="57.6"/>
     <line stroke="black" x1="0" stroke-width="0.72" y2="57.6" x2="0" stroke-linecap="round" y1="0"/>
     <line stroke="black" x1="21.6" stroke-width="0.576" y2="2.16" x2="23.4" stroke-linecap="round" y1="2.16"/>
     <line stroke="black" x1="21.6" stroke-width="0.576" y2="3.96" x2="21.6" stroke-linecap="round" y1="2.16"/>
     <line stroke="black" x1="28.8" stroke-width="0.576" y2="2.16" x2="27" stroke-linecap="round" y1="2.16"/>
     <line stroke="black" x1="28.8" stroke-width="0.576" y2="3.96" x2="28.8" stroke-linecap="round" y1="2.16"/>
     <line stroke="black" x1="37.8" stroke-width="0.576" y2="2.16" x2="36" stroke-linecap="round" y1="2.16"/>
     <line stroke="black" x1="36" stroke-width="0.576" y2="3.96" x2="36" stroke-linecap="round" y1="2.16"/>
     <line stroke="black" x1="43.2" stroke-width="0.576" y2="2.16" x2="41.4" stroke-linecap="round" y1="2.16"/>
     <line stroke="black" x1="43.2" stroke-width="0.576" y2="3.96" x2="43.2" stroke-linecap="round" y1="2.16"/>
     <line stroke="black" x1="136.8" stroke-width="0.72" y2="0" x2="0" stroke-linecap="round" y1="0"/>
     <line stroke="black" x1="122.4" stroke-width="0.576" y2="12.24" x2="122.4" stroke-linecap="round" y1="10.44"/>
     <line stroke="black" x1="129.6" stroke-width="0.576" y2="12.24" x2="129.6" stroke-linecap="round" y1="10.44"/>
     <line stroke="black" x1="129.6" stroke-width="0.576" y2="12.24" x2="122.4" stroke-linecap="round" y1="12.24"/>
     <path stroke="black" stroke-width="0.72" fill="none" d="M34.92,37.8A4.61027,4.61027,0,0,0,34.92,30.6"/>
     <path stroke="black" stroke-width="0.72" fill="none" d="M23.04,30.6A5.09131,5.09131,0,0,0,23.04,37.8"/>
     <line stroke="black" x1="34.92" stroke-width="0.72" y2="36" x2="34.92" stroke-linecap="round" y1="37.8"/>
     <line stroke="black" x1="34.92" stroke-width="0.72" y2="37.8" x2="36.72" stroke-linecap="round" y1="37.8"/>
     <line stroke="black" x1="23.04" stroke-width="0.72" y2="37.8" x2="23.04" stroke-linecap="round" y1="36"/>
     <line stroke="black" x1="23.04" stroke-width="0.72" y2="37.8" x2="21.24" stroke-linecap="round" y1="37.8"/>
     <line stroke="black" x1="21.6" stroke-width="0.72" y2="12.24" x2="21.6" stroke-linecap="round" y1="10.8"/>
     <line stroke="black" x1="21.6" stroke-width="0.72" y2="12.24" x2="43.2" stroke-linecap="round" y1="12.24"/>
     <line stroke="black" x1="43.2" stroke-width="0.72" y2="10.8" x2="43.2" stroke-linecap="round" y1="12.24"/>
     <g stroke-width="0">
      <title>element:C3</title>
      <g stroke-width="0">
       <title>package:PANASONIC_D</title>
       <line stroke="black" x1="123.307" stroke-width="0.288" y2="38.0126" x2="116.788" stroke-linecap="round" y1="38.0126"/>
       <line stroke="black" x1="116.788" stroke-width="0.288" y2="24.4063" x2="116.788" stroke-linecap="round" y1="38.0126"/>
       <line stroke="black" x1="116.788" stroke-width="0.288" y2="19.5874" x2="121.607" stroke-linecap="round" y1="24.4063"/>
       <line stroke="black" x1="121.607" stroke-width="0.288" y2="19.5874" x2="123.307" stroke-linecap="round" y1="19.5874"/>
       <line stroke="black" x1="128.693" stroke-width="0.288" y2="19.5874" x2="130.393" stroke-linecap="round" y1="19.5874"/>
       <line stroke="black" x1="130.393" stroke-width="0.288" y2="24.4063" x2="135.212" stroke-linecap="round" y1="19.5874"/>
       <line stroke="black" x1="135.212" stroke-width="0.288" y2="38.0126" x2="135.212" stroke-linecap="round" y1="24.4063"/>
       <line stroke="black" x1="135.212" stroke-width="0.288" y2="38.0126" x2="128.693" stroke-linecap="round" y1="38.0126"/>
       <path stroke="black" stroke-width="0.288" fill="none" d="M123.307,20.4378A8.78515,8.78515,0,0,0,123.307,37.1622"/>
       <path stroke="black" stroke-width="0.288" fill="none" d="M128.693,37.1622A8.78515,8.78515,0,0,0,128.693,20.4378"/>
      </g>
     </g>
     <g stroke-width="0">
      <title>element:IC1</title>
      <g stroke-width="0">
       <title>package:SO24W</title>
      </g>
     </g>
     <g stroke-width="0">
      <title>element:IC2</title>
      <g stroke-width="0">
       <title>package:SOT223</title>
       <line stroke="black" x1="20.088" stroke-width="0.576" y2="30.24" x2="20.088" stroke-linecap="round" y1="20.16"/>
       <line stroke="black" x1="20.088" stroke-width="0.576" y2="30.24" x2="1.512" stroke-linecap="round" y1="30.24"/>
       <line stroke="black" x1="1.512" stroke-width="0.576" y2="20.16" x2="1.512" stroke-linecap="round" y1="30.24"/>
       <line stroke="black" x1="1.512" stroke-width="0.576" y2="20.16" x2="20.088" stroke-linecap="round" y1="20.16"/>
      </g>
     </g>
     <g stroke-width="0">
      <title>element:JP3</title>
      <g stroke-width="0">
       <title>package:1X04_NO_SILK</title>
      </g>
     </g>
     <g stroke-width="0">
      <title>element:U$2</title>
      <g stroke-width="0">
       <title>package:SFE-NEW-WEBLOGO</title>
      </g>
     </g>
    </g>
   </g>
  </g>
  <g partID="94991">
   <g transform="translate(183.374,158.132)">
    <g id="silkscreen">
     <line stroke="black" stroke-width="0.72" x1="1.44" y2="23.04" x2="1.44" y1="1.44"/>
     <line stroke="black" stroke-width="0.72" x1="1.44" y2="23.04" x2="8.64" y1="23.04"/>
     <line stroke="black" stroke-width="0.72" x1="8.64" y2="1.44" x2="8.64" y1="23.04"/>
     <line stroke="black" stroke-width="0.72" x1="8.64" y2="1.44" x2="1.44" y1="1.44"/>
     <line stroke="black" stroke-width="0.36" x1="1.44" y2="1.44" x2="3.96" y1="3.96"/>
     <!-- 120 -->
    </g>
   </g>
  </g>
  <g partID="95001">
   <g transform="translate(3.37413,150.932)">
    <g id="silkscreen">
     <line stroke="black" stroke-width="0.72" x1="1.44" y2="30.24" x2="1.44" y1="1.44"/>
     <line stroke="black" stroke-width="0.72" x1="1.44" y2="30.24" x2="8.64" y1="30.24"/>
     <line stroke="black" stroke-width="0.72" x1="8.64" y2="1.44" x2="8.64" y1="30.24"/>
     <line stroke="black" stroke-width="0.72" x1="8.64" y2="1.44" x2="1.44" y1="1.44"/>
     <line stroke="black" stroke-width="0.36" x1="1.44" y2="1.44" x2="3.96" y1="3.96"/>
     <!-- 120 -->
    </g>
   </g>
  </g>
  <g partID="97511">
   <g transform="translate(183.374,132.932)">
    <g id="silkscreen">
     <line stroke="black" stroke-width="0.72" x1="1.44" y2="15.84" x2="1.44" y1="1.44"/>
     <line stroke="black" stroke-width="0.72" x1="1.44" y2="15.84" x2="8.64" y1="15.84"/>
     <line stroke="black" stroke-width="0.72" x1="8.64" y2="1.44" x2="8.64" y1="15.84"/>
     <line stroke="black" stroke-width="0.72" x1="8.64" y2="1.44" x2="1.44" y1="1.44"/>
     <line stroke="black" stroke-width="0.36" x1="1.44" y2="1.44" x2="3.96" y1="3.96"/>
     <!-- 120 -->
    </g>
   </g>
  </g>
  <g partID="58910" id="partLabel">
   <g transform="translate(-32.9323,2.97313)">
    <g font-size="5" stroke="none" font-weight="normal" font-family="'OCRA'" fill="#000000" id="silkscreenLabel" font-style="normal" fill-opacity="1">
     <text y="3.75" x="0">J1</text>
    </g>
   </g>
  </g>
  <g partID="94990" id="partLabel">
   <g transform="translate(277.311,144.775)">
    <g font-size="5" stroke="none" font-weight="normal" font-family="'OCRA'" fill="#000000" id="silkscreenLabel" font-style="normal" fill-opacity="1">
     <text y="3.75" x="0">J13</text>
    </g>
   </g>
  </g>
  <g partID="95000" id="partLabel">
   <g transform="translate(-32.8766,125.416)">
    <g font-size="5" stroke="none" font-weight="normal" font-family="'OCRA'" fill="#000000" id="silkscreenLabel" font-style="normal" fill-opacity="1">
     <text y="3.75" x="0">J14</text>
    </g>
   </g>
  </g>
  <g partID="93250" id="partLabel">
   <g transform="translate(277.255,83.5323)">
    <g font-size="5" stroke="none" font-weight="normal" font-family="'OCRA'" fill="#000000" id="silkscreenLabel" font-style="normal" fill-opacity="1">
     <text y="3.75" x="0">J11</text>
    </g>
   </g>
  </g>
  <g partID="94980" id="partLabel">
   <g transform="translate(255.23,127.803)">
    <g font-size="5" stroke="none" font-weight="normal" font-family="'OCRA'" fill="#000000" id="silkscreenLabel" font-style="normal" fill-opacity="1">
     <text y="3.75" x="0">Part3</text>
    </g>
   </g>
  </g>
  <g partID="93240" id="partLabel">
   <g transform="translate(255.174,66.5599)">
    <g font-size="5" stroke="none" font-weight="normal" font-family="'OCRA'" fill="#000000" id="silkscreenLabel" font-style="normal" fill-opacity="1">
     <text y="3.75" x="0">Part2</text>
    </g>
   </g>
  </g>
  <g partID="59790" id="partLabel">
   <g transform="translate(277.255,22.3323)">
    <g font-size="5" stroke="none" font-weight="normal" font-family="'OCRA'" fill="#000000" id="silkscreenLabel" font-style="normal" fill-opacity="1">
     <text y="3.75" x="0">J2</text>
    </g>
   </g>
  </g>
  <g partID="93260" id="partLabel">
   <g transform="translate(-32.9323,64.1731)">
    <g font-size="5" stroke="none" font-weight="normal" font-family="'OCRA'" fill="#000000" id="silkscreenLabel" font-style="normal" fill-opacity="1">
     <text y="3.75" x="0">J12</text>
    </g>
   </g>
  </g>
  <g partID="58850" id="partLabel">
   <g transform="translate(255.174,5.35985)">
    <g font-size="5" stroke="none" font-weight="normal" font-family="'OCRA'" fill="#000000" id="silkscreenLabel" font-style="normal" fill-opacity="1">
     <text y="3.75" x="0">Part1</text>
    </g>
   </g>
  </g>
  <g partID="66210" id="partLabel">
   <g transform="translate(300.671,-46.5991)">
    <g transform="matrix(0,-1,1,0,0,0)">
     <g font-size="5" stroke="none" font-weight="normal" font-family="'OCRA'" fill="#000000" id="silkscreenLabel" font-style="normal" fill-opacity="1">
      <text y="3.75" x="0">J10</text>
     </g>
    </g>
   </g>
  </g>
  <g partID="66180" id="partLabel">
   <g transform="translate(279.071,-46.5991)">
    <g transform="matrix(0,-1,1,0,0,0)">
     <g font-size="5" stroke="none" font-weight="normal" font-family="'OCRA'" fill="#000000" id="silkscreenLabel" font-style="normal" fill-opacity="1">
      <text y="3.75" x="0">J9</text>
     </g>
    </g>
   </g>
  </g>
  <g partID="93300" id="partLabel">
   <g transform="translate(426.974,74.9645)">
    <g font-size="5" stroke="none" font-weight="normal" font-family="'OCRA'" fill="#000000" id="silkscreenLabel" font-style="normal" fill-opacity="1">
     <text y="3.75" x="0">Jumper4</text>
    </g>
   </g>
  </g>
  <g partID="93290" id="partLabel">
   <g transform="translate(361.62,58.2355)">
    <g font-size="5" stroke="none" font-weight="normal" font-family="'OCRA'" fill="#000000" id="silkscreenLabel" font-style="normal" fill-opacity="1">
     <text y="3.75" x="0">Jumper3</text>
    </g>
   </g>
  </g>
  <g partID="92250" id="partLabel">
   <g transform="translate(426.974,13.7645)">
    <g font-size="5" stroke="none" font-weight="normal" font-family="'OCRA'" fill="#000000" id="silkscreenLabel" font-style="normal" fill-opacity="1">
     <text y="3.75" x="0">Jumper2</text>
    </g>
   </g>
  </g>
  <g partID="92050" id="partLabel">
   <g transform="translate(361.62,-2.96445)">
    <g font-size="5" stroke="none" font-weight="normal" font-family="'OCRA'" fill="#000000" id="silkscreenLabel" font-style="normal" fill-opacity="1">
     <text y="3.75" x="0">Jumper1</text>
    </g>
   </g>
  </g>
  <g partID="97510" id="partLabel">
   <g transform="translate(270.521,100.399)">
    <g font-size="5" stroke="none" font-weight="normal" font-family="'OCRA'" fill="#000000" id="silkscreenLabel" font-style="normal" fill-opacity="1">
     <text y="3.75" x="0">J15</text>
    </g>
   </g>
  </g>
  <g partID="58852">
   <g transform="translate(19.2141,15.5719)">
    <g stroke-width="0" id="copper1">
     <g stroke-width="0" id="copper0">
      <circle cx="64.8" stroke="white" stroke-width="1.944" fill="white" id="connector49pad" cy="50.4" connectorname="MS1" r="2.052"/>
      <circle cx="57.6" stroke="white" stroke-width="1.944" fill="white" id="connector53pad" cy="7.2" connectorname="PFD" r="2.052"/>
      <circle cx="93.6" stroke="white" stroke-width="1.944" fill="white" id="connector51pad" cy="7.2" connectorname="ENABLE" r="2.052"/>
      <circle cx="57.6" stroke="white" stroke-width="1.944" fill="white" id="connector50pad" cy="50.4" connectorname="SLEEP" r="2.052"/>
      <circle cx="100.8" stroke="white" stroke-width="1.944" fill="white" id="connector52pad" cy="7.2" connectorname="MS2" r="2.052"/>
      <circle cx="64.8" stroke="white" stroke-width="1.944" fill="white" id="connector54pad" cy="7.2" connectorname="RESET" r="2.052"/>
      <circle cx="122.4" stroke="white" stroke-width="1.944" fill="white" id="connector38pad" cy="7.2" connectorname="GND" r="2.052"/>
      <circle cx="129.6" stroke="white" stroke-width="1.944" fill="white" id="connector39pad" cy="7.2" connectorname="V+" r="2.052"/>
      <circle cx="115.2" stroke="white" stroke-width="1.944" fill="white" id="connector40pad" cy="50.4" connectorname="GND" r="2.052"/>
      <circle cx="122.4" stroke="white" stroke-width="1.944" fill="white" id="connector41pad" cy="50.4" connectorname="STEP" r="2.052"/>
      <circle cx="129.6" stroke="white" stroke-width="1.944" fill="white" id="connector42pad" cy="50.4" connectorname="DIR" r="2.052"/>
      <circle cx="21.6" stroke="white" stroke-width="1.944" fill="white" id="connector43pad" cy="7.2" connectorname="OUT2A" r="2.052"/>
      <rect y="5.148" width="4.104" stroke="white" stroke-width="1.944" fill="white" height="4.104" x="19.548"/>
      <circle cx="28.8" stroke="white" stroke-width="1.944" fill="white" id="connector44pad" cy="7.2" connectorname="OUT2B" r="2.052"/>
      <circle cx="36" stroke="white" stroke-width="1.944" fill="white" id="connector45pad" cy="7.2" connectorname="OUT1A" r="2.052"/>
      <circle cx="43.2" stroke="white" stroke-width="1.944" fill="white" id="connector46pad" cy="7.2" connectorname="OUT1B" r="2.052"/>
      <circle cx="28.8" stroke="white" stroke-width="1.944" fill="white" id="connector47pad" cy="50.4" connectorname="VCC" r="2.052"/>
      <circle cx="21.6" stroke="white" stroke-width="1.944" fill="white" id="connector48pad" cy="50.4" connectorname="GND" r="2.052"/>
     </g>
    </g>
   </g>
  </g>
  <g partID="59792">
   <g transform="translate(183.318,35.6891)">
    <g id="copper1">
     <g id="copper0">
      <circle cx="5.04" stroke="white" stroke-width="2.16" fill="white" id="connector0pin" cy="5.04" r="2.088"/>
      <circle cx="5.04" stroke="white" stroke-width="2.16" fill="white" id="connector1pin" cy="12.24" r="2.088"/>
      <circle cx="5.04" stroke="white" stroke-width="2.16" fill="white" id="connector2pin" cy="19.44" r="2.088"/>
     </g>
    </g>
   </g>
  </g>
  <g partID="58912">
   <g transform="translate(3.31845,28.4891)">
    <g id="copper1">
     <g id="copper0">
      <circle cx="5.04" stroke="white" stroke-width="2.16" fill="white" id="connector0pin" cy="5.04" r="2.088"/>
      <circle cx="5.04" stroke="white" stroke-width="2.16" fill="white" id="connector1pin" cy="12.24" r="2.088"/>
      <circle cx="5.04" stroke="white" stroke-width="2.16" fill="white" id="connector2pin" cy="19.44" r="2.088"/>
      <circle cx="5.04" stroke="white" stroke-width="2.16" fill="white" id="connector3pin" cy="26.64" r="2.088"/>
     </g>
    </g>
   </g>
  </g>
  <g partID="66212">
   <g transform="translate(147.374,13.4119)">
    <g transform="matrix(0,-1,1,0,0,0)">
     <g id="copper1">
      <g id="copper0">
       <circle cx="5.04" stroke="white" stroke-width="2.16" fill="white" id="connector0pin" cy="5.04" r="2.088"/>
       <circle cx="5.04" stroke="white" stroke-width="2.16" fill="white" id="connector1pin" cy="12.24" r="2.088"/>
      </g>
     </g>
    </g>
   </g>
  </g>
  <g partID="66182">
   <g transform="translate(125.774,13.4119)">
    <g transform="matrix(0,-1,1,0,0,0)">
     <g id="copper1">
      <g id="copper0">
       <circle cx="5.04" stroke="white" stroke-width="2.16" fill="white" id="connector0pin" cy="5.04" r="2.088"/>
       <circle cx="5.04" stroke="white" stroke-width="2.16" fill="white" id="connector1pin" cy="12.24" r="2.088"/>
      </g>
     </g>
    </g>
   </g>
  </g>
  <g partID="70871">
   <g transform="translate(4.07869,193.036)">
    <g id="copper1">
     <circle cx="6.13543" stroke="white" stroke-width="0.72" fill="white" id="nonconn0" cy="6.13543" r="4.53543"/>
    </g>
   </g>
  </g>
  <g partID="70851">
   <g transform="translate(4.07869,4.03649)">
    <g id="copper1">
     <circle cx="6.13543" stroke="white" stroke-width="0.72" fill="white" id="nonconn0" cy="6.13543" r="4.53543"/>
    </g>
   </g>
  </g>
  <g partID="92053">
   <g transform="translate(154.862,28.8199)">
    <g id="copper1">
     <circle cx="4.752" stroke="white" stroke-width="2.16" fill="white" id="connector0pad" cy="37.152" r="1.98"/>
     <circle cx="4.752" stroke="white" stroke-width="2.16" fill="white" id="connector1pad" cy="4.752" r="1.98"/>
    </g>
   </g>
  </g>
  <g partID="92253">
   <g transform="translate(129.662,28.8199)">
    <g id="copper1">
     <circle cx="4.752" stroke="white" stroke-width="2.16" fill="white" id="connector0pad" cy="19.152" r="1.98"/>
     <circle cx="4.752" stroke="white" stroke-width="2.16" fill="white" id="connector1pad" cy="4.752" r="1.98"/>
    </g>
   </g>
  </g>
  <g partID="93242">
   <g transform="translate(19.2141,76.7719)">
    <g stroke-width="0" id="copper1">
     <g stroke-width="0" id="copper0">
      <circle cx="64.8" stroke="white" stroke-width="1.944" fill="white" id="connector49pad" cy="50.4" connectorname="MS1" r="2.052"/>
      <circle cx="57.6" stroke="white" stroke-width="1.944" fill="white" id="connector53pad" cy="7.2" connectorname="PFD" r="2.052"/>
      <circle cx="93.6" stroke="white" stroke-width="1.944" fill="white" id="connector51pad" cy="7.2" connectorname="ENABLE" r="2.052"/>
      <circle cx="57.6" stroke="white" stroke-width="1.944" fill="white" id="connector50pad" cy="50.4" connectorname="SLEEP" r="2.052"/>
      <circle cx="100.8" stroke="white" stroke-width="1.944" fill="white" id="connector52pad" cy="7.2" connectorname="MS2" r="2.052"/>
      <circle cx="64.8" stroke="white" stroke-width="1.944" fill="white" id="connector54pad" cy="7.2" connectorname="RESET" r="2.052"/>
      <circle cx="122.4" stroke="white" stroke-width="1.944" fill="white" id="connector38pad" cy="7.2" connectorname="GND" r="2.052"/>
      <circle cx="129.6" stroke="white" stroke-width="1.944" fill="white" id="connector39pad" cy="7.2" connectorname="V+" r="2.052"/>
      <circle cx="115.2" stroke="white" stroke-width="1.944" fill="white" id="connector40pad" cy="50.4" connectorname="GND" r="2.052"/>
      <circle cx="122.4" stroke="white" stroke-width="1.944" fill="white" id="connector41pad" cy="50.4" connectorname="STEP" r="2.052"/>
      <circle cx="129.6" stroke="white" stroke-width="1.944" fill="white" id="connector42pad" cy="50.4" connectorname="DIR" r="2.052"/>
      <circle cx="21.6" stroke="white" stroke-width="1.944" fill="white" id="connector43pad" cy="7.2" connectorname="OUT2A" r="2.052"/>
      <rect y="5.148" width="4.104" stroke="white" stroke-width="1.944" fill="white" height="4.104" x="19.548"/>
      <circle cx="28.8" stroke="white" stroke-width="1.944" fill="white" id="connector44pad" cy="7.2" connectorname="OUT2B" r="2.052"/>
      <circle cx="36" stroke="white" stroke-width="1.944" fill="white" id="connector45pad" cy="7.2" connectorname="OUT1A" r="2.052"/>
      <circle cx="43.2" stroke="white" stroke-width="1.944" fill="white" id="connector46pad" cy="7.2" connectorname="OUT1B" r="2.052"/>
      <circle cx="28.8" stroke="white" stroke-width="1.944" fill="white" id="connector47pad" cy="50.4" connectorname="VCC" r="2.052"/>
      <circle cx="21.6" stroke="white" stroke-width="1.944" fill="white" id="connector48pad" cy="50.4" connectorname="GND" r="2.052"/>
     </g>
    </g>
   </g>
  </g>
  <g partID="93252">
   <g transform="translate(183.318,96.8891)">
    <g id="copper1">
     <g id="copper0">
      <circle cx="5.04" stroke="white" stroke-width="2.16" fill="white" id="connector0pin" cy="5.04" r="2.088"/>
      <circle cx="5.04" stroke="white" stroke-width="2.16" fill="white" id="connector1pin" cy="12.24" r="2.088"/>
      <circle cx="5.04" stroke="white" stroke-width="2.16" fill="white" id="connector2pin" cy="19.44" r="2.088"/>
     </g>
    </g>
   </g>
  </g>
  <g partID="93262">
   <g transform="translate(3.31845,89.6891)">
    <g id="copper1">
     <g id="copper0">
      <circle cx="5.04" stroke="white" stroke-width="2.16" fill="white" id="connector0pin" cy="5.04" r="2.088"/>
      <circle cx="5.04" stroke="white" stroke-width="2.16" fill="white" id="connector1pin" cy="12.24" r="2.088"/>
      <circle cx="5.04" stroke="white" stroke-width="2.16" fill="white" id="connector2pin" cy="19.44" r="2.088"/>
      <circle cx="5.04" stroke="white" stroke-width="2.16" fill="white" id="connector3pin" cy="26.64" r="2.088"/>
     </g>
    </g>
   </g>
  </g>
  <g partID="93293">
   <g transform="translate(154.862,90.0199)">
    <g id="copper1">
     <circle cx="4.752" stroke="white" stroke-width="2.16" fill="white" id="connector0pad" cy="37.152" r="1.98"/>
     <circle cx="4.752" stroke="white" stroke-width="2.16" fill="white" id="connector1pad" cy="4.752" r="1.98"/>
    </g>
   </g>
  </g>
  <g partID="93303">
   <g transform="translate(129.662,90.0199)">
    <g id="copper1">
     <circle cx="4.752" stroke="white" stroke-width="2.16" fill="white" id="connector0pad" cy="19.152" r="1.98"/>
     <circle cx="4.752" stroke="white" stroke-width="2.16" fill="white" id="connector1pad" cy="4.752" r="1.98"/>
    </g>
   </g>
  </g>
  <g partID="94982">
   <g transform="translate(19.2698,138.015)">
    <g stroke-width="0" id="copper1">
     <g stroke-width="0" id="copper0">
      <circle cx="64.8" stroke="white" stroke-width="1.944" fill="white" id="connector49pad" cy="50.4" connectorname="MS1" r="2.052"/>
      <circle cx="57.6" stroke="white" stroke-width="1.944" fill="white" id="connector53pad" cy="7.2" connectorname="PFD" r="2.052"/>
      <circle cx="93.6" stroke="white" stroke-width="1.944" fill="white" id="connector51pad" cy="7.2" connectorname="ENABLE" r="2.052"/>
      <circle cx="57.6" stroke="white" stroke-width="1.944" fill="white" id="connector50pad" cy="50.4" connectorname="SLEEP" r="2.052"/>
      <circle cx="100.8" stroke="white" stroke-width="1.944" fill="white" id="connector52pad" cy="7.2" connectorname="MS2" r="2.052"/>
      <circle cx="64.8" stroke="white" stroke-width="1.944" fill="white" id="connector54pad" cy="7.2" connectorname="RESET" r="2.052"/>
      <circle cx="122.4" stroke="white" stroke-width="1.944" fill="white" id="connector38pad" cy="7.2" connectorname="GND" r="2.052"/>
      <circle cx="129.6" stroke="white" stroke-width="1.944" fill="white" id="connector39pad" cy="7.2" connectorname="V+" r="2.052"/>
      <circle cx="115.2" stroke="white" stroke-width="1.944" fill="white" id="connector40pad" cy="50.4" connectorname="GND" r="2.052"/>
      <circle cx="122.4" stroke="white" stroke-width="1.944" fill="white" id="connector41pad" cy="50.4" connectorname="STEP" r="2.052"/>
      <circle cx="129.6" stroke="white" stroke-width="1.944" fill="white" id="connector42pad" cy="50.4" connectorname="DIR" r="2.052"/>
      <circle cx="21.6" stroke="white" stroke-width="1.944" fill="white" id="connector43pad" cy="7.2" connectorname="OUT2A" r="2.052"/>
      <rect y="5.148" width="4.104" stroke="white" stroke-width="1.944" fill="white" height="4.104" x="19.548"/>
      <circle cx="28.8" stroke="white" stroke-width="1.944" fill="white" id="connector44pad" cy="7.2" connectorname="OUT2B" r="2.052"/>
      <circle cx="36" stroke="white" stroke-width="1.944" fill="white" id="connector45pad" cy="7.2" connectorname="OUT1A" r="2.052"/>
      <circle cx="43.2" stroke="white" stroke-width="1.944" fill="white" id="connector46pad" cy="7.2" connectorname="OUT1B" r="2.052"/>
      <circle cx="28.8" stroke="white" stroke-width="1.944" fill="white" id="connector47pad" cy="50.4" connectorname="VCC" r="2.052"/>
      <circle cx="21.6" stroke="white" stroke-width="1.944" fill="white" id="connector48pad" cy="50.4" connectorname="GND" r="2.052"/>
     </g>
    </g>
   </g>
  </g>
  <g partID="94992">
   <g transform="translate(183.374,158.132)">
    <g id="copper1">
     <g id="copper0">
      <circle cx="5.04" stroke="white" stroke-width="2.16" fill="white" id="connector0pin" cy="5.04" r="2.088"/>
      <circle cx="5.04" stroke="white" stroke-width="2.16" fill="white" id="connector1pin" cy="12.24" r="2.088"/>
      <circle cx="5.04" stroke="white" stroke-width="2.16" fill="white" id="connector2pin" cy="19.44" r="2.088"/>
     </g>
    </g>
   </g>
  </g>
  <g partID="95002">
   <g transform="translate(3.37413,150.932)">
    <g id="copper1">
     <g id="copper0">
      <circle cx="5.04" stroke="white" stroke-width="2.16" fill="white" id="connector0pin" cy="5.04" r="2.088"/>
      <circle cx="5.04" stroke="white" stroke-width="2.16" fill="white" id="connector1pin" cy="12.24" r="2.088"/>
      <circle cx="5.04" stroke="white" stroke-width="2.16" fill="white" id="connector2pin" cy="19.44" r="2.088"/>
      <circle cx="5.04" stroke="white" stroke-width="2.16" fill="white" id="connector3pin" cy="26.64" r="2.088"/>
     </g>
    </g>
   </g>
  </g>
  <g partID="97471">
   <g transform="translate(178.679,193.037)">
    <g id="copper1">
     <circle cx="6.13543" stroke="white" stroke-width="0.72" fill="white" id="nonconn0" cy="6.13543" r="4.53543"/>
    </g>
   </g>
  </g>
  <g partID="97481">
   <g transform="translate(178.679,4.03649)">
    <g id="copper1">
     <circle cx="6.13543" stroke="white" stroke-width="0.72" fill="white" id="nonconn0" cy="6.13543" r="4.53543"/>
    </g>
   </g>
  </g>
  <g partID="97512">
   <g transform="translate(183.374,132.932)">
    <g id="copper1">
     <g id="copper0">
      <circle cx="5.04" stroke="white" stroke-width="2.16" fill="white" id="connector0pin" cy="5.04" r="2.088"/>
      <circle cx="5.04" stroke="white" stroke-width="2.16" fill="white" id="connector1pin" cy="12.24" r="2.088"/>
     </g>
    </g>
   </g>
  </g>
 </g>
</svg>
