<?xml version="1.0" encoding="UTF-8" standalone="no"?>
<svg
   y="0in"
   width="2.71869in"
   viewBox="0 0 195.746 208.49"
   height="2.8957in"
   version="1.2"
   x="0in"
   id="svg964"
   sodipodi:docname="bottomtrace.svg"
   xmlns:inkscape="http://www.inkscape.org/namespaces/inkscape"
   xmlns:sodipodi="http://sodipodi.sourceforge.net/DTD/sodipodi-0.dtd"
   xmlns="http://www.w3.org/2000/svg"
   xmlns:svg="http://www.w3.org/2000/svg">
  <defs
     id="defs968" />
  <sodipodi:namedview
     id="namedview966"
     pagecolor="#ffffff"
     bordercolor="#000000"
     borderopacity="0.25"
     inkscape:showpageshadow="2"
     inkscape:pageopacity="0.0"
     inkscape:pagecheckerboard="0"
     inkscape:deskcolor="#d1d1d1"
     inkscape:document-units="in" />
  <g
     partID="57830"
     id="g3">
    <g
       id="board" />
  </g>
  <g
     partID="58850"
     id="g27">
    <g
       transform="translate(19.2141,15.5719)"
       id="g25">
      <g
         stroke-width="0"
         id="copper0">
        <path
           id="connector49pad"
           style="color:#000000;fill:#000000;-inkscape-stroke:none"
           d="M 111.59959 -10.367669 C 109.86275 -10.367669 108.43113 -8.9360487 108.43113 -7.1992062 C 108.43113 -5.4623637 109.86275 -4.0307439 111.59959 -4.0307439 C 112.29767 -4.0307439 112.94544 -4.2625408 113.47167 -4.6518387 L 113.47167 7.2002318 L 113.47167 15.482472 C 112.67039 16.037126 112.13866 16.96267 112.13866 18.000543 C 112.13866 19.677739 113.52299 21.060607 115.20019 21.060606 C 116.87738 21.060606 118.26025 19.677739 118.26025 18.000543 C 118.26025 16.96267 117.72999 16.037126 116.9287 15.482472 L 116.9287 8.9287503 L 119.92724 8.9287503 C 120.47634 9.7094264 121.38234 10.225139 122.39991 10.225139 C 124.0585 10.225139 125.42335 8.8573598 125.42335 7.198767 C 125.42335 5.5401742 124.0585 4.1753245 122.39991 4.1753244 C 121.38192 4.1753244 120.47627 4.6910596 119.92724 5.4717133 L 116.9287 5.4717133 L 116.9287 -4.6503738 C 117.45464 -4.2618105 118.10343 -4.0307439 118.80078 -4.0307439 C 120.53762 -4.030744 121.96778 -5.4623637 121.96778 -7.1992062 C 121.96778 -8.9360486 120.53762 -10.367668 118.80078 -10.367669 C 117.69989 -10.367668 116.72245 -9.7910751 116.1538 -8.9277247 L 114.24657 -8.9277247 C 113.67794 -9.7911794 112.70057 -10.367668 111.59959 -10.367669 z M 133.19875 -10.367669 C 131.46191 -10.367669 130.03029 -8.9360487 130.03029 -7.1992062 C 130.03029 -5.4623637 131.46191 -4.0307439 133.19875 -4.0307439 C 134.30049 -4.030744 135.27874 -4.6076959 135.84719 -5.4721526 L 137.75149 -5.4721526 C 137.99147 -5.1071587 138.30532 -4.794188 138.66995 -4.553694 L 138.66556 5.3515959 L 132.05178 5.4409516 C 131.50073 4.6774253 130.6043 4.1753244 129.59962 4.1753244 C 127.94103 4.1753245 126.57618 5.5401742 126.57618 7.198767 C 126.57618 8.8573598 127.94103 10.225139 129.59962 10.225139 C 130.63174 10.225139 131.54921 9.6945673 132.09572 8.8950589 L 138.66556 8.8086329 L 138.67142 15.482472 C 137.87013 16.037126 137.33987 16.96267 137.33987 18.000543 C 137.33987 19.677739 138.72274 21.060607 140.39994 21.060606 C 142.07713 21.060606 143.46 19.677739 143.46 18.000543 C 143.46 16.961946 142.92921 16.035531 142.12699 15.481007 L 142.11966 7.0566769 L 142.11966 7.0552121 L 142.12845 -4.5507643 C 142.99234 -5.1193205 143.5684 -6.0979055 143.5684 -7.1992062 C 143.5684 -8.9360486 142.13678 -10.367668 140.39994 -10.367669 C 139.29896 -10.367668 138.32159 -9.7911794 137.75296 -8.9277247 L 135.84573 -8.9277247 C 135.27708 -9.7910751 134.29964 -10.367668 133.19875 -10.367669 z M -9.0011924 -10.295891 C -11.700594 -10.295891 -13.895243 -8.0997769 -13.895243 -5.4003751 C -13.895244 -2.7009732 -11.700594 -0.50485913 -9.0011924 -0.50485913 C -6.3017904 -0.50485913 -4.1042116 -2.7009731 -4.1042116 -5.4003751 C -4.1042116 -8.099777 -6.3017905 -10.295891 -9.0011924 -10.295891 z M 165.59968 -10.295891 C 162.90028 -10.295891 160.70563 -8.0997769 160.70563 -5.4003751 C 160.70563 -2.7009732 162.90028 -0.50485913 165.59968 -0.50485913 C 168.29909 -0.50485913 170.49667 -2.7009731 170.49667 -5.4003751 C 170.49667 -8.099777 168.29909 -10.295891 165.59968 -10.295891 z M 18.576002 4.1753244 L 18.576002 5.1479823 L 18.576002 9.6772867 L 11.891909 16.36138 L -8.1984567 16.244192 C -8.7653585 15.371063 -9.7487956 14.788135 -10.857152 14.788135 C -12.593995 14.788135 -14.02415 16.219755 -14.02415 17.956597 C -14.02415 19.69344 -12.593995 21.123595 -10.857152 21.123595 C -9.7630103 21.123595 -8.790571 20.555761 -8.2204294 19.701229 L 12.592105 19.822811 A 1.728 1.728 0 0 0 12.672672 19.812558 A 1.728 1.728 0 0 0 12.950993 19.777401 A 1.728 1.728 0 0 0 13.091618 19.745175 A 1.728 1.728 0 0 0 13.367009 19.632381 A 1.728 1.728 0 0 0 13.482732 19.576717 A 1.728 1.728 0 0 0 13.818182 19.323299 A 1.728 1.728 0 0 0 13.825506 19.317439 L 22.838704 10.301311 A 1.728 1.728 0 0 0 22.848958 10.289592 A 1.728 1.728 0 0 0 22.910482 10.225139 L 24.622887 10.225139 L 24.622887 4.1753244 L 18.576002 4.1753244 z M 28.800628 4.1753244 C 27.142036 4.1753244 25.775721 5.5401742 25.775721 7.198767 C 25.775721 8.2003095 26.273958 9.0959461 27.034024 9.6479898 L 27.028164 10.037639 L 13.768377 23.493716 L -8.204316 23.436587 C -8.7721044 22.568351 -9.7525283 21.989319 -10.857152 21.989319 C -12.593995 21.989319 -14.02415 23.420939 -14.02415 25.157781 C -14.02415 26.894625 -12.593995 28.324779 -10.857152 28.324779 C -9.7585618 28.324779 -8.7822725 27.752501 -8.2131051 26.892159 L 14.484687 26.949288 A 1.728 1.728 0 0 0 14.486151 26.949288 A 1.728 1.728 0 0 0 14.843574 26.903878 A 1.728 1.728 0 0 0 14.935859 26.890694 A 1.728 1.728 0 0 0 15.242012 26.764718 A 1.728 1.728 0 0 0 15.351876 26.717842 A 1.728 1.728 0 0 0 15.707833 26.446846 A 1.728 1.728 0 0 0 15.709298 26.443916 A 1.728 1.728 0 0 0 15.719552 26.436592 L 29.975435 11.969771 A 1.728 1.728 0 0 0 30.013521 11.925826 A 1.728 1.728 0 0 0 30.051607 11.883345 A 1.728 1.728 0 0 0 30.183443 11.713423 A 1.728 1.728 0 0 0 30.187838 11.706099 A 1.728 1.728 0 0 0 30.293307 11.518598 A 1.728 1.728 0 0 0 30.315279 11.470258 A 1.728 1.728 0 0 0 30.394381 11.269575 A 1.728 1.728 0 0 0 30.395846 11.26225 A 1.728 1.728 0 0 0 30.445651 11.046918 A 1.728 1.728 0 0 0 30.452975 10.998578 A 1.728 1.728 0 0 0 30.469088 10.819867 A 1.728 1.728 0 0 0 30.472018 10.783246 L 30.488131 9.703654 C 31.291973 9.1573069 31.824071 8.2346616 31.824071 7.198767 C 31.824071 5.5401742 30.459222 4.1753244 28.800628 4.1753244 z M 36.000347 4.1753244 C 34.341755 4.1753244 32.976906 5.5401742 32.976905 7.198767 C 32.976905 8.2335127 33.507566 9.1556158 34.309915 9.7021891 L 34.342142 11.934615 L 15.45588 30.621658 L -8.2087106 30.628982 C -8.7771967 29.764695 -9.7555447 29.189038 -10.857152 29.189038 C -12.593995 29.189038 -14.024151 30.619192 -14.02415 32.356035 C -14.02415 34.092878 -12.593995 35.524498 -10.857152 35.524498 C -9.7555451 35.524498 -8.7771967 34.948841 -8.2087106 34.084554 L 16.16633 34.078695 A 1.728 1.728 0 0 0 16.413889 34.058187 A 1.728 1.728 0 0 0 16.440256 34.053792 A 1.728 1.728 0 0 0 16.93098 33.897054 A 1.728 1.728 0 0 0 16.952952 33.8868 A 1.728 1.728 0 0 0 17.370434 33.587971 A 1.728 1.728 0 0 0 17.382152 33.579182 L 37.252791 13.915087 A 1.728 1.728 0 0 0 37.298201 13.871141 A 1.728 1.728 0 0 0 37.321639 13.846239 A 1.728 1.728 0 0 0 37.427108 13.727586 A 1.728 1.728 0 0 0 37.431502 13.721727 A 1.728 1.728 0 0 0 37.539901 13.570848 A 1.728 1.728 0 0 0 37.544295 13.562059 A 1.728 1.728 0 0 0 37.635116 13.400926 A 1.728 1.728 0 0 0 37.63951 13.390672 A 1.728 1.728 0 0 0 37.709823 13.222215 A 1.728 1.728 0 0 0 37.711288 13.219285 A 1.728 1.728 0 0 0 37.756698 13.066941 A 1.728 1.728 0 0 0 37.771346 13.002488 A 1.728 1.728 0 0 0 37.797714 12.845749 A 1.728 1.728 0 0 0 37.797714 12.83989 A 1.728 1.728 0 0 0 37.807968 12.690475 A 1.728 1.728 0 0 0 37.809432 12.617233 L 37.765487 9.6479898 C 38.524989 9.0959461 39.023791 8.2003095 39.02379 7.198767 C 39.02379 5.5401742 37.65894 4.1753245 36.000347 4.1753244 z M 43.198602 4.1753244 C 41.540008 4.1753244 40.175159 5.5401742 40.175159 7.198767 C 40.175159 8.2182115 40.69195 9.1279372 41.474478 9.6772867 L 41.480337 13.610399 L 17.336742 37.956142 L -8.2013864 37.84042 C -8.7688377 36.970307 -9.7510965 36.390222 -10.857152 36.390222 C -12.593995 36.390222 -14.02415 37.820377 -14.02415 39.557219 C -14.02415 41.294062 -12.593995 42.725682 -10.857152 42.725682 C -9.7607095 42.725682 -8.7871419 42.154992 -8.2174997 41.297457 L 18.045728 41.416109 A 1.728 1.728 0 0 0 18.193677 41.394136 A 1.728 1.728 0 0 0 18.445631 41.354586 A 1.728 1.728 0 0 0 18.713698 41.266695 A 1.728 1.728 0 0 0 18.946608 41.149507 A 1.728 1.728 0 0 0 19.163405 40.991304 A 1.728 1.728 0 0 0 19.280593 40.904878 L 44.433467 15.541066 A 1.728 1.728 0 0 0 44.436397 15.538136 A 1.728 1.728 0 0 0 44.439326 15.535207 A 1.728 1.728 0 0 0 44.938839 14.319384 L 44.931515 9.6714273 C 45.710533 9.1215591 46.224974 8.2150517 46.224974 7.198767 C 46.224974 5.5401742 44.857194 4.1753245 43.198602 4.1753244 z M 57.599504 4.1753244 C 55.940912 4.1753245 54.576062 5.5401742 54.576062 7.198767 C 54.576062 8.8573598 55.940912 10.225139 57.599504 10.225139 C 59.258098 10.22514 60.622947 8.8573604 60.622947 7.198767 C 60.622947 5.5401737 59.258098 4.1753236 57.599504 4.1753244 z M 64.800688 4.1753244 C 63.142096 4.1753244 61.775781 5.5401742 61.775781 7.198767 C 61.775781 8.8573598 63.142096 10.225139 64.800688 10.225139 C 66.459282 10.225139 67.824131 8.8573598 67.824131 7.198767 C 67.824131 5.5401742 66.459282 4.1753245 64.800688 4.1753244 z M 93.599564 4.1753244 C 91.940972 4.1753245 90.576122 5.5401742 90.576122 7.198767 C 90.576122 8.1925074 91.065859 9.0817733 91.815382 9.6348062 L 91.750928 12.473678 A 1.728 1.728 0 0 0 91.775831 12.793015 A 1.728 1.728 0 0 0 91.78755 12.848679 A 1.728 1.728 0 0 0 91.903272 13.216355 A 1.728 1.728 0 0 0 91.916456 13.250047 A 1.728 1.728 0 0 0 92.127394 13.581102 A 1.728 1.728 0 0 0 92.155226 13.623582 L 102.94382 26.445381 A 1.728 1.728 0 0 0 103.01999 26.515694 A 1.728 1.728 0 0 0 103.11667 26.603584 A 1.728 1.728 0 0 0 103.55026 26.892159 A 1.728 1.728 0 0 0 103.63669 26.937569 A 1.728 1.728 0 0 0 104.21823 27.050363 A 1.728 1.728 0 0 0 104.27243 27.060616 L 166.50056 26.893624 C 167.06997 27.75259 168.04561 28.324779 169.14315 28.324779 C 170.87999 28.324779 172.31161 26.893159 172.31161 25.156316 C 172.31161 23.419474 170.87999 21.987854 169.14315 21.987854 C 168.03837 21.987854 167.05806 22.56815 166.49031 23.436587 L 105.06931 23.603579 L 95.221149 11.899458 L 95.270954 9.7139079 C 96.083617 9.168946 96.623007 8.241438 96.623007 7.198767 C 96.623007 5.5401737 95.258158 4.1753236 93.599564 4.1753244 z M 100.80075 4.1753244 C 99.142158 4.1753269 97.775841 5.5401759 97.775841 7.198767 C 97.775841 8.8573582 99.142158 10.225137 100.80075 10.225139 C 102.45935 10.225139 103.82419 8.8573598 103.82419 7.198767 C 103.82419 5.5401742 102.45935 4.1753245 100.80075 4.1753244 z M 169.14315 29.189038 C 168.03533 29.189038 167.05295 29.772673 166.48592 30.645095 L 136.78909 30.804763 A 1.728 1.728 0 0 0 136.73343 30.813552 A 1.728 1.728 0 0 0 136.30276 30.88533 A 1.728 1.728 0 0 0 136.14163 30.951248 A 1.728 1.728 0 0 0 135.85452 31.099197 A 1.728 1.728 0 0 0 135.69631 31.22078 A 1.728 1.728 0 0 0 135.58059 31.30867 L 121.35254 45.473733 A 1.728 1.728 0 0 0 121.34229 45.488382 A 1.728 1.728 0 0 0 121.10645 45.791605 A 1.728 1.728 0 0 0 121.06397 45.861917 A 1.728 1.728 0 0 0 120.92041 46.204691 A 1.728 1.728 0 0 0 120.89697 46.292582 A 1.728 1.728 0 0 0 120.84717 46.617778 L 120.84424 46.683696 A 1.728 1.728 0 0 0 120.84277 46.698344 L 120.79004 47.848249 C 119.94365 48.386573 119.37646 49.331594 119.37646 50.400011 C 119.37646 52.058603 120.74132 53.423453 122.39991 53.423453 C 124.0585 53.423453 125.42335 52.058603 125.42335 50.400011 C 125.42335 49.431243 124.95758 48.564281 124.23975 48.009382 L 124.26612 47.449811 L 137.51565 34.257406 L 166.50349 34.099202 C 167.07331 34.955711 168.04749 35.525963 169.14315 35.525963 C 170.87999 35.525963 172.31161 34.094343 172.31161 32.3575 C 172.31161 30.620658 170.87999 29.189038 169.14315 29.189038 z M 115.20019 29.339917 C 113.52299 29.339917 112.13866 30.722784 112.13866 32.399981 C 112.13866 33.438097 112.67007 34.363441 113.47167 34.918051 L 113.47167 47.92735 C 112.69101 48.476372 112.17528 49.382018 112.17528 50.400011 C 112.17528 51.418003 112.69101 52.325114 113.47167 52.874136 L 113.47167 67.620743 A 1.728 1.728 0 0 0 113.45116 67.664688 A 1.728 1.728 0 0 0 113.43651 67.693985 A 1.728 1.728 0 0 0 113.31493 68.30922 A 1.728 1.728 0 0 0 113.31639 68.331193 A 1.728 1.728 0 0 0 113.31493 68.351701 L 113.43651 76.708648 C 112.65512 77.265855 112.13866 78.177884 112.13866 79.200352 C 112.13866 80.877548 113.52299 82.260415 115.20019 82.260415 C 116.87738 82.260415 118.26025 80.877548 118.26025 79.200352 C 118.26025 78.146505 117.71412 77.208921 116.89208 76.657379 L 116.7998 70.231098 L 119.95947 70.173969 C 120.5114 70.929636 121.4018 71.424948 122.39991 71.424948 C 124.0585 71.424948 125.42335 70.057169 125.42335 68.398576 C 125.42335 66.739983 124.0585 65.375133 122.39991 65.375133 C 121.39202 65.375133 120.49395 65.880436 119.94336 66.648085 L 116.9287 66.617323 L 116.9287 52.874136 C 117.70938 52.325045 118.22509 51.41758 118.22509 50.400011 C 118.22509 49.382441 117.70938 48.476442 116.9287 47.92735 L 116.9287 34.918051 C 117.7303 34.363441 118.26025 33.438097 118.26025 32.399981 C 118.26025 30.722784 116.87738 29.339917 115.20019 29.339917 z M 169.14315 36.388757 C 168.03364 36.388757 167.04961 36.973105 166.48299 37.847744 L 140.52152 38.005947 A 1.728 1.728 0 0 0 140.4849 38.011807 A 1.728 1.728 0 0 0 140.04691 38.083584 A 1.728 1.728 0 0 0 139.95755 38.109951 A 1.728 1.728 0 0 0 139.53861 38.328213 A 1.728 1.728 0 0 0 139.47122 38.380948 A 1.728 1.728 0 0 0 139.3262 38.496671 L 130.16652 47.432232 C 129.98274 47.396789 129.7931 47.376568 129.59962 47.376568 C 127.94103 47.376568 126.57618 48.741417 126.57618 50.400011 C 126.57618 52.058603 127.94103 53.423453 129.59962 53.423453 C 131.25821 53.423453 132.62307 52.058603 132.62307 50.400011 C 132.62307 50.23127 132.60771 50.066425 132.58059 49.904893 L 141.24076 41.457125 L 166.50642 41.301851 C 167.07657 42.156383 168.049 42.724217 169.14315 42.724217 C 170.87999 42.724217 172.31161 41.294062 172.31161 39.557219 C 172.31161 37.820376 170.87999 36.388757 169.14315 36.388757 z M 140.39994 47.339947 C 138.72274 47.339947 137.33987 48.722814 137.33987 50.400011 C 137.33987 51.430302 137.86236 52.348933 138.65384 52.904898 L 138.55423 66.55287 L 132.05031 66.639296 C 131.49916 65.876705 130.60357 65.375133 129.59962 65.375133 C 127.94103 65.375133 126.57618 66.739983 126.57618 68.398576 C 126.57618 70.057169 127.94103 71.424948 129.59962 71.424948 C 130.60457 71.424948 131.50076 70.922284 132.05178 70.157856 L 138.66556 70.241352 L 138.67142 76.683746 C 137.87021 77.238411 137.33987 78.162537 137.33987 79.200352 C 137.33987 80.877548 138.72274 82.260415 140.39994 82.260415 C 142.07713 82.260415 143.46 80.877548 143.46 79.200352 C 143.46 78.162236 142.93005 77.236892 142.12845 76.682281 L 142.11966 68.256486 A 1.728 1.728 0 0 0 142.11966 68.252091 A 1.728 1.728 0 0 0 142.11966 68.233048 A 1.728 1.728 0 0 0 142.09916 68.052872 A 1.728 1.728 0 0 0 142.08304 67.910782 A 1.728 1.728 0 0 0 142.02445 67.715958 A 1.728 1.728 0 0 0 142.00101 67.64125 L 142.10941 52.931265 C 142.92171 52.378206 143.46 51.446377 143.46 50.400011 C 143.46 48.722814 142.07713 47.339947 140.39994 47.339947 z M 21.599445 47.376568 C 19.940851 47.376568 18.576001 48.741417 18.576002 50.400011 C 18.576002 52.058603 19.940852 53.423453 21.599445 53.423453 C 23.258038 53.423453 24.622887 52.058603 24.622887 50.400011 C 24.622888 48.741417 23.258038 47.376568 21.599445 47.376568 z M 28.800628 47.376568 C 27.142035 47.376568 25.77572 48.741417 25.775721 50.400011 C 25.775721 52.058603 27.142036 53.423453 28.800628 53.423453 C 30.459222 53.423453 31.824071 52.058603 31.824071 50.400011 C 31.824072 48.741417 30.459222 47.376568 28.800628 47.376568 z M 57.599504 47.376568 C 55.940911 47.376568 54.576061 48.741417 54.576062 50.400011 C 54.576062 52.058603 55.940912 53.423453 57.599504 53.423453 C 59.258098 53.423454 60.622947 52.058604 60.622947 50.400011 C 60.622948 48.741416 59.258099 47.376567 57.599504 47.376568 z M 64.800688 47.376568 C 63.142095 47.376568 61.77578 48.741417 61.775781 50.400011 C 61.775781 52.058603 63.142096 53.423453 64.800688 53.423453 C 66.459282 53.423453 67.824131 52.058603 67.824131 50.400011 C 67.824132 48.741417 66.459282 47.376568 64.800688 47.376568 z M 18.576002 65.375133 L 18.576002 66.347791 L 18.576002 70.87856 L 11.888979 77.562654 L -8.1984567 77.445466 C -8.7653142 76.572096 -9.7486119 75.987944 -10.857152 75.987944 C -12.593995 75.987944 -14.02415 77.419564 -14.02415 79.156406 C -14.02415 80.893249 -12.593995 82.324869 -10.857152 82.324869 C -9.7622944 82.324869 -8.7889518 81.75504 -8.2189645 80.899573 L 12.592105 81.021155 A 1.728 1.728 0 0 0 12.674137 81.010902 A 1.728 1.728 0 0 0 12.936344 80.978675 A 1.728 1.728 0 0 0 13.101872 80.940589 A 1.728 1.728 0 0 0 13.347966 80.840979 A 1.728 1.728 0 0 0 13.485661 80.773596 A 1.728 1.728 0 0 0 13.753728 80.571448 A 1.728 1.728 0 0 0 13.822576 80.515784 L 22.796224 71.543601 A 1.728 1.728 0 0 0 22.838704 71.502585 A 1.728 1.728 0 0 0 22.850423 71.490866 A 1.728 1.728 0 0 0 22.910482 71.424948 L 24.622887 71.424948 L 24.622887 65.375133 L 18.576002 65.375133 z M 28.800628 65.375133 C 27.142036 65.375133 25.775721 66.739983 25.775721 68.398576 C 25.775721 69.400118 26.273958 70.295755 27.034024 70.847799 L 27.028164 71.237448 L 13.768377 84.69206 L -8.204316 84.636396 C -8.7721706 83.76853 -9.7528114 83.189128 -10.857152 83.189128 C -12.593995 83.189128 -14.02415 84.620748 -14.02415 86.35759 C -14.02415 88.094433 -12.593995 89.526052 -10.857152 89.526052 C -9.7585618 89.526052 -8.7822725 88.95231 -8.2131051 88.091968 L 14.484687 88.150562 A 1.728 1.728 0 0 0 14.492011 88.149097 A 1.728 1.728 0 0 0 14.653144 88.128589 A 1.728 1.728 0 0 0 14.947578 88.087574 A 1.728 1.728 0 0 0 14.97248 88.07732 A 1.728 1.728 0 0 0 15.363594 87.911792 A 1.728 1.728 0 0 0 15.429512 87.860522 A 1.728 1.728 0 0 0 15.719552 87.634936 L 29.975435 73.16958 A 1.728 1.728 0 0 0 30.031099 73.108056 A 1.728 1.728 0 0 0 30.035494 73.103662 A 1.728 1.728 0 0 0 30.303561 72.699364 A 1.728 1.728 0 0 0 30.30649 72.69204 A 1.728 1.728 0 0 0 30.445651 72.246727 A 1.728 1.728 0 0 0 30.452975 72.199852 A 1.728 1.728 0 0 0 30.469088 72.021141 A 1.728 1.728 0 0 0 30.472018 71.984519 L 30.488131 70.903463 C 31.291973 70.357116 31.824071 69.434471 31.824071 68.398576 C 31.824071 66.739983 30.459222 65.375133 28.800628 65.375133 z M 36.000347 65.375133 C 34.341755 65.375133 32.976906 66.739983 32.976905 68.398576 C 32.976905 69.433322 33.507566 70.355425 34.309915 70.901998 L 34.342142 73.135888 L 15.45588 91.822931 L -8.2087106 91.828791 C -8.7771967 90.964504 -9.7555447 90.388847 -10.857152 90.388847 C -12.593995 90.388847 -14.024151 91.820466 -14.02415 93.557309 C -14.02415 95.294151 -12.593995 96.724307 -10.857152 96.724307 C -9.756261 96.724307 -8.7788248 96.149178 -8.2101754 95.285828 L 16.16633 95.277039 A 1.728 1.728 0 0 0 16.410959 95.257996 A 1.728 1.728 0 0 0 16.449045 95.252136 A 1.728 1.728 0 0 0 16.923655 95.099792 A 1.728 1.728 0 0 0 16.960277 95.082214 A 1.728 1.728 0 0 0 17.366039 94.789245 A 1.728 1.728 0 0 0 17.382152 94.777526 L 37.298201 75.072415 A 1.728 1.728 0 0 0 37.321639 75.046048 A 1.728 1.728 0 0 0 37.331893 75.034329 A 1.728 1.728 0 0 0 37.387557 74.97427 A 1.728 1.728 0 0 0 37.40074 74.958157 A 1.728 1.728 0 0 0 37.44908 74.899563 A 1.728 1.728 0 0 0 37.523787 74.794094 A 1.728 1.728 0 0 0 37.558944 74.739895 A 1.728 1.728 0 0 0 37.608749 74.650539 A 1.728 1.728 0 0 0 37.649764 74.568508 A 1.728 1.728 0 0 0 37.698104 74.45132 A 1.728 1.728 0 0 0 37.715682 74.404445 A 1.728 1.728 0 0 0 37.755233 74.274074 A 1.728 1.728 0 0 0 37.771346 74.202296 A 1.728 1.728 0 0 0 37.797714 74.047023 A 1.728 1.728 0 0 0 37.797714 74.038234 A 1.728 1.728 0 0 0 37.807968 73.891749 A 1.728 1.728 0 0 0 37.809432 73.817042 L 37.765487 70.847799 C 38.524989 70.295755 39.023791 69.400118 39.02379 68.398576 C 39.02379 66.739983 37.65894 65.375133 36.000347 65.375133 z M 43.198602 65.375133 C 41.540008 65.375133 40.175159 66.739983 40.175159 68.398576 C 40.175159 69.41802 40.69195 70.327746 41.474478 70.877096 L 41.480337 74.810208 L 17.335277 99.155951 L -8.2013864 99.041693 C -8.7687347 98.171011 -9.750662 97.590031 -10.857152 97.590031 C -12.593995 97.590031 -14.02415 99.021651 -14.02415 100.75849 C -14.02415 102.49534 -12.593995 103.92549 -10.857152 103.92549 C -9.7599936 103.92549 -8.7855197 103.35427 -8.2160348 102.4958 L 18.045728 102.61592 A 1.728 1.728 0 0 0 18.193677 102.59248 A 1.728 1.728 0 0 0 18.450025 102.55293 A 1.728 1.728 0 0 0 18.710768 102.4665 A 1.728 1.728 0 0 0 18.946608 102.34785 A 1.728 1.728 0 0 0 19.163405 102.18965 A 1.728 1.728 0 0 0 19.280593 102.10322 L 44.433467 76.740875 A 1.728 1.728 0 0 0 44.938839 75.517728 L 44.931515 70.871236 C 45.710533 70.321368 46.224974 69.414861 46.224974 68.398576 C 46.224974 66.739983 44.857194 65.375133 43.198602 65.375133 z M 57.599504 65.375133 C 55.940912 65.375133 54.576062 66.739983 54.576062 68.398576 C 54.576062 70.057169 55.940912 71.424948 57.599504 71.424948 C 59.258098 71.424949 60.622947 70.057169 60.622947 68.398576 C 60.622947 66.739983 59.258098 65.375133 57.599504 65.375133 z M 64.800688 65.375133 C 63.142096 65.375133 61.775781 66.739983 61.775781 68.398576 C 61.775781 70.057169 63.142096 71.424948 64.800688 71.424948 C 66.459282 71.424948 67.824131 70.057169 67.824131 68.398576 C 67.824131 66.739983 66.459282 65.375133 64.800688 65.375133 z M 93.599564 65.375133 C 91.940972 65.375133 90.576122 66.739983 90.576122 68.398576 C 90.576122 69.392316 91.065859 70.281582 91.815382 70.834615 L 91.750928 73.672022 A 1.728 1.728 0 0 0 91.752393 73.698389 A 1.728 1.728 0 0 0 91.753858 73.73794 A 1.728 1.728 0 0 0 91.802198 74.115871 A 1.728 1.728 0 0 0 91.815382 74.174464 A 1.728 1.728 0 0 0 91.967726 74.542141 A 1.728 1.728 0 0 0 92.004347 74.603664 A 1.728 1.728 0 0 0 92.248976 74.923001 A 1.728 1.728 0 0 0 92.254836 74.93179 L 104.90818 87.618823 A 1.728 1.728 0 0 0 105.40769 87.952808 A 1.728 1.728 0 0 0 105.54539 88.011402 A 1.728 1.728 0 0 0 106.12986 88.127124 A 1.728 1.728 0 0 0 106.13425 88.127124 L 166.49617 88.086109 C 167.06489 88.949049 168.04257 89.524588 169.14315 89.524588 C 170.87999 89.524588 172.31161 88.092968 172.31161 86.356125 C 172.31161 84.619283 170.87999 83.187663 169.14315 83.187663 C 168.04154 83.187663 167.06319 83.764785 166.49471 84.629072 L 106.8491 84.671552 L 95.222614 73.012841 L 95.270954 70.915182 C 96.083983 70.370279 96.623007 69.441528 96.623007 68.398576 C 96.623007 66.739983 95.258158 65.375133 93.599564 65.375133 z M 100.80075 65.375133 C 99.142158 65.375136 97.775841 66.739985 97.775841 68.398576 C 97.775841 70.057167 99.142158 71.424946 100.80075 71.424948 C 102.45935 71.424948 103.82419 70.057169 103.82419 68.398576 C 103.82419 66.739983 102.45935 65.375133 100.80075 65.375133 z M 169.14315 90.388847 C 168.04082 90.388847 167.06156 90.966497 166.49324 91.83172 L 136.79788 91.871271 A 1.728 1.728 0 0 0 136.75393 91.878595 A 1.728 1.728 0 0 0 136.31008 91.948908 A 1.728 1.728 0 0 0 136.1387 92.019221 A 1.728 1.728 0 0 0 135.85598 92.16424 A 1.728 1.728 0 0 0 135.69924 92.285823 A 1.728 1.728 0 0 0 135.57473 92.381038 L 121.34668 106.67794 A 1.728 1.728 0 0 0 121.33643 106.69112 A 1.728 1.728 0 0 0 121.10059 107.0002 A 1.728 1.728 0 0 0 121.06104 107.06759 A 1.728 1.728 0 0 0 120.91748 107.41475 A 1.728 1.728 0 0 0 120.89697 107.49239 A 1.728 1.728 0 0 0 120.84717 107.81612 L 120.78857 109.04806 C 119.94276 109.5865 119.37646 110.53184 119.37646 111.59982 C 119.37646 113.25841 120.74132 114.62326 122.39991 114.62326 C 124.0585 114.62326 125.42335 113.25841 125.42335 111.59982 C 125.42335 110.63146 124.95852 109.76412 124.24122 109.20919 L 124.26758 108.64376 L 137.51712 95.326843 L 166.49763 95.288757 C 167.06652 96.150753 168.04329 96.725771 169.14315 96.725771 C 170.87999 96.725771 172.31161 95.294151 172.31161 93.557309 C 172.31161 91.820467 170.87999 90.388847 169.14315 90.388847 z M 115.20019 90.539726 C 113.52299 90.539726 112.13866 91.922593 112.13866 93.59979 C 112.13866 94.637662 112.67039 95.563206 113.47167 96.11786 L 113.47167 109.12716 C 112.69101 109.67618 112.17528 110.58183 112.17528 111.59982 C 112.17528 112.61781 112.69101 113.52492 113.47167 114.07394 L 113.47167 122.40013 A 1.728 1.728 0 0 0 113.47167 122.4016 A 1.728 1.728 0 0 0 113.50536 122.73705 A 1.728 1.728 0 0 0 113.50536 122.73851 A 1.728 1.728 0 0 0 113.53612 122.83665 A 1.728 1.728 0 0 0 113.60497 123.06371 A 1.728 1.728 0 0 0 113.76317 123.3596 A 1.728 1.728 0 0 0 113.76464 123.36107 A 1.728 1.728 0 0 0 113.9785 123.62181 A 1.728 1.728 0 0 0 113.97997 123.62181 A 1.728 1.728 0 0 0 113.97997 123.62328 L 119.48047 129.11352 C 119.44964 129.28534 119.43213 129.46221 119.43213 129.64233 C 119.43213 130.64933 119.93712 131.54759 120.70361 132.09888 L 120.67285 134.91431 A 1.728 1.728 0 0 0 120.67578 134.95386 A 1.728 1.728 0 0 0 120.68604 135.115 A 1.728 1.728 0 0 0 120.70361 135.23951 A 1.728 1.728 0 0 0 120.74023 135.40064 A 1.728 1.728 0 0 0 120.77539 135.50904 A 1.728 1.728 0 0 0 120.83838 135.66285 A 1.728 1.728 0 0 0 120.89404 135.76978 A 1.728 1.728 0 0 0 120.979 135.91041 A 1.728 1.728 0 0 0 121.06836 136.02467 A 1.728 1.728 0 0 0 121.13428 136.10963 L 124.6001 139.84205 A 1.728 1.728 0 0 0 124.84034 140.05446 A 1.728 1.728 0 0 0 124.88428 140.08229 A 1.728 1.728 0 0 0 125.31788 140.30202 A 1.728 1.728 0 0 0 125.33839 140.3108 A 1.728 1.728 0 0 0 125.82618 140.38844 A 1.728 1.728 0 0 0 125.86573 140.3943 L 158.3985 140.3943 A 1.728 1.728 0 0 0 158.42633 140.39284 A 1.728 1.728 0 0 0 158.47174 140.38991 A 1.728 1.728 0 0 0 158.81305 140.34303 A 1.728 1.728 0 0 0 158.84967 140.33278 A 1.728 1.728 0 0 0 159.18805 140.20387 A 1.728 1.728 0 0 0 159.19391 140.19948 A 1.728 1.728 0 0 0 159.50153 139.99586 A 1.728 1.728 0 0 0 159.51032 139.99 L 168.27742 132.62915 C 168.56953 132.71921 168.87894 132.76831 169.19881 132.76831 C 170.93565 132.76831 172.36727 131.33669 172.36727 129.59985 C 172.36727 128.49948 171.79147 127.5231 170.92879 126.95434 L 170.92879 125.04564 C 171.79174 124.47692 172.36727 123.49924 172.36727 122.39867 C 172.36727 120.66182 170.93565 119.23167 169.19881 119.23167 C 167.46197 119.23167 166.03035 120.66182 166.03035 122.39867 C 166.03035 123.50027 166.60747 124.47862 167.47176 125.04711 L 167.47176 126.95141 C 166.60736 127.51988 166.03035 128.49816 166.03035 129.59985 C 166.03035 129.72948 166.03977 129.85788 166.05525 129.98364 L 157.77155 136.94019 L 126.62306 136.94019 L 124.13575 134.26246 L 124.15919 132.1355 C 124.95418 131.58785 125.47901 130.67141 125.47901 129.64233 C 125.47901 127.98374 124.11417 126.61889 122.45557 126.61889 C 122.27292 126.61889 122.095 126.63555 121.9209 126.66723 L 116.9287 121.68382 L 116.9287 114.07394 C 117.70938 113.52485 118.22509 112.61739 118.22509 111.59982 C 118.22509 110.58225 117.70938 109.67625 116.9287 109.12716 L 116.9287 96.11786 C 117.72999 95.563206 118.26025 94.637662 118.26025 93.59979 C 118.26025 91.922593 116.87738 90.539726 115.20019 90.539726 z M 169.14315 97.588566 C 168.03967 97.588566 167.05983 98.166174 166.49178 99.032904 L 140.53031 99.072455 A 1.728 1.728 0 0 0 140.46439 99.082709 A 1.728 1.728 0 0 0 140.02786 99.154486 A 1.728 1.728 0 0 0 139.99124 99.161811 A 1.728 1.728 0 0 0 139.55765 99.383002 A 1.728 1.728 0 0 0 139.46243 99.45771 A 1.728 1.728 0 0 0 139.31888 99.570503 L 130.15187 108.62911 C 129.97268 108.59548 129.78796 108.57638 129.59962 108.57638 C 127.94103 108.57638 126.57618 109.94123 126.57618 111.59982 C 126.57618 113.25841 127.94103 114.62326 129.59962 114.62326 C 131.25821 114.62326 132.62307 113.25841 132.62307 111.59982 C 132.62307 111.42481 132.60679 111.25434 132.57766 111.08712 L 141.24369 102.52656 L 166.49763 102.48848 C 167.06654 103.35032 168.04341 103.92403 169.14315 103.92403 C 170.87999 103.92403 172.31161 102.49387 172.31161 100.75703 C 172.31161 99.020185 170.87999 97.588566 169.14315 97.588566 z M 140.39994 108.53976 C 138.72274 108.53976 137.33987 109.92262 137.33987 111.59982 C 137.33987 112.65413 137.88685 113.59281 138.7095 114.14426 L 138.793 119.73411 L 130.44631 126.72582 C 130.1936 126.65641 129.92876 126.61889 129.65529 126.61889 C 127.99669 126.61889 126.63185 127.98374 126.63185 129.64233 C 126.63185 131.30092 127.99669 132.66724 129.65529 132.66724 C 131.31388 132.66724 132.67873 131.30092 132.67873 129.64233 C 132.67873 129.55311 132.67328 129.46454 132.66555 129.37719 L 141.64359 121.85814 A 1.728 1.728 0 0 0 141.7725 121.73656 A 1.728 1.728 0 0 0 141.78275 121.72484 A 1.728 1.728 0 0 0 141.98343 121.47142 A 1.728 1.728 0 0 0 141.9849 121.46849 A 1.728 1.728 0 0 0 142.04203 121.37474 A 1.728 1.728 0 0 0 142.04935 121.36009 A 1.728 1.728 0 0 0 142.13871 121.17112 A 1.728 1.728 0 0 0 142.17093 121.08323 A 1.728 1.728 0 0 0 142.17679 121.06419 A 1.728 1.728 0 0 0 142.20902 120.95286 A 1.728 1.728 0 0 0 142.21781 120.90745 A 1.728 1.728 0 0 0 142.23685 120.81956 A 1.728 1.728 0 0 0 142.24857 120.73314 A 1.728 1.728 0 0 0 142.25004 120.72142 A 1.728 1.728 0 0 0 142.2559 120.64817 A 1.728 1.728 0 0 0 142.25883 120.59837 A 1.728 1.728 0 0 0 142.26029 120.50755 L 142.16654 114.09152 C 142.94665 113.53417 143.46 112.62129 143.46 111.59982 C 143.46 109.92262 142.07713 108.53976 140.39994 108.53976 z M 21.599445 108.57638 C 19.940851 108.57638 18.576001 109.94123 18.576002 111.59982 C 18.576002 113.25841 19.940852 114.62326 21.599445 114.62326 C 23.258038 114.62326 24.622887 113.25841 24.622887 111.59982 C 24.622888 109.94123 23.258038 108.57638 21.599445 108.57638 z M 28.800628 108.57638 C 27.142035 108.57638 25.77572 109.94123 25.775721 111.59982 C 25.775721 113.25841 27.142036 114.62326 28.800628 114.62326 C 30.459222 114.62326 31.824071 113.25841 31.824071 111.59982 C 31.824072 109.94123 30.459222 108.57638 28.800628 108.57638 z M 57.599504 108.57638 C 55.940911 108.57638 54.576061 109.94123 54.576062 111.59982 C 54.576062 113.25841 55.940912 114.62326 57.599504 114.62326 C 59.258098 114.62326 60.622947 113.25841 60.622947 111.59982 C 60.622948 109.94123 59.258099 108.57638 57.599504 108.57638 z M 64.800688 108.57638 C 63.142095 108.57638 61.77578 109.94123 61.775781 111.59982 C 61.775781 113.25841 63.142096 114.62326 64.800688 114.62326 C 66.459282 114.62326 67.824131 113.25841 67.824131 111.59982 C 67.824132 109.94123 66.459282 108.57638 64.800688 108.57638 z M 18.631666 126.61889 L 18.631666 127.59155 L 18.631666 132.12231 L 11.946108 138.80494 L -8.1427925 138.68776 C -8.7096944 137.81463 -9.6931315 137.2317 -10.801488 137.2317 C -12.538331 137.2317 -13.968486 138.66185 -13.968486 140.3987 C -13.968486 142.13554 -12.538331 143.56716 -10.801488 143.56716 C -9.7061958 143.56716 -8.7331935 142.9979 -8.1633004 142.14186 L 12.647769 142.26637 A 1.728 1.728 0 0 0 12.750309 142.25319 A 1.728 1.728 0 0 0 12.97736 142.22389 A 1.728 1.728 0 0 0 13.16193 142.18141 A 1.728 1.728 0 0 0 13.386052 142.09059 A 1.728 1.728 0 0 0 13.547185 142.01442 A 1.728 1.728 0 0 0 13.794744 141.82546 A 1.728 1.728 0 0 0 13.879705 141.75807 L 22.895833 132.74487 A 1.728 1.728 0 0 0 22.906087 132.73316 A 1.728 1.728 0 0 0 22.967611 132.66724 L 24.678551 132.66724 L 24.678551 126.61889 L 18.631666 126.61889 z M 28.856293 126.61889 C 27.1977 126.61889 25.831385 127.98374 25.831385 129.64233 C 25.831385 130.64367 26.329885 131.53802 27.089688 132.09009 L 27.083829 132.47827 L 13.821111 145.93581 L -8.1501167 145.87869 C -8.7180722 145.01139 -9.6975801 144.43288 -10.801488 144.43288 C -12.538331 144.43288 -13.968486 145.86304 -13.968486 147.59988 C -13.968486 149.33672 -12.538331 150.76834 -10.801488 150.76834 C -9.7024631 150.76834 -8.7265112 150.19517 -8.157441 149.33426 L 14.540351 149.39285 A 1.728 1.728 0 0 0 14.547675 149.39139 A 1.728 1.728 0 0 0 14.776191 149.36209 A 1.728 1.728 0 0 0 14.994453 149.33279 A 1.728 1.728 0 0 0 15.239082 149.23172 A 1.728 1.728 0 0 0 15.410469 149.15994 A 1.728 1.728 0 0 0 15.650704 148.97537 A 1.728 1.728 0 0 0 15.764962 148.88601 A 1.728 1.728 0 0 0 15.776681 148.87723 L 30.029634 134.41187 A 1.728 1.728 0 0 0 30.050142 134.38843 A 1.728 1.728 0 0 0 30.11899 134.31226 A 1.728 1.728 0 0 0 30.239107 134.15699 A 1.728 1.728 0 0 0 30.243502 134.14966 A 1.728 1.728 0 0 0 30.337252 133.98413 A 1.728 1.728 0 0 0 30.381197 133.88892 A 1.728 1.728 0 0 0 30.428072 133.77173 A 1.728 1.728 0 0 0 30.455905 133.6897 A 1.728 1.728 0 0 0 30.49985 133.50366 A 1.728 1.728 0 0 0 30.511569 133.4187 A 1.728 1.728 0 0 0 30.524752 133.26929 A 1.728 1.728 0 0 0 30.527682 133.22681 L 30.54526 132.14575 C 31.348542 131.59932 31.879735 130.67779 31.879735 129.64233 C 31.879735 127.98374 30.514886 126.61889 28.856293 126.61889 z M 36.056012 126.61889 C 34.397419 126.61889 33.03257 127.98374 33.032569 129.64233 C 33.032569 130.67749 33.564154 131.5978 34.367044 132.14429 L 34.399271 134.37671 L 15.510079 153.06522 L -8.1530464 153.07254 C -8.7215028 152.20809 -9.6997508 151.63114 -10.801488 151.63114 C -12.538331 151.63114 -13.968486 153.06276 -13.968486 154.7996 C -13.968486 156.53644 -12.538331 157.96806 -10.801488 157.96806 C -9.7004737 157.96806 -8.7231326 157.39163 -8.1545113 156.52812 L 16.221994 156.52226 A 1.728 1.728 0 0 0 16.468088 156.50175 A 1.728 1.728 0 0 0 16.497385 156.49736 A 1.728 1.728 0 0 0 16.989574 156.34062 A 1.728 1.728 0 0 0 17.002757 156.33329 A 1.728 1.728 0 0 0 17.436352 156.02128 L 37.308455 136.35865 A 1.728 1.728 0 0 0 37.595565 136.01441 A 1.728 1.728 0 0 0 37.595565 136.01295 A 1.728 1.728 0 0 0 37.866561 135.0608 L 37.821151 132.09009 C 38.58039 131.53802 39.079455 130.64367 39.079454 129.64233 C 39.079454 127.98374 37.714604 126.61889 36.056012 126.61889 z M 43.254266 126.61889 C 41.595672 126.61889 40.230823 127.98374 40.230823 129.64233 C 40.230823 130.6624 40.748267 131.57161 41.531607 132.12085 L 41.536001 136.0525 L 17.389477 160.39971 L -8.1457222 160.28398 C -8.7131341 159.41365 -9.6952658 158.83232 -10.801488 158.83232 C -12.538331 158.83232 -13.968486 160.26394 -13.968486 162.00078 C -13.968486 163.73762 -12.538331 165.16924 -10.801488 165.16924 C -9.7053956 165.16924 -8.7315544 164.5981 -8.1618355 163.74102 L 18.099927 163.85821 A 1.728 1.728 0 0 0 18.247876 163.83623 A 1.728 1.728 0 0 0 18.501295 163.79668 A 1.728 1.728 0 0 0 18.767897 163.70879 A 1.728 1.728 0 0 0 18.996413 163.59454 A 1.728 1.728 0 0 0 19.227859 163.42461 A 1.728 1.728 0 0 0 19.334792 163.34551 L 44.493526 137.98023 A 1.728 1.728 0 0 0 44.525752 137.94361 A 1.728 1.728 0 0 0 44.601924 137.85719 A 1.728 1.728 0 0 0 44.68835 137.74146 A 1.728 1.728 0 0 0 44.708858 137.7107 A 1.728 1.728 0 0 0 44.773311 137.60523 A 1.728 1.728 0 0 0 44.823116 137.50855 A 1.728 1.728 0 0 0 44.864132 137.41334 A 1.728 1.728 0 0 0 44.896358 137.32984 A 1.728 1.728 0 0 0 44.943233 137.1731 A 1.728 1.728 0 0 0 44.950558 137.14088 A 1.728 1.728 0 0 0 44.973995 137.01344 A 1.728 1.728 0 0 0 44.987179 136.90357 A 1.728 1.728 0 0 0 44.991573 136.81275 A 1.728 1.728 0 0 0 44.993038 136.76002 L 44.987179 132.11499 C 45.766769 131.56519 46.280638 130.65906 46.280638 129.64233 C 46.280638 127.98374 44.912858 126.61889 43.254266 126.61889 z M 57.655169 126.61889 C 55.996576 126.61889 54.631726 127.98374 54.631726 129.64233 C 54.631726 131.30092 55.996576 132.66724 57.655169 132.66724 C 59.313762 132.66724 60.678611 131.30092 60.678611 129.64233 C 60.678611 127.98374 59.313762 126.61889 57.655169 126.61889 z M 64.856352 126.61889 C 63.19776 126.61889 61.831445 127.98374 61.831445 129.64233 C 61.831445 131.30092 63.19776 132.66724 64.856352 132.66724 C 66.514946 132.66724 67.879795 131.30092 67.879795 129.64233 C 67.879795 127.98374 66.514946 126.61889 64.856352 126.61889 z M 93.655229 126.61889 C 91.996636 126.61889 90.631786 127.98374 90.631786 129.64233 C 90.631786 130.63655 91.122375 131.52539 91.872511 132.07837 L 91.805128 134.91431 A 1.728 1.728 0 0 0 91.806593 134.9275 A 1.728 1.728 0 0 0 91.809522 134.98755 A 1.728 1.728 0 0 0 91.852003 135.33033 A 1.728 1.728 0 0 0 91.872511 135.42115 A 1.728 1.728 0 0 0 92.013136 135.76685 A 1.728 1.728 0 0 0 92.060011 135.84888 A 1.728 1.728 0 0 0 92.292922 136.15797 A 1.728 1.728 0 0 0 92.301711 136.16822 L 104.90378 148.94607 A 1.728 1.728 0 0 0 104.90818 148.95047 A 1.728 1.728 0 0 0 104.94626 148.97976 A 1.728 1.728 0 0 0 105.40622 149.28592 A 1.728 1.728 0 0 0 105.54978 149.34598 A 1.728 1.728 0 0 0 106.12693 149.46023 A 1.728 1.728 0 0 0 106.13718 149.4617 L 166.55476 149.33279 C 167.12382 150.19379 168.09972 150.76688 169.19881 150.76688 C 170.93565 150.76688 172.36727 149.33672 172.36727 147.59988 C 172.36727 145.86304 170.93565 144.43142 169.19881 144.43142 C 168.09437 144.43142 167.11527 145.01069 166.54744 145.87869 L 106.85496 146.0032 L 95.278278 134.26392 L 95.326618 132.15601 C 96.139281 131.61104 96.678671 130.685 96.678671 129.64233 C 96.678671 127.98374 95.313822 126.61889 93.655229 126.61889 z M 100.85641 126.61889 C 99.197822 126.61889 97.831505 127.98374 97.831505 129.64233 C 97.831505 131.30092 99.197822 132.66724 100.85641 132.66724 C 102.51501 132.66724 103.87985 131.30092 103.87985 129.64233 C 103.87985 127.98374 102.51501 126.61889 100.85641 126.61889 z M 169.19881 151.6326 C 168.09293 151.6326 167.112 152.21292 166.54451 153.0828 L 136.79348 153.20585 A 1.728 1.728 0 0 0 136.77444 153.20878 A 1.728 1.728 0 0 0 136.29983 153.28641 A 1.728 1.728 0 0 0 136.15188 153.34794 A 1.728 1.728 0 0 0 135.85452 153.50028 A 1.728 1.728 0 0 0 135.69778 153.61893 A 1.728 1.728 0 0 0 135.5762 153.71268 L 121.40381 167.92023 A 1.728 1.728 0 0 0 121.39649 167.92902 A 1.728 1.728 0 0 0 121.14746 168.25568 A 1.728 1.728 0 0 0 121.12109 168.29962 A 1.728 1.728 0 0 0 120.97315 168.65704 A 1.728 1.728 0 0 0 120.95117 168.73761 A 1.728 1.728 0 0 0 120.90137 169.06134 L 120.84424 170.29181 C 119.99857 170.83028 119.43213 171.77571 119.43213 172.84357 C 119.43213 174.50217 120.79698 175.86702 122.45557 175.86702 C 124.11417 175.86702 125.47901 174.50217 125.47901 172.84357 C 125.47901 171.87471 125.01337 171.00637 124.29542 170.45148 L 124.32178 169.88605 L 137.52151 156.65702 L 166.55769 156.53837 C 167.12717 157.39692 168.10159 157.96806 169.19881 157.96806 C 170.93565 157.96806 172.36727 156.53791 172.36727 154.80106 C 172.36727 153.06422 170.93565 151.6326 169.19881 151.6326 z M 169.19881 158.83086 C 168.10231 158.83086 167.12879 159.40293 166.55916 160.26055 L 140.54203 160.13896 A 1.728 1.728 0 0 0 140.46878 160.15068 A 1.728 1.728 0 0 0 140.07327 160.21074 A 1.728 1.728 0 0 0 139.98831 160.23125 A 1.728 1.728 0 0 0 139.56204 160.44512 A 1.728 1.728 0 0 0 139.46536 160.52275 A 1.728 1.728 0 0 0 139.3057 160.65019 L 130.17238 169.86554 C 130.00427 169.83608 129.8313 169.82013 129.65529 169.82013 C 127.99669 169.82013 126.63185 171.18498 126.63185 172.84357 C 126.63185 174.50217 127.99669 175.86702 129.65529 175.86702 C 131.31388 175.86702 132.67873 174.50217 132.67873 172.84357 C 132.67873 172.65785 132.66165 172.47551 132.62893 172.29865 L 141.25248 163.59746 L 166.54451 163.71758 C 167.11207 164.5871 168.09321 165.16778 169.19881 165.16778 C 170.93565 165.16778 172.36727 163.73616 172.36727 161.99932 C 172.36727 160.26247 170.93565 158.83086 169.19881 158.83086 z M 21.655109 169.82013 C 19.996515 169.82013 18.631665 171.18498 18.631666 172.84357 C 18.631666 174.50217 19.996516 175.86702 21.655109 175.86702 C 23.313702 175.86702 24.678551 174.50217 24.678551 172.84357 C 24.678552 171.18498 23.313702 169.82013 21.655109 169.82013 z M 28.856293 169.82013 C 27.197699 169.82013 25.831384 171.18498 25.831385 172.84357 C 25.831385 174.50217 27.1977 175.86702 28.856293 175.86702 C 30.514886 175.86702 31.879735 174.50217 31.879735 172.84357 C 31.879736 171.18498 30.514886 169.82013 28.856293 169.82013 z M 57.655169 169.82013 C 55.996575 169.82013 54.631725 171.18498 54.631726 172.84357 C 54.631726 174.50217 55.996576 175.86702 57.655169 175.86702 C 59.313762 175.86702 60.678611 174.50217 60.678611 172.84357 C 60.678612 171.18498 59.313763 169.82013 57.655169 169.82013 z M 64.856352 169.82013 C 63.197759 169.82013 61.831444 171.18498 61.831445 172.84357 C 61.831445 174.50217 63.19776 175.86702 64.856352 175.86702 C 66.514946 175.86702 67.879795 174.50217 67.879795 172.84357 C 67.879796 171.18498 66.514946 169.82013 64.856352 169.82013 z M 115.25439 169.82013 C 113.59579 169.82013 112.23094 171.18498 112.23094 172.84357 C 112.23094 174.50217 113.59579 175.86702 115.25439 175.86702 C 116.91297 175.86702 118.28076 174.50217 118.28076 172.84357 C 118.28076 171.18498 116.91297 169.82013 115.25439 169.82013 z M -9.0011924 178.70442 C -11.700594 178.70442 -13.895243 180.89907 -13.895243 183.59847 C -13.895244 186.29788 -11.700594 188.49546 -9.0011924 188.49546 C -6.3017904 188.49546 -4.1042116 186.29788 -4.1042116 183.59847 C -4.1042116 180.89907 -6.3017905 178.70442 -9.0011924 178.70442 z M 165.59968 178.70589 C 162.90028 178.70589 160.70563 180.90054 160.70563 183.59994 C 160.70563 186.29934 162.90028 188.49692 165.59968 188.49692 C 168.29909 188.49692 170.49667 186.29934 170.49667 183.59994 C 170.49667 180.90054 168.29909 178.70589 165.59968 178.70589 z " />
      </g>
    </g>
  </g>
  <g
     partID="93240"
     id="g69">
    <g
       transform="translate(19.2141,76.7719)"
       id="g67">
      <g
         stroke-width="0"
         id="g65" />
    </g>
  </g>
  <g
     partID="94980"
     id="g111">
    <g
       transform="translate(19.2698,138.015)"
       id="g109">
      <g
         stroke-width="0"
         id="g107" />
    </g>
  </g>
  <g
     partID="59790"
     id="g120">
    <g
       transform="translate(183.318,35.6891)"
       id="g118">
      <g
         id="g116" />
    </g>
  </g>
  <g
     partID="93250"
     id="g132">
    <g
       transform="translate(183.318,96.8891)"
       id="g130">
      <g
         id="g128" />
    </g>
  </g>
  <g
     partID="94990"
     id="g144">
    <g
       transform="translate(183.374,158.132)"
       id="g142">
      <g
         id="g140" />
    </g>
  </g>
  <g
     partID="58910"
     id="g157">
    <g
       transform="translate(3.31845,28.4891)"
       id="g155">
      <g
         id="g153" />
    </g>
  </g>
  <g
     partID="93260"
     id="g171">
    <g
       transform="translate(3.31845,89.6891)"
       id="g169">
      <g
         id="g167" />
    </g>
  </g>
  <g
     partID="95000"
     id="g185">
    <g
       transform="translate(3.37413,150.932)"
       id="g183">
      <g
         id="g181" />
    </g>
  </g>
  <g
     partID="66210"
     id="g197">
    <g
       transform="translate(147.374,13.4119)"
       id="g195">
      <g
         transform="matrix(0,-1,1,0,0,0)"
         id="g193">
        <g
           id="g191" />
      </g>
    </g>
  </g>
  <g
     partID="66180"
     id="g209">
    <g
       transform="translate(125.774,13.4119)"
       id="g207">
      <g
         transform="matrix(0,-1,1,0,0,0)"
         id="g205">
        <g
           id="g203" />
      </g>
    </g>
  </g>
  <g
     partID="70870"
     id="g216">
    <g
       transform="translate(4.07869,193.036)"
       id="g214">
      <g
         id="g212" />
    </g>
  </g>
  <g
     partID="97470"
     id="g224">
    <g
       transform="translate(178.679,193.037)"
       id="g222">
      <g
         id="g220" />
    </g>
  </g>
  <g
     partID="70850"
     id="g232">
    <g
       transform="translate(4.07869,4.03649)"
       id="g230">
      <g
         id="g228" />
    </g>
  </g>
  <g
     partID="97480"
     id="g240">
    <g
       transform="translate(178.679,4.03649)"
       id="g238">
      <g
         id="g236" />
    </g>
  </g>
  <g
     partID="92050"
     id="g248">
    <g
       transform="translate(154.862,28.8199)"
       id="g246">
      <g
         id="g244" />
    </g>
  </g>
  <g
     partID="93300"
     id="g258">
    <g
       transform="translate(129.662,90.0199)"
       id="g256">
      <g
         id="g254" />
    </g>
  </g>
  <g
     partID="93290"
     id="g268">
    <g
       transform="translate(154.862,90.0199)"
       id="g266">
      <g
         id="g264" />
    </g>
  </g>
  <g
     partID="92250"
     id="g278">
    <g
       transform="translate(129.662,28.8199)"
       id="g276">
      <g
         id="g274" />
    </g>
  </g>
  <g
     partID="97510"
     id="g288">
    <g
       transform="translate(183.374,132.932)"
       id="g286">
      <g
         id="g284" />
    </g>
  </g>
  <g
     partID="66670"
     id="g292" />
  <g
     partID="59140"
     id="g296" />
  <g
     partID="93320"
     id="g300" />
  <g
     partID="95040"
     id="g304" />
  <g
     partID="59210"
     id="g308" />
  <g
     partID="93330"
     id="g312" />
  <g
     partID="95050"
     id="g316" />
  <g
     partID="59280"
     id="g320" />
  <g
     partID="93340"
     id="g324" />
  <g
     partID="95060"
     id="g328" />
  <g
     partID="59070"
     id="g332" />
  <g
     partID="95070"
     id="g336" />
  <g
     partID="93350"
     id="g340" />
  <g
     partID="59420"
     id="g344" />
  <g
     partID="95080"
     id="g348" />
  <g
     partID="93360"
     id="g352" />
  <g
     partID="59350"
     id="g356" />
  <g
     partID="95090"
     id="g360" />
  <g
     partID="93370"
     id="g364" />
  <g
     partID="59000"
     id="g368" />
  <g
     partID="95100"
     id="g372" />
  <g
     partID="93380"
     id="g376" />
  <g
     partID="59560"
     id="g380" />
  <g
     partID="95110"
     id="g384" />
  <g
     partID="93390"
     id="g388" />
  <g
     partID="59490"
     id="g392" />
  <g
     partID="95120"
     id="g396" />
  <g
     partID="93400"
     id="g400" />
  <g
     partID="58930"
     id="g404" />
  <g
     partID="95130"
     id="g408" />
  <g
     partID="93410"
     id="g412" />
  <g
     partID="59630"
     id="g416" />
  <g
     partID="93420"
     id="g420" />
  <g
     partID="95140"
     id="g424" />
  <g
     partID="60000"
     id="g428" />
  <g
     partID="93430"
     id="g432" />
  <g
     partID="95150"
     id="g436" />
  <g
     partID="97180"
     id="g440" />
  <g
     partID="66230"
     id="g444" />
  <g
     partID="97290"
     id="g448" />
  <g
     partID="66820"
     id="g452" />
  <g
     partID="91810"
     id="g456" />
  <g
     partID="91920"
     id="g460" />
  <g
     partID="97400"
     id="g464" />
  <g
     partID="92100"
     id="g468" />
  <g
     partID="96660"
     id="g472" />
  <g
     partID="96730"
     id="g476" />
  <g
     partID="95160"
     id="g480" />
  <g
     partID="93490"
     id="g484" />
  <g
     partID="96990"
     id="g488" />
  <g
     partID="92270"
     id="g492" />
  <g
     partID="93510"
     id="g496" />
  <g
     partID="93500"
     id="g500" />
  <g
     partID="92380"
     id="g504" />
  <g
     partID="93520"
     id="g508" />
  <g
     partID="92490"
     id="g512" />
  <g
     partID="93530"
     id="g516" />
  <g
     partID="92600"
     id="g520" />
  <g
     partID="93540"
     id="g524" />
  <g
     partID="92710"
     id="g528" />
  <g
     partID="93550"
     id="g532" />
  <g
     partID="95220"
     id="g536" />
  <g
     partID="92780"
     id="g540" />
  <g
     partID="93560"
     id="g544" />
  <g
     partID="95230"
     id="g548" />
  <g
     partID="92850"
     id="g552" />
  <g
     partID="95240"
     id="g556" />
  <g
     partID="93570"
     id="g560" />
  <g
     partID="92990"
     id="g564" />
  <g
     partID="95250"
     id="g568" />
  <g
     partID="93580"
     id="g572" />
  <g
     partID="93060"
     id="g576" />
  <g
     partID="95260"
     id="g580" />
  <g
     partID="93590"
     id="g584" />
  <g
     partID="92920"
     id="g588" />
  <g
     partID="95270"
     id="g592" />
  <g
     partID="93600"
     id="g596" />
  <g
     partID="94540"
     id="g600" />
  <g
     partID="94650"
     id="g604" />
  <g
     partID="94760"
     id="g608" />
  <g
     partID="94870"
     id="g612" />
  <g
     partID="96070"
     id="g616" />
  <g
     partID="95960"
     id="g620" />
  <g
     partID="96800"
     id="g624" />
  <g
     partID="96180"
     id="g628" />
  <g
     partID="97540"
     id="g632" />
  <g
     partID="97990"
     id="g636" />
  <g
     partID="97840"
     id="g640" />
  <g
     partID="97690"
     id="g644" />
  <g
     partID="98140"
     id="g648" />
  <g
     partID="57830"
     id="g652">
    <g
       id="g650" />
  </g>
  <g
     partID="58850"
     id="g694">
    <g
       transform="translate(19.2141,15.5719)"
       id="g692">
      <g
         stroke-width="0"
         id="g690" />
    </g>
  </g>
  <g
     partID="94980"
     id="g736">
    <g
       transform="translate(19.2698,138.015)"
       id="g734">
      <g
         stroke-width="0"
         id="g732" />
    </g>
  </g>
  <g
     partID="93240"
     id="g778">
    <g
       transform="translate(19.2141,76.7719)"
       id="g776">
      <g
         stroke-width="0"
         id="g774" />
    </g>
  </g>
  <g
     partID="59790"
     id="g790">
    <g
       transform="translate(183.318,35.6891)"
       id="g788">
      <g
         id="g786" />
    </g>
  </g>
  <g
     partID="94990"
     id="g802">
    <g
       transform="translate(183.374,158.132)"
       id="g800">
      <g
         id="g798" />
    </g>
  </g>
  <g
     partID="93250"
     id="g814">
    <g
       transform="translate(183.318,96.8891)"
       id="g812">
      <g
         id="g810" />
    </g>
  </g>
  <g
     partID="58910"
     id="g828">
    <g
       transform="translate(3.31845,28.4891)"
       id="g826">
      <g
         id="g824" />
    </g>
  </g>
  <g
     partID="93260"
     id="g842">
    <g
       transform="translate(3.31845,89.6891)"
       id="g840">
      <g
         id="g838" />
    </g>
  </g>
  <g
     partID="95000"
     id="g856">
    <g
       transform="translate(3.37413,150.932)"
       id="g854">
      <g
         id="g852" />
    </g>
  </g>
  <g
     partID="66210"
     id="g868">
    <g
       transform="translate(147.374,13.4119)"
       id="g866">
      <g
         transform="matrix(0,-1,1,0,0,0)"
         id="g864">
        <g
           id="g862" />
      </g>
    </g>
  </g>
  <g
     partID="66180"
     id="g880">
    <g
       transform="translate(125.774,13.4119)"
       id="g878">
      <g
         transform="matrix(0,-1,1,0,0,0)"
         id="g876">
        <g
           id="g874" />
      </g>
    </g>
  </g>
  <g
     partID="70870"
     id="g888">
    <g
       transform="translate(4.07869,193.036)"
       id="g886">
      <g
         id="g884" />
    </g>
  </g>
  <g
     partID="97470"
     id="g896">
    <g
       transform="translate(178.679,193.037)"
       id="g894">
      <g
         id="g892" />
    </g>
  </g>
  <g
     partID="70850"
     id="g904">
    <g
       transform="translate(4.07869,4.03649)"
       id="g902">
      <g
         id="g900" />
    </g>
  </g>
  <g
     partID="97480"
     id="g912">
    <g
       transform="translate(178.679,4.03649)"
       id="g910">
      <g
         id="g908" />
    </g>
  </g>
  <g
     partID="92050"
     id="g922">
    <g
       transform="translate(154.862,28.8199)"
       id="g920">
      <g
         id="g918" />
    </g>
  </g>
  <g
     partID="93290"
     id="g932">
    <g
       transform="translate(154.862,90.0199)"
       id="g930">
      <g
         id="g928" />
    </g>
  </g>
  <g
     partID="93300"
     id="g942">
    <g
       transform="translate(129.662,90.0199)"
       id="g940">
      <g
         id="g938" />
    </g>
  </g>
  <g
     partID="92250"
     id="g952">
    <g
       transform="translate(129.662,28.8199)"
       id="g950">
      <g
         id="g948" />
    </g>
  </g>
  <g
     partID="97510"
     id="g962">
    <g
       transform="translate(183.374,132.932)"
       id="g960">
      <g
         id="g958" />
    </g>
  </g>
</svg>
