<?xml version="1.0" encoding="UTF-8" standalone="no"?>
<svg
   y="0in"
   width="2.71869in"
   viewBox="0 0 195.746 208.49"
   height="2.8957in"
   version="1.2"
   x="0in"
   id="svg651"
   sodipodi:docname="toptrace.svg"
   xmlns:inkscape="http://www.inkscape.org/namespaces/inkscape"
   xmlns:sodipodi="http://sodipodi.sourceforge.net/DTD/sodipodi-0.dtd"
   xmlns="http://www.w3.org/2000/svg"
   xmlns:svg="http://www.w3.org/2000/svg">
  <defs
     id="defs655" />
  <sodipodi:namedview
     id="namedview653"
     pagecolor="#ffffff"
     bordercolor="#000000"
     borderopacity="0.25"
     inkscape:showpageshadow="2"
     inkscape:pageopacity="0.0"
     inkscape:pagecheckerboard="0"
     inkscape:deskcolor="#d1d1d1"
     inkscape:document-units="in" />
  <g
     partID="57830"
     id="g3">
    <g
       id="board" />
  </g>
  <g
     partID="58852"
     id="g28">
    <g
       transform="translate(19.2141,15.5719)"
       id="g26">
      <g
         stroke-width="0"
         id="copper1">
        <g
           stroke-width="0"
           id="copper0">
          <path
             id="connector49pad"
             style="color:#000000;fill:#000000;-inkscape-stroke:none"
             d="M 111.59959 -10.367669 C 109.86275 -10.367669 108.43113 -8.9360487 108.43113 -7.1992062 C 108.43113 -5.4623637 109.86275 -4.0307439 111.59959 -4.0307439 C 113.33644 -4.030744 114.76659 -5.4623637 114.76659 -7.1992062 C 114.76659 -8.9360486 113.33644 -10.367668 111.59959 -10.367669 z M 118.80078 -10.367669 C 117.06394 -10.367668 115.63232 -8.9360486 115.63232 -7.1992062 C 115.63232 -5.4623637 117.06394 -4.030744 118.80078 -4.0307439 C 120.53762 -4.030744 121.96778 -5.4623637 121.96778 -7.1992062 C 121.96778 -8.9360486 120.53762 -10.367668 118.80078 -10.367669 z M 133.19875 -10.367669 C 131.46191 -10.367669 130.03029 -8.9360487 130.03029 -7.1992062 C 130.03029 -5.4623637 131.46191 -4.0307439 133.19875 -4.0307439 C 134.93559 -4.030744 136.36721 -5.4623637 136.36721 -7.1992062 C 136.36721 -8.9360486 134.93559 -10.367668 133.19875 -10.367669 z M 140.39994 -10.367669 C 138.66309 -10.367668 137.23147 -8.9360486 137.23147 -7.1992062 C 137.23147 -5.4623637 138.66309 -4.030744 140.39994 -4.0307439 C 142.13678 -4.030744 143.5684 -5.4623637 143.5684 -7.1992062 C 143.5684 -8.9360486 142.13678 -10.367668 140.39994 -10.367669 z M -9.0011924 -10.295891 C -11.700594 -10.295891 -13.895243 -8.0997769 -13.895243 -5.4003751 C -13.895244 -2.7009732 -11.700594 -0.50485913 -9.0011924 -0.50485913 C -6.3017904 -0.50485913 -4.1042116 -2.7009731 -4.1042116 -5.4003751 C -4.1042116 -8.099777 -6.3017905 -10.295891 -9.0011924 -10.295891 z M 165.59968 -10.295891 C 162.90028 -10.295891 160.70563 -8.0997769 160.70563 -5.4003751 C 160.70563 -2.7009732 162.90028 -0.50485913 165.59968 -0.50485913 C 168.29909 -0.50485913 170.49667 -2.7009731 170.49667 -5.4003751 C 170.49667 -8.099777 168.29909 -10.295891 165.59968 -10.295891 z M 18.576002 4.1753244 L 18.576002 5.1479823 L 18.576002 10.225139 L 24.622887 10.225139 L 24.622887 4.1753244 L 18.576002 4.1753244 z M 28.800628 4.1753244 C 27.142036 4.1753244 25.775721 5.5401742 25.775721 7.198767 C 25.775721 8.8573598 27.142036 10.225139 28.800628 10.225139 C 30.459222 10.225139 31.824071 8.8573598 31.824071 7.198767 C 31.824071 5.5401742 30.459222 4.1753244 28.800628 4.1753244 z M 36.000347 4.1753244 C 34.341755 4.1753244 32.976906 5.5401742 32.976905 7.198767 C 32.976905 8.8573598 34.341755 10.225139 36.000347 10.225139 C 37.65894 10.225139 39.023791 8.8573598 39.02379 7.198767 C 39.02379 5.5401742 37.65894 4.1753245 36.000347 4.1753244 z M 43.198602 4.1753244 C 41.540008 4.1753244 40.175159 5.5401742 40.175159 7.198767 C 40.175159 8.8573598 41.540008 10.225139 43.198602 10.225139 C 44.857194 10.225139 46.224974 8.8573598 46.224974 7.198767 C 46.224974 5.5401742 44.857194 4.1753245 43.198602 4.1753244 z M 57.599504 4.1753244 C 55.940912 4.1753245 54.576062 5.5401742 54.576062 7.198767 C 54.576062 8.8573598 55.940912 10.225139 57.599504 10.225139 C 59.258098 10.22514 60.622947 8.8573604 60.622947 7.198767 C 60.622947 5.5401737 59.258098 4.1753236 57.599504 4.1753244 z M 64.800688 4.1753244 C 63.142096 4.1753244 61.775781 5.5401742 61.775781 7.198767 C 61.775781 8.8573598 63.142096 10.225139 64.800688 10.225139 C 66.459282 10.225139 67.824131 8.8573598 67.824131 7.198767 C 67.824131 5.5401742 66.459282 4.1753245 64.800688 4.1753244 z M 93.599564 4.1753244 C 91.940972 4.1753245 90.576122 5.5401742 90.576122 7.198767 C 90.576122 8.8573598 91.940972 10.225139 93.599564 10.225139 C 95.258158 10.22514 96.623007 8.8573604 96.623007 7.198767 C 96.623007 5.5401737 95.258158 4.1753236 93.599564 4.1753244 z M 100.80075 4.1753244 C 99.142158 4.1753269 97.775841 5.5401759 97.775841 7.198767 C 97.775841 8.8573582 99.142158 10.225137 100.80075 10.225139 C 102.45935 10.225139 103.82419 8.8573598 103.82419 7.198767 C 103.82419 5.5401742 102.45935 4.1753245 100.80075 4.1753244 z M 122.39991 4.1753244 C 120.74132 4.1753244 119.37646 5.5401742 119.37646 7.198767 C 119.37646 8.8573598 120.74132 10.225139 122.39991 10.225139 C 124.0585 10.225139 125.42335 8.8573598 125.42335 7.198767 C 125.42335 5.5401742 124.0585 4.1753245 122.39991 4.1753244 z M 129.59962 4.1753244 C 127.94103 4.1753245 126.57618 5.5401742 126.57618 7.198767 C 126.57618 8.8573598 127.94103 10.225139 129.59962 10.225139 C 131.25821 10.225139 132.62307 8.8573598 132.62307 7.198767 C 132.62307 5.5401742 131.25821 4.1753244 129.59962 4.1753244 z M -10.857152 14.788135 C -12.593995 14.788135 -14.02415 16.219755 -14.02415 17.956597 C -14.02415 19.69344 -12.593995 21.123595 -10.857152 21.123595 C -9.1203101 21.123595 -7.6886903 19.69344 -7.6886902 17.956597 C -7.6886902 16.219755 -9.12031 14.788135 -10.857152 14.788135 z M 115.20019 14.939014 C 113.52299 14.939014 112.13866 16.323347 112.13866 18.000543 C 112.13866 19.677739 113.52299 21.060607 115.20019 21.060606 C 116.87738 21.060606 118.26025 19.677739 118.26025 18.000543 C 118.26025 16.323347 116.87738 14.939014 115.20019 14.939014 z M 140.39994 14.939014 C 138.72274 14.939014 137.33987 16.323347 137.33987 18.000543 C 137.33987 19.677739 138.72274 21.060607 140.39994 21.060606 C 142.07713 21.060606 143.46 19.677739 143.46 18.000543 C 143.46 16.323347 142.07713 14.939014 140.39994 14.939014 z M 169.14315 21.987854 C 167.4063 21.987854 165.97468 23.419474 165.97468 25.156316 C 165.97468 26.893159 167.4063 28.324779 169.14315 28.324779 C 170.87999 28.324779 172.31161 26.893159 172.31161 25.156316 C 172.31161 23.419474 170.87999 21.987854 169.14315 21.987854 z M -10.857152 21.989319 C -12.593995 21.989319 -14.02415 23.420939 -14.02415 25.157781 C -14.02415 26.894625 -12.593995 28.324779 -10.857152 28.324779 C -9.1203101 28.324779 -7.6886903 26.894624 -7.6886902 25.157781 C -7.6886903 23.420939 -9.1203101 21.989319 -10.857152 21.989319 z M -10.857152 29.189038 C -12.593995 29.189038 -14.024151 30.619192 -14.02415 32.356035 C -14.02415 34.092878 -12.593995 35.524498 -10.857152 35.524498 C -9.1203101 35.524498 -7.6886903 34.092878 -7.6886902 32.356035 C -7.6886895 30.619192 -9.1203095 29.189038 -10.857152 29.189038 z M 169.14315 29.189038 C 167.4063 29.189038 165.97468 30.620658 165.97468 32.3575 C 165.97468 34.094344 167.4063 35.525963 169.14315 35.525963 C 170.87999 35.525963 172.31161 34.094343 172.31161 32.3575 C 172.31161 30.620658 170.87999 29.189038 169.14315 29.189038 z M 115.20019 29.339917 C 113.52299 29.339917 112.13866 30.722784 112.13866 32.399981 C 112.13866 34.077176 113.52299 35.461509 115.20019 35.461509 C 116.87738 35.461509 118.26025 34.077176 118.26025 32.399981 C 118.26025 30.722784 116.87738 29.339917 115.20019 29.339917 z M 169.14315 36.388757 C 167.4063 36.388757 165.97468 37.820376 165.97468 39.557219 C 165.97468 41.294062 167.4063 42.724217 169.14315 42.724217 C 170.87999 42.724217 172.31161 41.294062 172.31161 39.557219 C 172.31161 37.820376 170.87999 36.388757 169.14315 36.388757 z M -10.857152 36.390222 C -12.593995 36.390222 -14.02415 37.820377 -14.02415 39.557219 C -14.02415 41.294062 -12.593995 42.725682 -10.857152 42.725682 C -9.1203101 42.725682 -7.6886903 41.294062 -7.6886902 39.557219 C -7.6886903 37.820377 -9.1203101 36.390222 -10.857152 36.390222 z M 140.39994 47.339947 C 138.72274 47.339947 137.33987 48.722814 137.33987 50.400011 C 137.33987 52.077206 138.72274 53.461539 140.39994 53.461539 C 142.07713 53.461539 143.46 52.077206 143.46 50.400011 C 143.46 48.722814 142.07713 47.339947 140.39994 47.339947 z M 21.599445 47.376568 C 19.940851 47.376568 18.576001 48.741417 18.576002 50.400011 C 18.576002 52.058603 19.940852 53.423453 21.599445 53.423453 C 23.258038 53.423453 24.622887 52.058603 24.622887 50.400011 C 24.622888 48.741417 23.258038 47.376568 21.599445 47.376568 z M 28.800628 47.376568 C 27.142035 47.376568 25.77572 48.741417 25.775721 50.400011 C 25.775721 52.058603 27.142036 53.423453 28.800628 53.423453 C 30.459222 53.423453 31.824071 52.058603 31.824071 50.400011 C 31.824072 48.741417 30.459222 47.376568 28.800628 47.376568 z M 57.599504 47.376568 C 55.940911 47.376568 54.576061 48.741417 54.576062 50.400011 C 54.576062 52.058603 55.940912 53.423453 57.599504 53.423453 C 59.258098 53.423454 60.622947 52.058604 60.622947 50.400011 C 60.622948 48.741416 59.258099 47.376567 57.599504 47.376568 z M 64.800688 47.376568 C 63.142095 47.376568 61.77578 48.741417 61.775781 50.400011 C 61.775781 52.058603 63.142096 53.423453 64.800688 53.423453 C 66.459282 53.423453 67.824131 52.058603 67.824131 50.400011 C 67.824132 48.741417 66.459282 47.376568 64.800688 47.376568 z M 115.19872 47.376568 C 113.54012 47.376568 112.17528 48.741417 112.17528 50.400011 C 112.17528 52.058603 113.54012 53.423453 115.19872 53.423453 C 116.85731 53.423453 118.22509 52.058603 118.22509 50.400011 C 118.22509 48.741417 116.85731 47.376568 115.19872 47.376568 z M 122.39991 47.376568 C 120.74132 47.376568 119.37646 48.741417 119.37646 50.400011 C 119.37646 52.058603 120.74132 53.423453 122.39991 53.423453 C 124.0585 53.423453 125.42335 52.058603 125.42335 50.400011 C 125.42335 48.741417 124.0585 47.376568 122.39991 47.376568 z M 129.59962 47.376568 C 127.94103 47.376568 126.57618 48.741417 126.57618 50.400011 C 126.57618 52.058603 127.94103 53.423453 129.59962 53.423453 C 131.25821 53.423453 132.62307 52.058603 132.62307 50.400011 C 132.62307 48.741417 131.25821 47.376568 129.59962 47.376568 z M 18.576002 65.375133 L 18.576002 66.347791 L 18.576002 71.424948 L 24.622887 71.424948 L 24.622887 65.375133 L 18.576002 65.375133 z M 28.800628 65.375133 C 27.142036 65.375133 25.775721 66.739983 25.775721 68.398576 C 25.775721 70.057169 27.142036 71.424948 28.800628 71.424948 C 30.459222 71.424948 31.824071 70.057169 31.824071 68.398576 C 31.824071 66.739983 30.459222 65.375133 28.800628 65.375133 z M 36.000347 65.375133 C 34.341755 65.375133 32.976906 66.739983 32.976905 68.398576 C 32.976905 70.057169 34.341755 71.424948 36.000347 71.424948 C 37.65894 71.424948 39.023791 70.057169 39.02379 68.398576 C 39.02379 66.739983 37.65894 65.375133 36.000347 65.375133 z M 43.198602 65.375133 C 41.540008 65.375133 40.175159 66.739983 40.175159 68.398576 C 40.175159 70.057169 41.540008 71.424948 43.198602 71.424948 C 44.857194 71.424948 46.224974 70.057169 46.224974 68.398576 C 46.224974 66.739983 44.857194 65.375133 43.198602 65.375133 z M 57.599504 65.375133 C 55.940912 65.375133 54.576062 66.739983 54.576062 68.398576 C 54.576062 70.057169 55.940912 71.424948 57.599504 71.424948 C 59.258098 71.424949 60.622947 70.057169 60.622947 68.398576 C 60.622947 66.739983 59.258098 65.375133 57.599504 65.375133 z M 64.800688 65.375133 C 63.142096 65.375133 61.775781 66.739983 61.775781 68.398576 C 61.775781 70.057169 63.142096 71.424948 64.800688 71.424948 C 66.459282 71.424948 67.824131 70.057169 67.824131 68.398576 C 67.824131 66.739983 66.459282 65.375133 64.800688 65.375133 z M 93.599564 65.375133 C 91.940972 65.375133 90.576122 66.739983 90.576122 68.398576 C 90.576122 70.057169 91.940972 71.424948 93.599564 71.424948 C 95.258158 71.424949 96.623007 70.057169 96.623007 68.398576 C 96.623007 66.739983 95.258158 65.375133 93.599564 65.375133 z M 100.80075 65.375133 C 99.142158 65.375136 97.775841 66.739985 97.775841 68.398576 C 97.775841 70.057167 99.142158 71.424946 100.80075 71.424948 C 102.45935 71.424948 103.82419 70.057169 103.82419 68.398576 C 103.82419 66.739983 102.45935 65.375133 100.80075 65.375133 z M 122.39991 65.375133 C 120.74132 65.375133 119.37646 66.739983 119.37646 68.398576 C 119.37646 70.057169 120.74132 71.424948 122.39991 71.424948 C 124.0585 71.424948 125.42335 70.057169 125.42335 68.398576 C 125.42335 66.739983 124.0585 65.375133 122.39991 65.375133 z M 129.59962 65.375133 C 127.94103 65.375133 126.57618 66.739983 126.57618 68.398576 C 126.57618 70.057169 127.94103 71.424948 129.59962 71.424948 C 131.25821 71.424948 132.62307 70.057169 132.62307 68.398576 C 132.62307 66.739983 131.25821 65.375133 129.59962 65.375133 z M -10.857152 75.987944 C -12.593995 75.987944 -14.02415 77.419564 -14.02415 79.156406 C -14.02415 80.893249 -12.593995 82.324869 -10.857152 82.324869 C -9.1203101 82.324869 -7.6886903 80.893249 -7.6886902 79.156406 C -7.6886902 77.419564 -9.12031 75.987944 -10.857152 75.987944 z M 115.20019 76.138823 C 113.52299 76.138823 112.13866 77.523156 112.13866 79.200352 C 112.13866 80.877548 113.52299 82.260415 115.20019 82.260415 C 116.87738 82.260415 118.26025 80.877548 118.26025 79.200352 C 118.26025 77.523156 116.87738 76.138823 115.20019 76.138823 z M 140.39994 76.138823 C 138.72274 76.138823 137.33987 77.523156 137.33987 79.200352 C 137.33987 80.877548 138.72274 82.260415 140.39994 82.260415 C 142.07713 82.260415 143.46 80.877548 143.46 79.200352 C 143.46 77.523156 142.07713 76.138823 140.39994 76.138823 z M 169.14315 83.187663 C 167.4063 83.187663 165.97468 84.619283 165.97468 86.356125 C 165.97468 88.092968 167.4063 89.524588 169.14315 89.524588 C 170.87999 89.524588 172.31161 88.092968 172.31161 86.356125 C 172.31161 84.619283 170.87999 83.187663 169.14315 83.187663 z M -10.857152 83.189128 C -12.593995 83.189128 -14.02415 84.620748 -14.02415 86.35759 C -14.02415 88.094433 -12.593995 89.526052 -10.857152 89.526052 C -9.1203101 89.526052 -7.6886903 88.094432 -7.6886902 86.35759 C -7.6886903 84.620748 -9.1203101 83.189128 -10.857152 83.189128 z M -10.857152 90.388847 C -12.593995 90.388847 -14.024151 91.820466 -14.02415 93.557309 C -14.02415 95.294151 -12.593995 96.724307 -10.857152 96.724307 C -9.1203101 96.724307 -7.6886903 95.294151 -7.6886902 93.557309 C -7.6886895 91.820466 -9.1203095 90.388847 -10.857152 90.388847 z M 169.14315 90.388847 C 167.4063 90.388847 165.97468 91.820467 165.97468 93.557309 C 165.97468 95.294152 167.4063 96.725771 169.14315 96.725771 C 170.87999 96.725771 172.31161 95.294151 172.31161 93.557309 C 172.31161 91.820467 170.87999 90.388847 169.14315 90.388847 z M 115.20019 90.539726 C 113.52299 90.539726 112.13866 91.922593 112.13866 93.59979 C 112.13866 95.276985 113.52299 96.661318 115.20019 96.661318 C 116.87738 96.661318 118.26025 95.276985 118.26025 93.59979 C 118.26025 91.922593 116.87738 90.539726 115.20019 90.539726 z M 169.14315 97.588566 C 167.4063 97.588566 165.97468 99.020185 165.97468 100.75703 C 165.97468 102.49387 167.4063 103.92403 169.14315 103.92403 C 170.87999 103.92403 172.31161 102.49387 172.31161 100.75703 C 172.31161 99.020185 170.87999 97.588566 169.14315 97.588566 z M -10.857152 97.590031 C -12.593995 97.590031 -14.02415 99.021651 -14.02415 100.75849 C -14.02415 102.49534 -12.593995 103.92549 -10.857152 103.92549 C -9.1203101 103.92549 -7.6886903 102.49534 -7.6886902 100.75849 C -7.6886903 99.021651 -9.1203101 97.590031 -10.857152 97.590031 z M 140.39994 108.53976 C 138.72274 108.53976 137.33987 109.92262 137.33987 111.59982 C 137.33987 113.27702 138.72274 114.66135 140.39994 114.66135 C 142.07713 114.66135 143.46 113.27702 143.46 111.59982 C 143.46 109.92262 142.07713 108.53976 140.39994 108.53976 z M 21.599445 108.57638 C 19.940851 108.57638 18.576001 109.94123 18.576002 111.59982 C 18.576002 113.25841 19.940852 114.62326 21.599445 114.62326 C 23.258038 114.62326 24.622887 113.25841 24.622887 111.59982 C 24.622888 109.94123 23.258038 108.57638 21.599445 108.57638 z M 28.800628 108.57638 C 27.142035 108.57638 25.77572 109.94123 25.775721 111.59982 C 25.775721 113.25841 27.142036 114.62326 28.800628 114.62326 C 30.459222 114.62326 31.824071 113.25841 31.824071 111.59982 C 31.824072 109.94123 30.459222 108.57638 28.800628 108.57638 z M 57.599504 108.57638 C 55.940911 108.57638 54.576061 109.94123 54.576062 111.59982 C 54.576062 113.25841 55.940912 114.62326 57.599504 114.62326 C 59.258098 114.62326 60.622947 113.25841 60.622947 111.59982 C 60.622948 109.94123 59.258099 108.57638 57.599504 108.57638 z M 64.800688 108.57638 C 63.142095 108.57638 61.77578 109.94123 61.775781 111.59982 C 61.775781 113.25841 63.142096 114.62326 64.800688 114.62326 C 66.459282 114.62326 67.824131 113.25841 67.824131 111.59982 C 67.824132 109.94123 66.459282 108.57638 64.800688 108.57638 z M 115.19872 108.57638 C 113.54012 108.57638 112.17528 109.94123 112.17528 111.59982 C 112.17528 113.25841 113.54012 114.62326 115.19872 114.62326 C 116.85731 114.62326 118.22509 113.25841 118.22509 111.59982 C 118.22509 109.94123 116.85731 108.57638 115.19872 108.57638 z M 122.39991 108.57638 C 120.74132 108.57638 119.37646 109.94123 119.37646 111.59982 C 119.37646 113.25841 120.74132 114.62326 122.39991 114.62326 C 124.0585 114.62326 125.42335 113.25841 125.42335 111.59982 C 125.42335 109.94123 124.0585 108.57638 122.39991 108.57638 z M 129.59962 108.57638 C 127.94103 108.57638 126.57618 109.94123 126.57618 111.59982 C 126.57618 113.25841 127.94103 114.62326 129.59962 114.62326 C 131.25821 114.62326 132.62307 113.25841 132.62307 111.59982 C 132.62307 109.94123 131.25821 108.57638 129.59962 108.57638 z M 169.19881 119.23167 C 167.46197 119.23167 166.03035 120.66182 166.03035 122.39867 C 166.03035 124.13551 167.46197 125.56713 169.19881 125.56713 C 170.93565 125.56713 172.36727 124.13551 172.36727 122.39867 C 172.36727 120.66182 170.93565 119.23167 169.19881 119.23167 z M 169.19881 126.43285 C 167.46197 126.43285 166.03035 127.86301 166.03035 129.59985 C 166.03035 131.33669 167.46197 132.76831 169.19881 132.76831 C 170.93565 132.76831 172.36727 131.33669 172.36727 129.59985 C 172.36727 127.86301 170.93565 126.43285 169.19881 126.43285 z M 18.631666 126.61889 L 18.631666 127.59155 L 18.631666 132.66724 L 24.678551 132.66724 L 24.678551 126.61889 L 18.631666 126.61889 z M 28.856293 126.61889 C 27.1977 126.61889 25.831385 127.98374 25.831385 129.64233 C 25.831385 131.30092 27.1977 132.66724 28.856293 132.66724 C 30.514886 132.66724 31.879735 131.30092 31.879735 129.64233 C 31.879735 127.98374 30.514886 126.61889 28.856293 126.61889 z M 36.056012 126.61889 C 34.397419 126.61889 33.03257 127.98374 33.032569 129.64233 C 33.032569 131.30092 34.397419 132.66724 36.056012 132.66724 C 37.714604 132.66724 39.079455 131.30092 39.079454 129.64233 C 39.079454 127.98374 37.714604 126.61889 36.056012 126.61889 z M 43.254266 126.61889 C 41.595672 126.61889 40.230823 127.98374 40.230823 129.64233 C 40.230823 131.30092 41.595672 132.66724 43.254266 132.66724 C 44.912858 132.66724 46.280638 131.30092 46.280638 129.64233 C 46.280638 127.98374 44.912858 126.61889 43.254266 126.61889 z M 57.655169 126.61889 C 55.996576 126.61889 54.631726 127.98374 54.631726 129.64233 C 54.631726 131.30092 55.996576 132.66724 57.655169 132.66724 C 59.313762 132.66724 60.678611 131.30092 60.678611 129.64233 C 60.678611 127.98374 59.313762 126.61889 57.655169 126.61889 z M 64.856352 126.61889 C 63.19776 126.61889 61.831445 127.98374 61.831445 129.64233 C 61.831445 131.30092 63.19776 132.66724 64.856352 132.66724 C 66.514946 132.66724 67.879795 131.30092 67.879795 129.64233 C 67.879795 127.98374 66.514946 126.61889 64.856352 126.61889 z M 93.655229 126.61889 C 91.996636 126.61889 90.631786 127.98374 90.631786 129.64233 C 90.631786 131.30092 91.996636 132.66724 93.655229 132.66724 C 95.313822 132.66724 96.678671 131.30092 96.678671 129.64233 C 96.678671 127.98374 95.313822 126.61889 93.655229 126.61889 z M 100.85641 126.61889 C 99.197822 126.61889 97.831505 127.98374 97.831505 129.64233 C 97.831505 131.30092 99.197822 132.66724 100.85641 132.66724 C 102.51501 132.66724 103.87985 131.30092 103.87985 129.64233 C 103.87985 127.98374 102.51501 126.61889 100.85641 126.61889 z M 122.45557 126.61889 C 120.79698 126.61889 119.43213 127.98374 119.43213 129.64233 C 119.43213 131.30092 120.79698 132.66724 122.45557 132.66724 C 124.11417 132.66724 125.47901 131.30092 125.47901 129.64233 C 125.47901 127.98374 124.11417 126.61889 122.45557 126.61889 z M 129.65529 126.61889 C 127.99669 126.61889 126.63185 127.98374 126.63185 129.64233 C 126.63185 131.30092 127.99669 132.66724 129.65529 132.66724 C 131.31388 132.66724 132.67873 131.30092 132.67873 129.64233 C 132.67873 127.98374 131.31388 126.61889 129.65529 126.61889 z M -10.801488 137.2317 C -12.538331 137.2317 -13.968486 138.66185 -13.968486 140.3987 C -13.968486 142.13554 -12.538331 143.56716 -10.801488 143.56716 C -9.064646 143.56716 -7.6330261 142.13554 -7.633026 140.3987 C -7.633026 138.66185 -9.0646459 137.2317 -10.801488 137.2317 z M 169.19881 144.43142 C 167.46197 144.43142 166.03035 145.86304 166.03035 147.59988 C 166.03035 149.33672 167.46197 150.76688 169.19881 150.76688 C 170.93565 150.76688 172.36727 149.33672 172.36727 147.59988 C 172.36727 145.86304 170.93565 144.43142 169.19881 144.43142 z M -10.801488 144.43288 C -12.538331 144.43288 -13.968486 145.86304 -13.968486 147.59988 C -13.968486 149.33672 -12.538331 150.76834 -10.801488 150.76834 C -9.064646 150.76834 -7.6330261 149.33672 -7.633026 147.59988 C -7.6330261 145.86304 -9.064646 144.43288 -10.801488 144.43288 z M -10.801488 151.63114 C -12.538331 151.63114 -13.968486 153.06276 -13.968486 154.7996 C -13.968486 156.53644 -12.538331 157.96806 -10.801488 157.96806 C -9.064646 157.96806 -7.6330261 156.53644 -7.633026 154.7996 C -7.6330253 153.06276 -9.0646454 151.63114 -10.801488 151.63114 z M 169.19881 151.6326 C 167.46197 151.6326 166.03035 153.06422 166.03035 154.80106 C 166.03035 156.53791 167.46197 157.96806 169.19881 157.96806 C 170.93565 157.96806 172.36727 156.53791 172.36727 154.80106 C 172.36727 153.06422 170.93565 151.6326 169.19881 151.6326 z M 169.19881 158.83086 C 167.46197 158.83086 166.03035 160.26247 166.03035 161.99932 C 166.03035 163.73616 167.46197 165.16778 169.19881 165.16778 C 170.93565 165.16778 172.36727 163.73616 172.36727 161.99932 C 172.36727 160.26247 170.93565 158.83086 169.19881 158.83086 z M -10.801488 158.83232 C -12.538331 158.83232 -13.968486 160.26394 -13.968486 162.00078 C -13.968486 163.73762 -12.538331 165.16924 -10.801488 165.16924 C -9.064646 165.16924 -7.6330261 163.73762 -7.633026 162.00078 C -7.6330261 160.26394 -9.064646 158.83232 -10.801488 158.83232 z M 21.655109 169.82013 C 19.996515 169.82013 18.631665 171.18498 18.631666 172.84357 C 18.631666 174.50217 19.996516 175.86702 21.655109 175.86702 C 23.313702 175.86702 24.678551 174.50217 24.678551 172.84357 C 24.678552 171.18498 23.313702 169.82013 21.655109 169.82013 z M 28.856293 169.82013 C 27.197699 169.82013 25.831384 171.18498 25.831385 172.84357 C 25.831385 174.50217 27.1977 175.86702 28.856293 175.86702 C 30.514886 175.86702 31.879735 174.50217 31.879735 172.84357 C 31.879736 171.18498 30.514886 169.82013 28.856293 169.82013 z M 57.655169 169.82013 C 55.996575 169.82013 54.631725 171.18498 54.631726 172.84357 C 54.631726 174.50217 55.996576 175.86702 57.655169 175.86702 C 59.313762 175.86702 60.678611 174.50217 60.678611 172.84357 C 60.678612 171.18498 59.313763 169.82013 57.655169 169.82013 z M 64.856352 169.82013 C 63.197759 169.82013 61.831444 171.18498 61.831445 172.84357 C 61.831445 174.50217 63.19776 175.86702 64.856352 175.86702 C 66.514946 175.86702 67.879795 174.50217 67.879795 172.84357 C 67.879796 171.18498 66.514946 169.82013 64.856352 169.82013 z M 115.25439 169.82013 C 113.59579 169.82013 112.23094 171.18498 112.23094 172.84357 C 112.23094 174.50217 113.59579 175.86702 115.25439 175.86702 C 116.91297 175.86702 118.28076 174.50217 118.28076 172.84357 C 118.28076 171.18498 116.91297 169.82013 115.25439 169.82013 z M 122.45557 169.82013 C 120.79698 169.82013 119.43213 171.18498 119.43213 172.84357 C 119.43213 174.50217 120.79698 175.86702 122.45557 175.86702 C 124.11417 175.86702 125.47901 174.50217 125.47901 172.84357 C 125.47901 171.18498 124.11417 169.82013 122.45557 169.82013 z M 129.65529 169.82013 C 127.99669 169.82013 126.63185 171.18498 126.63185 172.84357 C 126.63185 174.50217 127.99669 175.86702 129.65529 175.86702 C 131.31388 175.86702 132.67873 174.50217 132.67873 172.84357 C 132.67873 171.18498 131.31388 169.82013 129.65529 169.82013 z M -9.0011924 178.70442 C -11.700594 178.70442 -13.895243 180.89907 -13.895243 183.59847 C -13.895244 186.29788 -11.700594 188.49546 -9.0011924 188.49546 C -6.3017904 188.49546 -4.1042116 186.29788 -4.1042116 183.59847 C -4.1042116 180.89907 -6.3017905 178.70442 -9.0011924 178.70442 z M 165.59968 178.70589 C 162.90028 178.70589 160.70563 180.90054 160.70563 183.59994 C 160.70563 186.29934 162.90028 188.49692 165.59968 188.49692 C 168.29909 188.49692 170.49667 186.29934 170.49667 183.59994 C 170.49667 180.90054 168.29909 178.70589 165.59968 178.70589 z " />
        </g>
      </g>
    </g>
  </g>
  <g
     partID="59792"
     id="g39">
    <g
       transform="translate(183.318,35.6891)"
       id="g37">
      <g
         id="g35">
        <g
           id="g33" />
      </g>
    </g>
  </g>
  <g
     partID="58912"
     id="g54">
    <g
       transform="translate(3.31845,28.4891)"
       id="g52">
      <g
         id="g50">
        <g
           id="g48" />
      </g>
    </g>
  </g>
  <g
     partID="66212"
     id="g68">
    <g
       transform="translate(147.374,13.4119)"
       id="g66">
      <g
         transform="matrix(0,-1,1,0,0,0)"
         id="g64">
        <g
           id="g62">
          <g
             id="g60" />
        </g>
      </g>
    </g>
  </g>
  <g
     partID="66182"
     id="g82">
    <g
       transform="translate(125.774,13.4119)"
       id="g80">
      <g
         transform="matrix(0,-1,1,0,0,0)"
         id="g78">
        <g
           id="g76">
          <g
             id="g74" />
        </g>
      </g>
    </g>
  </g>
  <g
     partID="70871"
     id="g89">
    <g
       transform="translate(4.07869,193.036)"
       id="g87">
      <g
         id="g85" />
    </g>
  </g>
  <g
     partID="70851"
     id="g97">
    <g
       transform="translate(4.07869,4.03649)"
       id="g95">
      <g
         id="g93" />
    </g>
  </g>
  <g
     partID="92053"
     id="g105">
    <g
       transform="translate(154.862,28.8199)"
       id="g103">
      <g
         id="g101" />
    </g>
  </g>
  <g
     partID="92253"
     id="g115">
    <g
       transform="translate(129.662,28.8199)"
       id="g113">
      <g
         id="g111" />
    </g>
  </g>
  <g
     partID="93242"
     id="g159">
    <g
       transform="translate(19.2141,76.7719)"
       id="g157">
      <g
         stroke-width="0"
         id="g155">
        <g
           stroke-width="0"
           id="g153" />
      </g>
    </g>
  </g>
  <g
     partID="93252"
     id="g173">
    <g
       transform="translate(183.318,96.8891)"
       id="g171">
      <g
         id="g169">
        <g
           id="g167" />
      </g>
    </g>
  </g>
  <g
     partID="93262"
     id="g189">
    <g
       transform="translate(3.31845,89.6891)"
       id="g187">
      <g
         id="g185">
        <g
           id="g183" />
      </g>
    </g>
  </g>
  <g
     partID="93293"
     id="g199">
    <g
       transform="translate(154.862,90.0199)"
       id="g197">
      <g
         id="g195" />
    </g>
  </g>
  <g
     partID="93303"
     id="g209">
    <g
       transform="translate(129.662,90.0199)"
       id="g207">
      <g
         id="g205" />
    </g>
  </g>
  <g
     partID="94982"
     id="g253">
    <g
       transform="translate(19.2698,138.015)"
       id="g251">
      <g
         stroke-width="0"
         id="g249">
        <g
           stroke-width="0"
           id="g247" />
      </g>
    </g>
  </g>
  <g
     partID="94992"
     id="g267">
    <g
       transform="translate(183.374,158.132)"
       id="g265">
      <g
         id="g263">
        <g
           id="g261" />
      </g>
    </g>
  </g>
  <g
     partID="95002"
     id="g283">
    <g
       transform="translate(3.37413,150.932)"
       id="g281">
      <g
         id="g279">
        <g
           id="g277" />
      </g>
    </g>
  </g>
  <g
     partID="97471"
     id="g291">
    <g
       transform="translate(178.679,193.037)"
       id="g289">
      <g
         id="g287" />
    </g>
  </g>
  <g
     partID="97481"
     id="g299">
    <g
       transform="translate(178.679,4.03649)"
       id="g297">
      <g
         id="g295" />
    </g>
  </g>
  <g
     partID="97512"
     id="g311">
    <g
       transform="translate(183.374,132.932)"
       id="g309">
      <g
         id="g307">
        <g
           id="g305" />
      </g>
    </g>
  </g>
  <g
     partID="57830"
     id="g315">
    <g
       id="g313" />
  </g>
  <g
     partID="58852"
     id="g359">
    <g
       transform="translate(19.2141,15.5719)"
       id="g357">
      <g
         stroke-width="0"
         id="g355">
        <g
           stroke-width="0"
           id="g353" />
      </g>
    </g>
  </g>
  <g
     partID="59792"
     id="g373">
    <g
       transform="translate(183.318,35.6891)"
       id="g371">
      <g
         id="g369">
        <g
           id="g367" />
      </g>
    </g>
  </g>
  <g
     partID="58912"
     id="g389">
    <g
       transform="translate(3.31845,28.4891)"
       id="g387">
      <g
         id="g385">
        <g
           id="g383" />
      </g>
    </g>
  </g>
  <g
     partID="66212"
     id="g403">
    <g
       transform="translate(147.374,13.4119)"
       id="g401">
      <g
         transform="matrix(0,-1,1,0,0,0)"
         id="g399">
        <g
           id="g397">
          <g
             id="g395" />
        </g>
      </g>
    </g>
  </g>
  <g
     partID="66182"
     id="g417">
    <g
       transform="translate(125.774,13.4119)"
       id="g415">
      <g
         transform="matrix(0,-1,1,0,0,0)"
         id="g413">
        <g
           id="g411">
          <g
             id="g409" />
        </g>
      </g>
    </g>
  </g>
  <g
     partID="70871"
     id="g425">
    <g
       transform="translate(4.07869,193.036)"
       id="g423">
      <g
         id="g421" />
    </g>
  </g>
  <g
     partID="70851"
     id="g433">
    <g
       transform="translate(4.07869,4.03649)"
       id="g431">
      <g
         id="g429" />
    </g>
  </g>
  <g
     partID="92053"
     id="g443">
    <g
       transform="translate(154.862,28.8199)"
       id="g441">
      <g
         id="g439" />
    </g>
  </g>
  <g
     partID="92253"
     id="g453">
    <g
       transform="translate(129.662,28.8199)"
       id="g451">
      <g
         id="g449" />
    </g>
  </g>
  <g
     partID="93242"
     id="g497">
    <g
       transform="translate(19.2141,76.7719)"
       id="g495">
      <g
         stroke-width="0"
         id="g493">
        <g
           stroke-width="0"
           id="g491" />
      </g>
    </g>
  </g>
  <g
     partID="93252"
     id="g511">
    <g
       transform="translate(183.318,96.8891)"
       id="g509">
      <g
         id="g507">
        <g
           id="g505" />
      </g>
    </g>
  </g>
  <g
     partID="93262"
     id="g527">
    <g
       transform="translate(3.31845,89.6891)"
       id="g525">
      <g
         id="g523">
        <g
           id="g521" />
      </g>
    </g>
  </g>
  <g
     partID="93293"
     id="g537">
    <g
       transform="translate(154.862,90.0199)"
       id="g535">
      <g
         id="g533" />
    </g>
  </g>
  <g
     partID="93303"
     id="g547">
    <g
       transform="translate(129.662,90.0199)"
       id="g545">
      <g
         id="g543" />
    </g>
  </g>
  <g
     partID="94982"
     id="g591">
    <g
       transform="translate(19.2698,138.015)"
       id="g589">
      <g
         stroke-width="0"
         id="g587">
        <g
           stroke-width="0"
           id="g585" />
      </g>
    </g>
  </g>
  <g
     partID="94992"
     id="g605">
    <g
       transform="translate(183.374,158.132)"
       id="g603">
      <g
         id="g601">
        <g
           id="g599" />
      </g>
    </g>
  </g>
  <g
     partID="95002"
     id="g621">
    <g
       transform="translate(3.37413,150.932)"
       id="g619">
      <g
         id="g617">
        <g
           id="g615" />
      </g>
    </g>
  </g>
  <g
     partID="97471"
     id="g629">
    <g
       transform="translate(178.679,193.037)"
       id="g627">
      <g
         id="g625" />
    </g>
  </g>
  <g
     partID="97481"
     id="g637">
    <g
       transform="translate(178.679,4.03649)"
       id="g635">
      <g
         id="g633" />
    </g>
  </g>
  <g
     partID="97512"
     id="g649">
    <g
       transform="translate(183.374,132.932)"
       id="g647">
      <g
         id="g645">
        <g
           id="g643" />
      </g>
    </g>
  </g>
</svg>
